<?xml version="1.0" standalone="no"?>
<!DOCTYPE svg PUBLIC "-//W3C//DTD SVG 1.1//EN" "http://www.w3.org/Graphics/SVG/1.1/DTD/svg11.dtd" >
<svg>
<metadata>
Created by FontForge 20090914 at Wed Jan 24 08:20:24 2018
 By www-data
Courtesy of PUBLISHERS' PARADISE BBS  205-882-6886 9600 HST
</metadata>
<defs>
<font id="Baskerville-Normal" horiz-adv-x="500" >
  <font-face 
    font-family="Baskerville"
    font-weight="400"
    font-stretch="normal"
    units-per-em="1000"
    panose-1="2 0 5 3 0 0 0 0 0 0"
    ascent="800"
    descent="-200"
    x-height="415"
    cap-height="667.001"
    bbox="-189.002 -275.001 965.002 874.999"
    underline-thickness="133"
    underline-position="-133"
    unicode-range="U+0020-U+FFFD"
  />
<missing-glyph horiz-adv-x="0" 
 />
    <glyph glyph-name=".notdef" unicode="&#xfffd;" horiz-adv-x="0" 
 />
    <glyph glyph-name="space" unicode=" " horiz-adv-x="278" 
 />
    <glyph glyph-name="exclam" unicode="!" horiz-adv-x="247" 
d="M142 226l-36.001 -0.00195312c-1.33301 34.667 -8.16602 88 -20.499 160s-18.5 125.333 -18.5 160c0 12 0.666992 24.333 2 37s3.66602 27.334 6.99902 44.001s9 30.334 17 41.001s18 16 30 16s22.167 -5 30.5 -15s14.333 -23.167 18 -39.5s6.16699 -31 7.5 -44
s2 -26.167 2 -39.5c0 -34 -6.16699 -87 -18.5 -159s-19.166 -125.667 -20.499 -161zM123.999 -13.002c-15.333 0 -28.5 5.5 -39.5 16.5s-16.5 24.167 -16.5 39.5s5.5 28.5 16.5 39.5s24.167 16.5 39.5 16.5s28.333 -5.5 39 -16.5s16 -24.167 16 -39.5
s-5.33301 -28.5 -16 -39.5s-23.667 -16.5 -39 -16.5z" />
    <glyph glyph-name="quotedbl" unicode="&#x22;" horiz-adv-x="355" 
d="M115 399h-40l-25 268h91zM279 399h-40l-25 268h91z" />
    <glyph glyph-name="numbersign" unicode="#" horiz-adv-x="589" 
d="M392 229l-47 -229h-43l47 229h-146l-47 -229h-43l47 229h-116l7 39h119l27 144h-116l7 39h119l44 216h43l-44 -216h145l45 216h43l-44 -216h109l-6 -39h-113l-27 -144h110l-7 -39h-113zM359 268l27 144h-146l-27 -144h146z" />
    <glyph glyph-name="dollar" unicode="$" horiz-adv-x="467" 
d="M262 639l-0.00292969 -253.005c0.666992 0 2 -0.666992 4 -2s3.66699 -2 5 -2c60.667 -30 101 -53.333 121 -70c39.333 -33.333 59 -75.333 59 -126c0 -49.333 -19 -92.666 -57 -129.999s-82 -56 -132 -56v-108h-37v108c-62.667 3.33301 -115.667 26 -159 68
c-30 28 -45 52.333 -45 73c0 11.333 4.16699 21 12.5 29s17.833 12 28.5 12c12.667 0 24 -6.83301 34 -20.5s18.5 -29 25.5 -46s19.5 -33.5 37.5 -49.5s40 -26 66 -30v265c-8.66699 4.66699 -25.334 12.834 -50.001 24.501s-42.167 20.834 -52.5 27.501
s-23.166 16.667 -38.499 30s-26.166 28.333 -32.499 45s-9.5 36.334 -9.5 59.001c0 56 16.333 100 49 132s77.334 49.667 134.001 53v100h37v-100c60 -8 106 -29.333 138 -64c23.333 -26 35 -50 35 -72c0 -12 -3.33301 -22 -10 -30s-15.667 -12 -27 -12
c-10.667 0 -19 4.33301 -25 13s-10.667 19.334 -14 32.001s-7.66602 25.667 -12.999 39s-15 25.833 -29 37.5s-32.333 19.5 -55 23.5zM224.997 638.995c-32 -1.33301 -60.168 -11.332 -84.501 -29.999s-36.5 -43.667 -36.5 -75c0 -16.667 3.33301 -32 10 -46
s16.834 -26.5 30.501 -37.5s26 -19.833 37 -26.5s25.5 -14.334 43.5 -23.001v238zM261.996 35.9961c32 3.33301 60.334 16.8311 85.001 40.498s37 51.167 37 82.5c0 13.333 -2.16699 25.5 -6.5 36.5s-11.833 21.167 -22.5 30.5s-19.334 16.333 -26.001 21
s-18.5 11.334 -35.5 20.001s-27.5 14.334 -31.5 17.001v-248z" />
    <glyph glyph-name="percent" unicode="%" horiz-adv-x="543" 
d="M129 327c-26.667 0 -49 9.66895 -67 29.002s-30.5 41.166 -37.5 65.499s-10.5 49.166 -10.5 74.499c0 42 9.5 80.667 28.5 116s47.833 53 86.5 53c38 0 66.667 -17.833 86 -53.5s29 -74.167 29 -115.5s-9.66699 -79.833 -29 -115.5s-48 -53.5 -86 -53.5zM129 345.002
c13.333 0 24.666 5.83691 33.999 17.5039s15.666 27 18.999 46s5.66602 35.167 6.99902 48.5s2 26.666 2 39.999s-0.666992 26.666 -2 39.999s-3.66602 29.5 -6.99902 48.5s-9.66602 34.333 -18.999 46s-20.666 17.5 -33.999 17.5s-24.666 -5.83301 -33.999 -17.5
s-15.833 -27 -19.5 -46s-6.16699 -35.333 -7.5 -49s-2 -26.834 -2 -39.501s0.666992 -25.834 2 -39.501s3.83301 -30 7.5 -49s10.167 -34.333 19.5 -46s20.666 -17.5 33.999 -17.5zM474 667.006l-369 -667h-35l369 667h35zM415 -4.99414c-38 0 -66.667 17.8311 -86 53.498
s-29 74.167 -29 115.5s9.66699 79.833 29 115.5s48 53.5 86 53.5c26.667 0 49 -9.66699 67 -29s30.5 -41.166 37.5 -65.499s10.5 -49.166 10.5 -74.499c0 -42 -9.5 -80.667 -28.5 -116s-47.833 -53 -86.5 -53zM415 13.0039c13.333 0 24.666 5.83301 33.999 17.5
s15.666 27 18.999 46s5.66602 35.167 6.99902 48.5s2 26.666 2 39.999s-0.666992 26.666 -2 39.999s-3.66602 29.5 -6.99902 48.5s-9.66602 34.333 -18.999 46s-20.666 17.5 -33.999 17.5s-24.666 -5.83301 -33.999 -17.5s-15.666 -27 -18.999 -46
s-5.66602 -35.167 -6.99902 -48.5s-2 -26.666 -2 -39.999s0.666992 -26.666 2 -39.999s3.66602 -29.5 6.99902 -48.5s9.66602 -34.333 18.999 -46s20.666 -17.5 33.999 -17.5z" />
    <glyph glyph-name="ampersand" unicode="&#x26;" horiz-adv-x="640" 
d="M373 395l207.004 -0.00292969v-26c-30.667 -7.33301 -55.167 -23.333 -73.5 -48s-35.5 -55.5 -51.5 -92.5s-31.667 -64.5 -47 -82.5c50.667 -67.333 96 -101 136 -101c32 0 59 14.667 81 44l20 -26c-12 -21.333 -29.5 -39 -52.5 -53s-46.5 -21 -70.5 -21
c-61.333 0 -116.333 30.333 -165 91c-28.667 -30.667 -56.334 -53.5 -83.001 -68.5s-58.334 -22.5 -95.001 -22.5c-44.667 0 -84.167 17.167 -118.5 51.5s-52.833 73.833 -55.5 118.5c0 84 51 154 153 210l-30 48.5c-5.33301 9 -11.666 23.5 -18.999 43.5s-11 38.667 -11 56
c0 34.667 14.5 62.334 43.5 83.001s61.5 31 97.5 31c32.667 0 63.167 -8.83301 91.5 -26.5s42.5 -41.834 42.5 -72.501c0 -17.333 -3 -33.166 -9 -47.499s-16.333 -28.166 -31 -41.499s-26.334 -23 -35.001 -29s-23.334 -15.333 -44.001 -28
c-4.66699 -3.33301 -8.33398 -5.66602 -11.001 -6.99902l68 -96.5l77 -108.5c40.667 47.333 61 95 61 143c0 34.667 -25.333 52 -76 52v26zM225.004 404.997c58.667 36 88 74.335 88 115.002c0 20.667 -7.5 38.334 -22.5 53.001s-32.833 22 -53.5 22
c-19.333 0 -36.333 -6.33301 -51 -19s-22 -28.667 -22 -48c0 -14.667 3.33301 -28.834 10 -42.501s15.667 -28.334 27 -44.001s19.333 -27.834 24 -36.501zM175.004 342.999c-28.667 -21.333 -50.667 -42.1699 -66 -62.5029s-23 -45.166 -23 -74.499
c0 -37.333 13.167 -71.666 39.5 -102.999s57.833 -48.666 94.5 -51.999c48.667 0 88.334 17.333 119.001 52c-14.667 19.333 -69.334 99.333 -164.001 240z" />
    <glyph glyph-name="quotesingle" unicode="'" horiz-adv-x="202" 
d="M122 399h-43l-25 268h94z" />
    <glyph glyph-name="parenleft" unicode="(" horiz-adv-x="295" 
d="M213 -275c-43.333 66.667 -76.5 141.167 -99.5 223.5s-34.5 164.833 -34.5 247.5s11.5 165.167 34.5 247.5s56.167 156.833 99.5 223.5h71c-93.333 -136 -140 -293 -140 -471s46.667 -335 140 -471h-71z" />
    <glyph glyph-name="parenright" unicode=")" horiz-adv-x="295" 
d="M82 -275h-71c93.333 136 140 293 140 471s-46.667 335 -140 471h71c43.333 -66.667 76.5 -141.167 99.5 -223.5s34.5 -164.833 34.5 -247.5s-11.5 -165.167 -34.5 -247.5s-56.167 -156.833 -99.5 -223.5z" />
    <glyph glyph-name="asterisk" unicode="*" horiz-adv-x="467" 
d="M252 529c10.667 3.33301 29.001 14.667 55.001 34s47.667 29 65 29c10.667 0 19.667 -4.83301 27 -14.5s11 -20.167 11 -31.5c0 -12 -4.83301 -21.333 -14.5 -28s-18.834 -10.5 -27.501 -11.5s-20 -1.83301 -34 -2.5h-25c-21.333 -1.33301 -36.666 -4 -45.999 -8
c6 -9.33301 17.167 -19.5 33.5 -30.5s30.833 -22.167 43.5 -33.5s19.667 -24 21 -38c0 -12 -4.5 -22.5 -13.5 -31.5s-19.5 -13.5 -31.5 -13.5c-14 0 -25.833 8.16699 -35.5 24.5s-18.334 35.833 -26.001 58.5s-14.167 37.334 -19.5 44.001
c-6 -6.66699 -12.5 -21.334 -19.5 -44.001s-15.333 -42.167 -25 -58.5s-21.834 -24.5 -36.501 -24.5c-11.333 0 -21.666 4.33301 -30.999 13s-14 18.334 -14 29.001c0 12.667 6.33301 25.167 19 37.5s27.667 24.666 45 36.999s28.666 22.833 33.999 31.5
c-9.33301 3.33301 -24.666 5.66602 -45.999 6.99902h-25c-14 0.666992 -25 1.5 -33 2.5s-17 4.33301 -27 10s-15.333 14.167 -16 25.5c0 12.667 3.16699 24.167 9.5 34.5s15.5 15.5 27.5 15.5c16.667 0 38 -9.66699 64 -29s45 -30.666 57 -33.999c0 14 -4 33.667 -12 59
s-12 45 -12 59c0 12.667 3.83301 22.667 11.5 30s17.167 11 28.5 11c12 0 22 -3.83301 30 -11.5s12 -17.5 12 -29.5c0 -14 -4 -33.667 -12 -59s-12 -45 -12 -59z" />
    <glyph glyph-name="plus" unicode="+" 
d="M20 370h204v194h51v-194h205v-50h-205v-194h-51v194h-204v50z" />
    <glyph glyph-name="comma" unicode="," horiz-adv-x="237" 
d="M56 -173v16.999c52.667 38 79 77.667 79 119c0 12 -2.66699 24.333 -8 37c-8.66699 -2 -18.334 -3 -29.001 -3c-14.667 0 -27.167 5.5 -37.5 16.5s-15.5 23.833 -15.5 38.5c0 15.333 5.5 28.5 16.5 39.5s24.167 16.5 39.5 16.5c26 0 47 -11.333 63 -34s24 -47.667 24 -75
c0 -38.667 -12.667 -74.167 -38 -106.5s-56.666 -54.166 -93.999 -65.499z" />
    <glyph glyph-name="hyphen" unicode="-" horiz-adv-x="213" 
d="M213 241v-49h-213v49h213z" />
    <glyph glyph-name="period" unicode="." horiz-adv-x="237" 
d="M119 -13c-15.333 0 -28.5 5.5 -39.5 16.5s-16.5 24.167 -16.5 39.5s5.5 28.5 16.5 39.5s24.167 16.5 39.5 16.5s28.333 -5.5 39 -16.5s16 -24.167 16 -39.5s-5.33301 -28.5 -16 -39.5s-23.667 -16.5 -39 -16.5z" />
    <glyph glyph-name="slash" unicode="/" horiz-adv-x="230" 
d="M305 667l-333 -942h-49l333 942h49z" />
    <glyph glyph-name="zero" unicode="0" horiz-adv-x="467" 
d="M233 -11c-67.333 0 -121.331 37.0039 -161.998 111.004c-34 58.667 -51 134.334 -51 227.001c0 35.333 3.66699 71.166 11 107.499s18.666 72.5 33.999 108.5s37.666 65.333 66.999 88s63 34 101 34c38.667 0 72.667 -11.333 102 -34s51.666 -51.834 66.999 -87.501
s26.666 -71.834 33.999 -108.501s11 -72.667 11 -108s-3.66699 -71.333 -11 -108s-18.666 -72.834 -33.999 -108.501s-37.666 -64.834 -66.999 -87.501s-63.333 -34 -102 -34zM233.002 14.0039c26.667 0 49.167 12.3311 67.5 36.998s31.166 56.667 38.499 96
s12.166 72.833 14.499 100.5s3.5 54.834 3.5 81.501s-1.16699 53.834 -3.5 81.501s-7.16602 61.167 -14.499 100.5s-20.166 71.333 -38.499 96s-40.833 37 -67.5 37c-22 0 -41 -8.83301 -57 -26.5s-28.167 -38.5 -36.5 -62.5s-15 -52.167 -20 -84.5s-8 -59 -9 -80
s-1.5 -41.5 -1.5 -61.5s0.5 -40.5 1.5 -61.5s4 -47.667 9 -80s11.667 -60.5 20 -84.5s20.5 -44.833 36.5 -62.5s35 -26.5 57 -26.5z" />
    <glyph glyph-name="one" unicode="1" horiz-adv-x="467" 
d="M194 568h-83.001v29c28 1.33301 51 5.33301 69 12s35 15.667 51 27s29.333 19.333 40 24c0.666992 0.666992 1.33398 1 2.00098 1c2.66699 0 4 -1.66699 4 -5v-545c0 -32 7 -54 21 -66s37 -18 69 -18v-27h-267v27c35.333 0 59.833 5.5 73.5 16.5s20.5 33.5 20.5 67.5v457
z" />
    <glyph glyph-name="two" unicode="2" horiz-adv-x="467" 
d="M447 150l-38.002 -150.003h-388l9 41c40.667 34 76.5 66 107.5 96s63.333 65.5 97 106.5s59.834 84.167 78.501 129.5s28 90.333 28 135c0 36 -11.667 67.5 -35 94.5s-52.666 40.5 -87.999 40.5s-65.333 -11.667 -90 -35s-37 -52.666 -37 -87.999
c0 -20 5.5 -39.5 16.5 -58.5s25.5 -31.833 43.5 -38.5c-6 -16.667 -21 -25 -45 -25c-22 0 -38.667 10.667 -50 32s-17 44 -17 68c0 50 18 90.333 54 121s79.333 46 130 46c56 0 103.667 -17.667 143 -53s59 -80.666 59 -135.999c0 -24.667 -3.83301 -49.334 -11.5 -74.001
s-16.334 -46.5 -26.001 -65.5s-24.667 -40.333 -45 -64s-37 -42.334 -50 -56.001s-33.167 -31.667 -60.5 -54s-46.5 -37.666 -57.5 -45.999l-58.5 -43.5h237c8.66699 0 16.334 1.33301 23.001 4s12.5 7.33398 17.5 14.001s8.83301 12.334 11.5 17.001s6 12 10 22
s7 16.667 9 20h23z" />
    <glyph glyph-name="three" unicode="3" horiz-adv-x="467" 
d="M107 189c-8.66699 -19.333 -12.999 -38.332 -12.999 -56.999c0 -31.333 12.333 -58 37 -80s53 -33 85 -33c42 0 74.167 15.167 96.5 45.5s33.5 67.5 33.5 111.5c0 23.333 -2.83301 45.833 -8.5 67.5s-16.167 41.334 -31.5 59.001s-34.666 27.167 -57.999 28.5
c-9.33301 0 -21 -4.83301 -35 -14.5s-25.667 -14.5 -35 -14.5s-17.833 3.33301 -25.5 10s-11.834 14.667 -12.501 24c0 19.333 20.667 29 62 29c18 0 34.667 -1.33301 50 -4c26 10.667 45.833 28.167 59.5 52.5s20.5 51.166 20.5 80.499c0 40.667 -10 76.167 -30 106.5
s-48.667 45.5 -86 45.5c-24 0 -44.667 -7.33301 -62 -22s-26 -33.667 -26 -57c0 -26 10 -50 30 -72c-8 -5.33301 -19 -8 -33 -8c-16 0.666992 -29.5 7.16699 -40.5 19.5s-16.5 26.5 -16.5 42.5c0 36.667 17 65.167 51 85.5s70.333 30.5 109 30.5
c48 0 90.833 -15.333 128.5 -46s56.5 -69.667 56.5 -117c0 -38 -10.5 -70.5 -31.5 -97.5s-50.167 -44.167 -87.5 -51.5c40 -8 73.667 -28.5 101 -61.5s41 -69.833 41 -110.5c0 -60 -22.5 -107 -67.5 -141s-98.5 -51 -160.5 -51c-44 0 -84.333 10.667 -121 32
s-55 52.666 -55 93.999c0 22 7.16699 39.833 21.5 53.5s32.166 20.5 53.499 20.5z" />
    <glyph glyph-name="four" unicode="4" horiz-adv-x="467" 
d="M457 249l-25 -86.001h-99v-70c0 -25.333 5.5 -42.666 16.5 -51.999s29.167 -14 54.5 -14v-27h-226v27c26 0 44.833 4.66699 56.5 14s17.5 26.666 17.5 51.999v70h-242l308 491c5.33301 5.33301 8.33301 8 9 8c4 0 6 -2.66699 6 -8v-455c16.667 0 28.667 0.333008 36 1
s15.5 2.5 24.5 5.5s16.167 7.83301 21.5 14.5s11 16.334 17 29.001h25zM252 198.999v165v142l-186 -307h186z" />
    <glyph glyph-name="five" unicode="5" horiz-adv-x="467" 
d="M171 572l-20.9971 -194.004c26 24 60.333 36 103 36c48.667 0 90.167 -18.167 124.5 -54.5s51.5 -78.833 51.5 -127.5c0 -69.333 -24.5 -127.166 -73.5 -173.499s-108.167 -69.5 -177.5 -69.5c-38 0 -73.833 10.667 -107.5 32s-50.5 50 -50.5 86
c0 14 3.66699 26.667 11 38s17.666 17.333 30.999 18c13.333 0 23 -5.16699 29 -15.5s9.83301 -22.833 11.5 -37.5s4.16699 -29.167 7.5 -43.5s10.666 -26.666 21.999 -36.999s27.666 -15.5 48.999 -15.5c50 0 88.5 22.833 115.5 68.5s40.5 95.167 40.5 148.5
c0 26 -3 49.833 -9 71.5s-17.667 40.834 -35 57.501s-39.333 25 -66 25c-17.333 0 -34.666 -6.5 -51.999 -19.5s-26 -27.833 -26 -44.5c0 -6 -2.5 -11.333 -7.5 -16s-10.833 -7 -17.5 -7c-3.33301 0 -6.33301 1.5 -9 4.5s-4 6.16699 -4 9.5v1l39 341
c66.667 -5.33301 141.334 -8 224.001 -8c18 0 34 7 48 21h26c-14.667 -19.333 -24.834 -32.333 -30.501 -39s-15 -16.167 -28 -28.5s-26.167 -20.666 -39.5 -24.999s-29 -6.5 -47 -6.5c-16.667 0 -40.334 0.666992 -71.001 2s-51 2 -61 2z" />
    <glyph glyph-name="six" unicode="6" horiz-adv-x="467" 
d="M123 378c30.667 32.667 73.334 48.999 128.001 48.999c56 0 101.333 -21.333 136 -64s52 -92.334 52 -149.001c0 -61.333 -18 -114.166 -54 -158.499s-84.333 -66.5 -145 -66.5c-36.667 0 -69.167 8.16699 -97.5 24.5s-50.5 38.333 -66.5 66s-28 57.5 -36 89.5
s-12 65.333 -12 100c0 46 5.66699 91.5 17 136.5s28.166 87.333 50.499 127s52.833 71.667 91.5 96s82.334 36.5 131.001 36.5c25.333 0 49.166 -4.83301 71.499 -14.5s33.5 -25.5 33.5 -47.5c0 -10 -3.16699 -18.5 -9.5 -25.5s-14.5 -10.5 -24.5 -10.5
c-12.667 0 -23.5 6.33301 -32.5 19s-18.833 25.5 -29.5 38.5s-23.667 19.833 -39 20.5c-35.333 0 -66 -16.5 -92 -49.5s-44.333 -68.667 -55 -107s-16.667 -75.166 -18 -110.499zM355 213.999c0 30 -2.83203 58.332 -8.49902 84.999s-18 51.334 -37 74.001
s-43.5 34 -73.5 34c-28 0 -51.5 -10 -70.5 -30s-32 -42.667 -39 -68s-10.5 -51.666 -10.5 -78.999c0 -22.667 1.66699 -45 5 -67s9 -44.833 17 -68.5s20.667 -42.834 38 -57.501s38 -22 62 -22c23.333 0 43.166 6.66699 59.499 20s28.333 30.833 36 52.5
s13.167 42.667 16.5 63s5 41.5 5 63.5z" />
    <glyph glyph-name="seven" unicode="7" horiz-adv-x="467" 
d="M429 640l-239.998 -591.998c-4.66699 -12 -8.83398 -21.5 -12.501 -28.5s-9.66699 -13.833 -18 -20.5s-17.833 -10 -28.5 -10c-28.667 0 -43 13.667 -43 41c0 9.33301 5.33301 24.666 16 45.999l275 492h-204c-28.667 0 -52.334 -7.83301 -71.001 -23.5
s-31 -37.834 -37 -66.501h-28l28 189h23c0 -18 12.333 -27 37 -27h303z" />
    <glyph glyph-name="eight" unicode="8" horiz-adv-x="467" 
d="M342 356c36.667 -14 65.833 -36.8311 87.5 -68.498s32.5 -67.167 32.5 -106.5c0 -58.667 -22.833 -105.334 -68.5 -140.001s-99.167 -52 -160.5 -52c-56.667 0 -106.5 17.667 -149.5 53s-64.5 80.666 -64.5 135.999c0 36 11 68.5 33 97.5s50.333 51.5 85 67.5
c-68 29.333 -102 79 -102 149c0 50.667 20.667 92.167 62 124.5s88 48.5 140 48.5c54 0 102 -15.167 144 -45.5s63 -71.833 63 -124.5c0 -62.667 -34 -109 -102 -139zM288.999 374.002c50.667 22.667 76 63.667 76 123c0 40 -11.5 74.167 -34.5 102.5
s-53.833 42.5 -92.5 42.5c-36.667 0 -66.667 -12.5 -90 -37.5s-35 -55.833 -35 -92.5c0 -50.667 25.667 -85 77 -103zM189.999 325.002c-58.667 -31.333 -88 -77.999 -88 -139.999c0 -44.667 11.667 -83.667 35 -117s56.333 -50 99 -50s76.667 15.667 102 47s38 69 38 113
c0 27.333 -8.16699 51.166 -24.5 71.499s-37.833 34.833 -64.5 43.5z" />
    <glyph glyph-name="nine" unicode="9" horiz-adv-x="467" 
d="M345 274c-30 -32 -70.333 -47.999 -121 -47.999c-56 0 -102.667 19.833 -140 59.5s-56 87.5 -56 143.5c0 60.667 19.5 115.167 58.5 163.5s88.167 72.5 147.5 72.5c36.667 0 69.167 -9.16699 97.5 -27.5s50.333 -42.333 66 -72s27.5 -61.167 35.5 -94.5s12 -67 12 -101
c0 -43.333 -5.66699 -86.666 -17 -129.999s-27.833 -84 -49.5 -122s-51.167 -69 -88.5 -93s-79.333 -36 -126 -36c-34 0 -66 8.66699 -96 26s-45 41.666 -45 72.999c0 13.333 3.66699 24.5 11 33.5s17.333 13.5 30 13.5c10.667 0 19.667 -6.16699 27 -18.5
s13 -25.833 17 -40.5s12.5 -28.167 25.5 -40.5s29.833 -18.5 50.5 -18.5c26.667 0 50.834 9 72.501 27s38.667 40.667 51 68s21.666 55.166 27.999 83.499s9.5 54.5 9.5 78.5zM352 430.001c0 21.333 -1.49805 43.0029 -4.49805 65.0029s-8.33301 45 -16 69
s-19.834 43.667 -36.501 59s-36.334 23 -59.001 23c-23.333 0 -43.333 -6.66699 -60 -20s-29.167 -31 -37.5 -53s-14.166 -43.5 -17.499 -64.5s-5 -42.167 -5 -63.5s1.5 -42.333 4.5 -63s8.33301 -41.834 16 -63.501s19.667 -39.167 36 -52.5s36.166 -20 59.499 -20
c30 0 54.5 10.667 73.5 32s31.5 44.666 37.5 69.999s9 52.666 9 81.999z" />
    <glyph glyph-name="colon" unicode=":" horiz-adv-x="237" 
d="M119 -13c-15.333 0 -28.5 5.5 -39.5 16.5s-16.5 24.167 -16.5 39.5s5.5 28.5 16.5 39.5s24.167 16.5 39.5 16.5s28.333 -5.5 39 -16.5s16 -24.167 16 -39.5s-5.33301 -28.5 -16 -39.5s-23.667 -16.5 -39 -16.5zM119 315c-15.333 0 -28.5 5.5 -39.5 16.5
s-16.5 24.167 -16.5 39.5s5.5 28.5 16.5 39.5s24.167 16.5 39.5 16.5s28.333 -5.5 39 -16.5s16 -24.167 16 -39.5s-5.33301 -28.5 -16 -39.5s-23.667 -16.5 -39 -16.5z" />
    <glyph glyph-name="semicolon" unicode=";" horiz-adv-x="237" 
d="M56 -173v16.999c52.667 38 79 77.667 79 119c0 12 -2.66699 24.333 -8 37c-8.66699 -2 -18.334 -3 -29.001 -3c-14.667 0 -27.167 5.5 -37.5 16.5s-15.5 23.833 -15.5 38.5c0 15.333 5.5 28.5 16.5 39.5s24.167 16.5 39.5 16.5c26 0 47 -11.333 63 -34s24 -47.667 24 -75
c0 -38.667 -12.667 -74.167 -38 -106.5s-56.666 -54.166 -93.999 -65.499zM117 314.999c-15.333 0 -28.5 5.5 -39.5 16.5s-16.5 24.167 -16.5 39.5s5.5 28.333 16.5 39s24.167 16 39.5 16s28.333 -5.33301 39 -16s16 -23.667 16 -39s-5.33301 -28.5 -16 -39.5
s-23.667 -16.5 -39 -16.5z" />
    <glyph glyph-name="less" unicode="&#x3c;" 
d="M458 618v-43l-300 -194l300 -201v-114l-416 279v7z" />
    <glyph glyph-name="equal" unicode="=" 
d="M20 440h460v-48h-460v48zM20 297h460v-48h-460v48z" />
    <glyph glyph-name="greater" unicode="&#x3e;" 
d="M42 66v43l300 194l-300 201v114l416 -280v-6z" />
    <glyph glyph-name="question" unicode="?" horiz-adv-x="412" 
d="M196 226l-34.002 -0.00195312v204h19c17.333 -22.667 34.333 -34 51 -34c16 0 29.333 8.16699 40 24.5s17.5 32.833 20.5 49.5s4.5 32.667 4.5 48c0 34.667 -7.33301 65.834 -22 93.501s-37.667 41.5 -69 41.5c-14 0 -25.5 -3.5 -34.5 -10.5s-15.167 -14.833 -18.5 -23.5
s-8 -16.667 -14 -24s-13.333 -11.333 -22 -12c-8.66699 0 -16.167 2.83301 -22.5 8.5s-9.5 12.834 -9.5 21.501c0 23.333 13.5 41 40.5 53s54.167 18 81.5 18c46.667 0 86.334 -17.167 119.001 -51.5s49 -75.166 49 -122.499c0 -36.667 -11.667 -70.834 -35 -102.501
s-52.666 -47.5 -87.999 -47.5c-21.333 0 -40 5.66699 -56 17v-151zM179.998 -13.002c-15.333 0 -28.5 5.5 -39.5 16.5s-16.5 24.167 -16.5 39.5s5.5 28.5 16.5 39.5s24.167 16.5 39.5 16.5s28.333 -5.5 39 -16.5s16 -24.167 16 -39.5s-5.33301 -28.5 -16 -39.5
s-23.667 -16.5 -39 -16.5z" />
    <glyph glyph-name="at" unicode="@" horiz-adv-x="776" 
d="M610 116l31 -10.001c-80 -80 -170 -120 -270 -120c-86.667 0 -160.5 33 -221.5 99s-91.5 143 -91.5 231c0 106.667 37.667 194.334 113 263.001s166.666 103 273.999 103c78.667 0 145.834 -24.333 201.501 -73s83.5 -111.667 83.5 -189c0 -96 -30.667 -172.333 -92 -229
c-36 -34.667 -73.333 -52 -112 -52c-22.667 0 -39.5 9.16699 -50.5 27.5s-16.5 39.5 -16.5 63.5c-40.667 -62.667 -85.667 -94 -135 -94c-30 0 -53.167 12.833 -69.5 38.5s-24.5 54.167 -24.5 85.5c0 35.333 7.83301 73 23.5 113s39.167 75.167 70.5 105.5s65 45.5 101 45.5
c36.667 0 66.334 -17.667 89.001 -53l8 41c19.333 1.33301 38 3.33301 56 6l-60 -237c-7.33301 -28 -11 -48.667 -11 -62c0 -31.333 11 -47 33 -47c28 0 57.667 18.333 89 55c43.333 52 65 114.667 65 188c0 67.333 -24.333 123 -73 167s-107.334 66 -176.001 66
c-103.333 0 -186.333 -33.667 -249 -101c-25.333 -27.333 -47.333 -64.5 -66 -111.5s-28 -89.167 -28 -126.5c0 -78 28 -145.5 84 -202.5s123 -85.5 201 -85.5c68 0 142.333 31.667 223 95zM474 352.999l20.001 63c1.33301 5.33301 2 10 2 14
c0 17.333 -5.16699 32.666 -15.5 45.999s-24.166 20 -41.499 20c-29.333 0 -56.333 -16 -81 -48s-42.834 -67.167 -54.501 -105.5s-17.5 -72.166 -17.5 -101.499c0 -19.333 4.5 -36.5 13.5 -51.5s22.5 -22.5 40.5 -22.5c31.333 0 58.833 18.5 82.5 55.5
s39.5 73.833 47.5 110.5c1.33301 9.33301 2.66602 16 3.99902 20z" />
    <glyph glyph-name="A" unicode="A" horiz-adv-x="723" 
d="M382 678l251.999 -581c10 -22.667 22 -39.167 36 -49.5s33 -15.833 57 -16.5v-31h-275v31h22c38.667 0 58 10.333 58 31c0 10 -3 21.667 -9 35l-54 129h-266l-52 -129c-4.66699 -10.667 -7 -19.667 -7 -27c0 -26 20.667 -39 62 -39h21v-31h-230v31
c30 0.666992 52.833 5.5 68.5 14.5s28.834 26.167 39.501 51.5l240 581h37zM449.999 268l-86.999 211.999c-14.667 38.667 -24 65.334 -28 80.001c-0.666992 -2 -1.83398 -5.83301 -3.50098 -11.5s-3.16699 -10.167 -4.5 -13.5l-108 -267h231z" />
    <glyph glyph-name="B" unicode="B" horiz-adv-x="596" 
d="M337 361c58.667 -2 108.999 -18.335 150.999 -49.002s63 -74 63 -130c0 -54.667 -18.833 -98.667 -56.5 -132s-84.5 -50 -140.5 -50h-340v31c20.667 0.666992 35.5 1.66699 44.5 3s18.667 4.5 29 9.5s17.333 12.833 21 23.5s5.5 25.334 5.5 44.001v445
c0 18 -1.83301 32.5 -5.5 43.5s-10.667 19 -21 24s-20.166 8.16699 -29.499 9.5s-24 2.33301 -44 3v31h323c48.667 0 90.5 -12.667 125.5 -38s52.5 -61.666 52.5 -108.999c0 -89.333 -59.333 -142.333 -178 -159zM213.999 340.998l0.000976562 -229.999
c0 -29.333 8.16699 -49.166 24.5 -59.499s40.5 -15.5 72.5 -15.5c44.667 0 77 14.667 97 44s30 67.666 30 114.999c0 18 -1.5 34.167 -4.5 48.5s-8 26.333 -15 36s-13.833 18.167 -20.5 25.5s-16.5 13.166 -29.5 17.499s-24 7.83301 -33 10.5s-21.833 4.5 -38.5 5.5
s-29.834 1.66699 -39.501 2s-24.167 0.5 -43.5 0.5zM214 372.999c25.333 0 45.5 0.499023 60.5 1.49902s32 3.83301 51 8.5s33.5 11.334 43.5 20.001s18.667 21.5 26 38.5s11 37.833 11 62.5c0 43.333 -8.33301 75.833 -25 97.5s-45.667 32.5 -87 32.5h-80v-261z" />
    <glyph glyph-name="C" unicode="C" horiz-adv-x="698" 
d="M654 666l8.99902 -241.001h-31c-36.667 148.667 -117 223 -241 223c-39.333 0 -74.166 -9.33301 -104.499 -28s-54.166 -43.167 -71.499 -73.5s-30.166 -63 -38.499 -98s-12.5 -70.833 -12.5 -107.5c0 -54.667 8 -104.5 24 -149.5s43.167 -82.833 81.5 -113.5
s85.5 -46 141.5 -46c50.667 0 99.167 15.5 145.5 46.5s78.833 69.833 97.5 116.5l36 -27c-25.333 -57.333 -66.333 -102.666 -123 -135.999s-117.334 -50 -182.001 -50c-98.667 0 -179.334 32.333 -242.001 97s-94 146.667 -94 246c0 100 31.667 184.667 95 254
s144.333 104 243 104c78 0 150.333 -22.667 217 -68c6 10 13.333 27 22 51h28z" />
    <glyph glyph-name="D" unicode="D" horiz-adv-x="731" 
d="M13 636l-0.00195312 30.999c14.667 0 37 -0.166992 67 -0.5s52.333 -0.5 67 -0.5s36.834 0.166992 66.501 0.5s51.834 0.5 66.501 0.5c83.333 0 144.666 -6.66699 183.999 -20c69.333 -24 123.333 -64.5 162 -121.5s58 -122.833 58 -197.5
c0 -98.667 -30.667 -178 -92 -238s-141.333 -90 -240 -90h-339v31c20.667 0.666992 35.5 1.66699 44.5 3s18.667 4.5 29 9.5s17.333 12.833 21 23.5s5.5 25.334 5.5 44.001v445c0 18 -1.83301 32.5 -5.5 43.5s-10.667 19 -21 24s-20.166 8.16699 -29.499 9.5
s-24 2.33301 -44 3zM212.998 631.999l0.000976562 -487c0 -48 7.5 -78.333 22.5 -91s46.833 -19 95.5 -19c42.667 0 79.667 8 111 24s55.666 38 72.999 66s30.166 59 38.499 93s12.5 71.333 12.5 112c0 98 -23.167 173.333 -69.5 226s-117.166 79 -212.499 79
c-23.333 0 -47 -1 -71 -3z" />
    <glyph glyph-name="E" unicode="E" horiz-adv-x="584" 
d="M506 667l17.999 -163.001h-31c-10 41.333 -25.167 73.166 -45.5 95.499s-49.833 33.5 -88.5 33.5h-145v-262h63c30.667 0 53.5 7.66699 68.5 23s23.167 38.666 24.5 69.999h31v-226h-31c-2.66699 18.667 -5.33398 33 -8.00098 43s-7.16699 19.833 -13.5 29.5
s-15.166 16.334 -26.499 20.001s-26.333 5.5 -45 5.5h-63v-214c0 -33.333 8.83301 -56.333 26.5 -69s43.834 -19 78.501 -19c25.333 0 45.5 0.666992 60.5 2s31.667 4.5 50 9.5s34.333 13.333 48 25s26.167 26.834 37.5 45.501c19.333 34 29.666 64 30.999 90h29l-13 -206
h-548v31c20.667 0.666992 35.5 1.66699 44.5 3s18.667 4.5 29 9.5s17.333 12.833 21 23.5s5.5 25.334 5.5 44.001v445c0 18 -1.83301 32.5 -5.5 43.5s-10.667 19 -21 24s-20.166 8.16699 -29.499 9.5s-24 2.33301 -44 3v31h492z" />
    <glyph glyph-name="F" unicode="F" horiz-adv-x="516" 
d="M396 463l-0.00390625 -227h-31c0 66.667 -28.333 100 -85 100h-69v-225c0 -18.667 1.83301 -33.334 5.5 -44.001s10.834 -18.5 21.501 -23.5s20.334 -8.16699 29.001 -9.5s23.334 -2.33301 44.001 -3v-31h-298v31c20.667 0.666992 35.5 1.66699 44.5 3s18.667 4.5 29 9.5
s17.333 12.833 21 23.5s5.5 25.334 5.5 44.001v445c0 18 -1.83301 32.5 -5.5 43.5s-10.667 19 -21 24s-20.166 8.16699 -29.499 9.5s-24 2.33301 -44 3v31h489l18 -162h-30c-12.667 42 -28.5 74 -47.5 96s-47.833 33 -86.5 33h-145v-264h74c53.333 0 80 31 80 93h31z" />
    <glyph glyph-name="G" unicode="G" horiz-adv-x="750" 
d="M446 290l290 -0.000976562v-31h-15c-48.667 0 -73 -21 -73 -63v-148c-25.333 -3.33301 -68.166 -15 -128.499 -35s-108.833 -30 -145.5 -30c-94 0 -172 31.333 -234 94s-93 141 -93 235c0 102.667 31.833 190.167 95.5 262.5s146.167 108.5 247.5 108.5
c78 0 145.333 -21.667 202 -65c8.66699 12.667 16 28.667 22 48h28l6 -227h-34c-8.66699 60.667 -32.834 111.334 -72.501 152.001s-89.167 61 -148.5 61c-44 0 -81.667 -9.83301 -113 -29.5s-55.166 -46.334 -71.499 -80.001s-28 -68.5 -35 -104.5
s-10.5 -74.667 -10.5 -116c0 -35.333 4.16699 -70 12.5 -104s21 -66 38 -96s40.167 -54.167 69.5 -72.5s63 -27.5 101 -27.5c31.333 0 66.5 8.16699 105.5 24.5s58.5 35.833 58.5 58.5v91c0 24.667 -6.33301 41.334 -19 50.001s-32.334 13 -59.001 13h-24v31z" />
    <glyph glyph-name="H" unicode="H" horiz-adv-x="758" 
d="M545 331l-332.003 -0.000976562v-220c0 -18.667 1.83301 -33.334 5.5 -44.001s10.834 -18.5 21.501 -23.5s20.334 -8.16699 29.001 -9.5s23.334 -2.33301 44.001 -3v-31h-300v31c20.667 0.666992 35.5 1.66699 44.5 3s18.667 4.5 29 9.5s17.333 12.833 21 23.5
s5.5 25.334 5.5 44.001v445c0 18 -1.83301 32.5 -5.5 43.5s-10.667 19 -21 24s-20.166 8.16699 -29.499 9.5s-24 2.33301 -44 3v31h300v-31c-36 -1.33301 -61.667 -6 -77 -14s-23 -30 -23 -66v-182h332v182c0 32.667 -7.33301 53.667 -22 63s-40.667 15 -78 17v31h300v-31
c-36.667 -1.33301 -62.334 -6 -77.001 -14c-15.333 -8 -23 -30 -23 -66v-445c0 -18.667 2 -33.5 6 -44.5s10.5 -18.833 19.5 -23.5s18.167 -7.66699 27.5 -9s22 -2.33301 38 -3h9v-31h-300v31c26 1.33301 45 3.33301 57 6s22.167 9.83398 30.5 21.501s12.5 29.167 12.5 52.5
v220z" />
    <glyph glyph-name="I" unicode="I" horiz-adv-x="327" 
d="M314 0h-300.004v31c20.667 0.666992 35.5 1.66699 44.5 3s18.667 4.5 29 9.5s17.333 12.833 21 23.5s5.5 25.334 5.5 44.001v445c0 18 -1.83301 32.5 -5.5 43.5s-10.667 19 -21 24s-20.166 8.16699 -29.499 9.5s-24 2.33301 -44 3v31h300v-31
c-36 -1.33301 -61.667 -6 -77 -14s-23 -30 -23 -66v-445c0 -18.667 1.83301 -33.334 5.5 -44.001s10.834 -18.5 21.501 -23.5s20.334 -8.16699 29.001 -9.5s23.334 -2.33301 44.001 -3v-31z" />
    <glyph glyph-name="J" unicode="J" horiz-adv-x="318" 
d="M5 636l-0.00292969 31h300v-31c-36 -1.33301 -61.667 -6 -77 -14c-15.333 -8.66699 -23 -30.667 -23 -66v-550c0 -82 -14 -141.667 -42 -179c-22 -30 -50.333 -53.5 -85 -70.5s-71 -25.5 -109 -25.5c-16 0 -32.167 1.33301 -48.5 4s-33.166 7 -50.499 13
s-31.5 15.333 -42.5 28s-16.5 27.667 -16.5 45c0 14 5.33301 26.167 16 36.5s23 15.5 37 15.5c12.667 0 23.5 -4.83301 32.5 -14.5s13.5 -20.834 13.5 -33.501c0 -6.66699 -2 -16 -6 -28c0 -22 20 -33 60 -33c94 0 141 58.333 141 175v617c0 18 -2 32.333 -6 43
s-11.167 18.5 -21.5 23.5s-20.166 8.33301 -29.499 10s-23.666 2.83398 -42.999 3.50098z" />
    <glyph glyph-name="K" unicode="K" horiz-adv-x="696" 
d="M354 414l255.003 -334c25.333 -32.667 61.666 -49 108.999 -49v-31h-292v31c7.33301 0 18.333 0.666992 33 2c24.667 2 37 7.66699 37 17c0 6.66699 -5 16.667 -15 30l-200 268l-68 -62v-175c0 -14.667 1.66699 -27 5 -37s7.16602 -17.667 11.499 -23
s11.666 -9.5 21.999 -12.5s19.166 -4.83301 26.499 -5.5s19 -1.33398 35 -2.00098v-31h-300v31c20.667 0.666992 35.5 1.66699 44.5 3s18.667 4.5 29 9.5s17.333 12.833 21 23.5s5.5 25.334 5.5 44.001v445c0 18 -1.83301 32.5 -5.5 43.5s-10.667 19 -21 24
s-20.166 8.16699 -29.499 9.5s-24 2.33301 -44 3v31h300v-31c-36 -1.33301 -61.333 -6 -76 -14c-16 -8.66699 -24 -30.667 -24 -66v-216l235 216c20 18.667 30 33.667 30 45c0 24 -23.333 36 -70 36v30h262v-30c-50 0 -95 -18.667 -135 -56z" />
    <glyph glyph-name="L" unicode="L" horiz-adv-x="571" 
d="M574 206l-13.001 -206.002h-548v31c20.667 0.666992 35.5 1.66699 44.5 3s18.667 4.5 29 9.5s17.333 12.833 21 23.5s5.5 25.334 5.5 44.001v445c0 18 -1.83301 32.5 -5.5 43.5s-10.667 19 -21 24s-20.166 8.16699 -29.499 9.5s-24 2.33301 -44 3v31h300v-31
c-36 -1.33301 -61.667 -6 -77 -14s-23 -30 -23 -66v-434c0 -33.333 8.83301 -56.333 26.5 -69s43.834 -19 78.501 -19c25.333 0 45.5 0.666992 60.5 2s31.667 4.5 50 9.5s34.333 13.333 48 25s26.167 26.834 37.5 45.501c19.333 34 29.666 64 30.999 90h29z" />
    <glyph glyph-name="M" unicode="M" horiz-adv-x="879" 
d="M426 0l-30.9961 0.00195312l-197 474c-6 14.667 -14 35.667 -24 63l-20 55v-53v-358v-30c0 -41.333 5.66699 -70.833 17 -88.5s38.666 -28.167 81.999 -31.5v-31h-239v31c36 1.33301 61.667 10.166 77 26.499s23 42.166 23 77.499v22v385
c0 39.333 -6.66699 64.5 -20 75.5s-40 17.167 -80 18.5v31h208l152 -364c21.333 -46 42.666 -104 63.999 -174c1.33301 2.66699 2.66602 6.5 3.99902 11.5s2.66602 8.83301 3.99902 11.5l213 515h207v-31c-36 -1.33301 -61.333 -6 -76 -14c-16 -8.66699 -24 -30.667 -24 -66
v-445c0 -30.667 5 -50.667 15 -60c13.333 -13.333 38.333 -20 75 -20h10v-31h-300v31c42.667 2 70 8.83301 82 20.5s18 37.5 18 77.5v336c0 47.333 2 94 6 140c-6 -22.667 -15.667 -50.667 -29 -84z" />
    <glyph glyph-name="N" unicode="N" horiz-adv-x="725" 
d="M211 667l327.002 -450.998c9.33301 -12.667 21.666 -35.334 36.999 -68.001c0 8 -0.166992 19.333 -0.5 34s-0.5 26 -0.5 34v320c0 20 -1.33301 36 -4 48s-7.33398 20.833 -14.001 26.5s-12.834 9.5 -18.501 11.5s-14.5 4.16699 -26.5 6.5s-21.667 4.83301 -29 7.5v31
h230v-31c-35.333 -0.666992 -60.166 -8.66699 -74.499 -24s-21.5 -40.666 -21.5 -75.999v-542h-42l-356 496c-22 29.333 -43.667 62.666 -65 99.999v-424c0 -47.333 5.66699 -80.833 17 -100.5s38.666 -31.167 81.999 -34.5v-31h-239v31
c36.667 1.33301 62.5 10.166 77.5 26.499s22.5 43.5 22.5 81.5v417c0 18 -1.83301 32.5 -5.5 43.5s-10.667 19 -21 24s-20.166 8.16699 -29.499 9.5s-24 2.33301 -44 3v31h198z" />
    <glyph glyph-name="O" unicode="O" horiz-adv-x="802" 
d="M400 -17c-101.333 0 -185.667 33 -253 99s-101 149.667 -101 251c0 102.667 33.5 186.667 100.5 252s151.5 98 253.5 98c102.667 0 187.5 -32.667 254.5 -98s100.5 -149.333 100.5 -252c0 -101.333 -33.833 -185 -101.5 -251s-152.167 -99 -253.5 -99zM399.999 18
c44 0 82.001 9 114.001 27s56.833 42.5 74.5 73.5s30.5 64.333 38.5 100s12 74.167 12 115.5s-4 79.833 -12 115.5s-20.833 69.167 -38.5 100.5s-42.5 56 -74.5 74s-70 27 -114 27c-35.333 0 -66.833 -6.16699 -94.5 -18.5s-50.5 -28.5 -68.5 -48.5
s-32.833 -43.833 -44.5 -71.5s-19.834 -56.167 -24.501 -85.5s-7 -60.333 -7 -93c0 -41.333 4 -79.833 12 -115.5s20.833 -69 38.5 -100s42.5 -55.5 74.5 -73.5s70 -27 114 -27z" />
    <glyph glyph-name="P" unicode="P" horiz-adv-x="536" 
d="M213 317l-0.00585938 -206.003c0 -18.667 1.83301 -33.334 5.5 -44.001s10.834 -18.5 21.501 -23.5s20.334 -8.16699 29.001 -9.5s23.334 -2.33301 44.001 -3v-31h-300v31c20.667 0.666992 35.5 1.66699 44.5 3s18.667 4.5 29 9.5s17.333 12.833 21 23.5
s5.5 25.334 5.5 44.001v445c0 18 -1.83301 32.5 -5.5 43.5s-10.667 19 -21 24s-20.166 8.16699 -29.499 9.5s-24 2.33301 -44 3v31h235c24 0 43.333 -0.166992 58 -0.5s33.334 -1.66602 56.001 -3.99902s41 -5.66602 55 -9.99902s29.333 -10.833 46 -19.5
s29.834 -19.167 39.501 -31.5s17.667 -28 24 -47s9.5 -40.5 9.5 -64.5c0 -31.333 -7.33301 -60.166 -22 -86.499s-35.334 -46.833 -62.001 -61.5c-31.333 -16.667 -78.666 -25 -141.999 -25h-97zM212.994 347.997h77.001c44 0 78 13.167 102 39.5s36 61.833 36 106.5
c0 52 -12.333 89.167 -37 111.5s-63.334 33.5 -116.001 33.5c-13.333 0 -34 -0.666992 -62 -2v-289z" />
    <glyph glyph-name="Q" unicode="Q" horiz-adv-x="801" 
d="M402 -15c-102.667 0 -187.501 32.3301 -254.501 96.9971s-100.5 148.334 -100.5 251.001s34.333 186.667 103 252s154.334 98 257.001 98c101.333 0 185 -32.5 251 -97.5s99 -148.167 99 -249.5c0 -74.667 -19.667 -141.667 -59 -201s-93.333 -102.333 -162 -129
l-108 -43l-108 -43c20 2 40.333 3 61 3c40 0 81 -6.5 123 -19.5s77.5 -27.333 106.5 -43s61.833 -30 98.5 -43s70.667 -19.5 102 -19.5c30 0 54.167 6.83301 72.5 20.5s33.166 34.834 44.499 63.501c2.66699 5.33301 5.33398 8.33301 8.00098 9
c6.66699 0 10 -3.66699 10 -11c0 -40.667 -22.5 -76.667 -67.5 -108s-88.5 -47 -130.5 -47c-34 0 -70.5 9.33301 -109.5 28s-73.167 39 -102.5 61s-63 42.333 -101 61s-73.333 28 -106 28c-20 0 -41.667 -6.33301 -65 -19s-36.333 -19 -39 -19c-6 0 -11 2.66699 -15 8
s-6 11.333 -6 18c0 4.66699 4.33301 9.33398 13 14.001c71.333 24 133 50.667 185 80zM640.999 345.997c0 40 -4.16992 77.334 -12.5029 112.001s-21.166 67 -38.499 97s-41.666 53.5 -72.999 70.5s-68.333 25.5 -111 25.5c-45.333 0 -84.333 -8.83301 -117 -26.5
s-57.834 -42 -75.501 -73s-30.5 -64.5 -38.5 -100.5s-12 -75.667 -12 -119c0 -32.667 2.33301 -63.5 7 -92.5s12.667 -57.333 24 -85s25.833 -51.334 43.5 -71.001s40.334 -35.5 68.001 -47.5s59.167 -18 94.5 -18c46.667 0 86.334 9.16699 119.001 27.5
s57.5 43.833 74.5 76.5s29.167 67.167 36.5 103.5s11 76.5 11 120.5z" />
    <glyph glyph-name="R" unicode="R" horiz-adv-x="675" 
d="M213 315l-0.00488281 -204.002c0 -18.667 1.83301 -33.334 5.5 -44.001s10.834 -18.5 21.501 -23.5s20.334 -8.16699 29.001 -9.5s23.334 -2.33301 44.001 -3v-31h-300v31c20.667 0.666992 35.5 1.66699 44.5 3s18.667 4.5 29 9.5s17.333 12.833 21 23.5
s5.5 25.334 5.5 44.001v445c0 18 -1.83301 32.5 -5.5 43.5s-10.667 19 -21 24s-20.166 8.16699 -29.499 9.5s-24 2.33301 -44 3v31h284c82.667 0 143.334 -14.667 182.001 -44c42.667 -32.667 64 -74 64 -124c0 -49.333 -18.5 -89.666 -55.5 -120.999
s-81.167 -47.666 -132.5 -48.999c12.667 -2 24.5 -5 35.5 -9s20.5 -7.83301 28.5 -11.5s16.833 -9.5 26.5 -17.5s16.834 -14.167 21.501 -18.5s11.667 -12.5 21 -24.5s15.333 -20 18 -24l19 -28l19 -28l22.5 -35.5c11 -17.667 19.833 -30.667 26.5 -39
s15.5 -18.333 26.5 -30s23 -20 36 -25s27.167 -7.5 42.5 -7.5v-31h-152c-28.667 24 -63.334 71 -104.001 141s-71.667 117 -93 141c-20 22 -46.667 33 -80 33h-56zM212.995 347.998l87 -0.000976562c46.667 0 80.667 12.333 102 37s32 61.334 32 110.001
c0 94 -49.667 141 -149 141h-72v-288z" />
    <glyph glyph-name="S" unicode="S" horiz-adv-x="509" 
d="M434 674l-0.000976562 -180.997h-30c-8 46.667 -25.833 85 -53.5 115s-64.167 45 -109.5 45c-29.333 0 -55.166 -8.66699 -77.499 -26s-33.5 -40 -33.5 -68c0 -29.333 11.833 -55 35.5 -77s52.5 -40.833 86.5 -56.5s68 -32.5 102 -50.5s62.833 -42.5 86.5 -73.5
s35.5 -67.833 35.5 -110.5c0 -59.333 -18.5 -108.833 -55.5 -148.5s-85.167 -59.5 -144.5 -59.5c-66 0 -127 24.333 -183 73c-10 -20.667 -17.333 -39.334 -22 -56.001h-31v210h31c6.66699 -48.667 27.334 -91.667 62.001 -129s75.667 -56 123 -56
c40.667 0 75.167 10.5 103.5 31.5s42.5 51.167 42.5 90.5c0 33.333 -12 62.166 -36 86.499s-53 44.333 -87 60l-102.5 49c-34.333 17 -63.5 39.833 -87.5 68.5s-36 62.667 -36 102c0 50.667 18.167 91.667 54.5 123s80.166 47 131.499 47c61.333 0 111 -16.333 149 -49
c4 5.33301 11.333 18.666 22 39.999h24z" />
    <glyph glyph-name="T" unicode="T" horiz-adv-x="643" 
d="M470 0h-297.998v31c20 0.666992 34.833 1.83398 44.5 3.50098s19.5 5 29.5 10s16.833 12.833 20.5 23.5s5.5 25 5.5 43v523h-112c-38.667 0 -67.334 -10.833 -86.001 -32.5s-34.334 -53.834 -47.001 -96.501h-30l17 162h614l17 -162h-29
c-14 42.667 -30.167 74.834 -48.5 96.501s-46.833 32.5 -85.5 32.5h-112v-523c0 -18.667 1.83301 -33.334 5.5 -44.001s11 -18.5 22 -23.5s20.833 -8.16699 29.5 -9.5s23 -2.33301 43 -3v-31z" />
    <glyph glyph-name="U" unicode="U" horiz-adv-x="698" 
d="M444 666l241.004 0.000976562v-30c-38.667 -3.33301 -64.334 -8.66602 -77.001 -15.999c-16 -9.33301 -24 -33 -24 -71v-322c0 -78 -15 -138.167 -45 -180.5s-83.333 -63.5 -160 -63.5c-50 0 -90.333 3 -121 9s-57.667 17.667 -81 35s-39.833 41.666 -49.5 72.999
s-14.5 72.333 -14.5 123v332c0 18.667 -1.83301 33.334 -5.5 44.001s-10.667 18.667 -21 24s-20 8.66602 -29 9.99902s-23.833 2.33301 -44.5 3v30h300v-30c-2.66699 0 -8.33398 -0.166992 -17.001 -0.5s-14.667 -0.5 -18 -0.5s-8.83301 -0.666992 -16.5 -2
s-13.167 -3 -16.5 -5s-7.5 -5 -12.5 -9s-8.66699 -8.83301 -11 -14.5s-4.33301 -12.667 -6 -21s-2.5 -17.833 -2.5 -28.5v-320c0 -28 1 -51.833 3 -71.5s6.16699 -39.334 12.5 -59.001s15.5 -35.334 27.5 -47.001s28.167 -21.167 48.5 -28.5s45.166 -11 74.499 -11
c33.333 0 61.166 5.16699 83.499 15.5s39.333 25.5 51 45.5s19.667 41.5 24 64.5s6.5 50.5 6.5 82.5v9v314c0 34 -7.5 56.333 -22.5 67s-40.833 17.334 -77.5 20.001v30z" />
    <glyph glyph-name="V" unicode="V" horiz-adv-x="723" 
d="M378 -11l-35.999 0.000976562l-253 580c-18.667 44.667 -49.667 67 -93 67v31h275v-31h-22c-38.667 0 -58 -10.333 -58 -31c0 -9.33301 3 -21.333 9 -36l160 -382c12.667 -31.333 22 -57.333 28 -78c0.666992 2.66699 2 6.5 4 11.5s3.33301 8.83301 4 11.5l176 437
c4.66699 11.333 7 21.666 7 30.999c0 24 -21 36 -63 36h-20v31h230v-31l-9 -1c-28.667 -2.66699 -49.834 -8.16699 -63.501 -16.5s-25.5 -24.833 -35.5 -49.5z" />
    <glyph glyph-name="W" unicode="W" horiz-adv-x="946" 
d="M506 667l132.004 -384c22 -59.333 36.333 -107 43 -143c2 9.33301 9.66699 39.333 23 90l96 326c5.33301 17.333 8 30.666 8 39.999c0 4.66699 -0.5 8.83398 -1.5 12.501s-2.83301 6.83398 -5.5 9.50098s-5.33398 5 -8.00098 7s-6.33398 3.66699 -11.001 5
s-8.33398 2.33301 -11.001 3s-7 1.16699 -13 1.5s-10.333 0.666016 -13 0.999023s-7.16699 0.5 -13.5 0.5h-11.5v31h229v-31c-28.667 -0.666992 -51.334 -5.33398 -68.001 -14.001s-28.667 -25.667 -36 -51l-171 -582h-36l-176 506l-156 -506h-41l-177 582
c-13.333 43.333 -44 65 -92 65v31h269v-31h-15c-41.333 0 -62 -11.333 -62 -34c0 -4 1.66699 -11.667 5 -23l97 -342c4 -11.333 11.667 -43.666 23 -96.999l162 527h31z" />
    <glyph glyph-name="X" unicode="X" horiz-adv-x="710" 
d="M402 378l195 -290.004c23.333 -34.667 61 -53.667 113 -57v-31h-291v31h20c34.667 0 52 8.33301 52 25c0 8.66699 -4.33301 19.334 -13 32.001l-140 207l-157 -207c-6.66699 -8 -11 -16 -13 -24c0 -4.66699 1 -8.83398 3 -12.501s5.16699 -6.66699 9.5 -9
s8.16602 -4.16602 11.499 -5.49902s8.5 -2.33301 15.5 -3s11.833 -1.16699 14.5 -1.5s7.66699 -0.5 15 -0.5l11 -1v-31h-248v31c62.667 0 108 19 136 57l181 241l-174 251c-14 20.667 -29.5 34.834 -46.5 42.501s-39.5 12.167 -67.5 13.5v31h288v-31h-18
c-33.333 0 -50 -7.33301 -50 -22c0 -7.33301 4.66699 -18.666 14 -33.999l115 -168l128 168c8 10.667 12 20.334 12 29.001c0 18 -21.333 27 -64 27h-15v31h246v-31c-32.667 -2.66699 -59.167 -7.5 -79.5 -14.5s-38.166 -20.833 -53.499 -41.5z" />
    <glyph glyph-name="Y" unicode="Y" horiz-adv-x="663" 
d="M381 297l0.000976562 -186.001c0 -18 2.16699 -32.5 6.5 -43.5s11.5 -19 21.5 -24s19.833 -8.16699 29.5 -9.5s23.834 -2.33301 42.501 -3v-31h-298v31c20 0.666992 34.833 1.83398 44.5 3.50098s19.5 5 29.5 10s16.833 12.833 20.5 23.5s5.5 25 5.5 43v186l-183 285
c-12.667 19.333 -26.834 32.833 -42.501 40.5s-35.834 12.167 -60.501 13.5v31h286v-31h-25c-32 0 -48 -8.33301 -48 -25c0 -6 3 -15.667 9 -29l143 -246l149 246c6 12 9 20.667 9 26c0 18.667 -30.667 28 -92 28v31h239v-31c-28 -1.33301 -51.333 -6.83301 -70 -16.5
s-34.667 -25.5 -48 -47.5z" />
    <glyph glyph-name="Z" unicode="Z" horiz-adv-x="590" 
d="M548 178h32l-15 -178h-555v16l422 613h-216c-73.333 0 -121.333 -42.333 -144 -127h-33l19 165h507v-14l-422 -615h247c45.333 0 79.5 11.667 102.5 35s41.5 58.333 55.5 105z" />
    <glyph glyph-name="bracketleft" unicode="[" horiz-adv-x="275" 
d="M94 667h170v-33h-95v-876h95v-33h-170v942z" />
    <glyph glyph-name="backslash" unicode="\" horiz-adv-x="230" 
d="M-75 667h49l333 -942h-49z" />
    <glyph glyph-name="bracketright" unicode="]" horiz-adv-x="275" 
d="M181 667v-942h-170v33h95v876h-95v33h170z" />
    <glyph glyph-name="asciicircum" unicode="^" 
d="M526 284h-43l-194 300l-201 -300h-114l279 416h7z" />
    <glyph glyph-name="underscore" unicode="_" 
d="M20 -89h460v-49h-460v49z" />
    <glyph glyph-name="grave" unicode="`" 
d="M291 608l52 -124.001c0.666992 -1.33301 1 -3 1 -5v-1c0 -4 -4 -6 -12 -6c-2.66699 0.666992 -6.66699 2.33398 -12 5.00098l-158 114c-4 2.66699 -6 5.66699 -6 9c0 5.33301 4 8 12 8h123z" />
    <glyph glyph-name="a" unicode="a" horiz-adv-x="452" 
d="M436 88l30.0029 0.00195312c-16.667 -66 -50 -99 -100 -99c-22.667 0 -41.167 6.16699 -55.5 18.5s-23.166 29.833 -26.499 52.5c-18 -20.667 -40.167 -37.5 -66.5 -50.5s-52.833 -19.5 -79.5 -19.5c-29.333 0 -53 9.5 -71 28.5s-27 43.5 -27 73.5
c0 26.667 5.16699 49 15.5 67s25 31.667 44 41s38 16.666 57 21.999s41.167 10.833 66.5 16.5s45.666 11.834 60.999 18.501v34c0 35.333 -4.83301 61.666 -14.5 78.999s-30.834 26 -63.501 26c-16.667 0 -29.834 -3.33301 -39.501 -10s-16.334 -15 -20.001 -25l-10.5 -29.5
c-3.33301 -9.66699 -8.5 -17.834 -15.5 -24.501s-16.833 -10 -29.5 -10c-10.667 0 -20.667 3 -30 9s-14 14 -14 24c0 21.333 10 39.833 30 55.5s41.667 26.5 65 32.5s45.333 9 66 9c106 0 159 -42.333 159 -127v-220c0 -28 8.66699 -42.667 26 -44c19.333 0 33 15 41 45
c1.33301 2.66699 2 5 2 7zM284.003 228.002c-9.33301 -4 -24.833 -9.33301 -46.5 -16s-39.5 -12.667 -53.5 -18s-27.333 -14.5 -40 -27.5s-19.667 -28.5 -21 -46.5c0 -20.667 6.33301 -38 19 -52s29.667 -21 51 -21c28.667 0 59 13.667 91 41v140z" />
    <glyph glyph-name="b" unicode="b" horiz-adv-x="541" 
d="M164 367c32 40 78 60 138 60c62 0 110.667 -20.667 146 -62s53 -93.333 53 -156s-19.333 -115 -58 -157s-89 -63 -151 -63c-46.667 0 -94.667 15.667 -144 47c-12 -9.33301 -22.667 -23.333 -32 -42l-35 6v556c0 52.667 -22.333 79.334 -67 80.001v31
c52 7.33301 102 16.666 150 27.999v-328zM164 105c30.667 -50.667 71.333 -76 122 -76c42.667 0 74.167 17.333 94.5 52s30.5 74.667 30.5 120c0 120.667 -40 181 -120 181c-64.667 0 -107 -24 -127 -72v-205z" />
    <glyph glyph-name="c" unicode="c" horiz-adv-x="432" 
d="M382 108l30.001 -10.0029c-25.333 -69.333 -77.333 -105.666 -156 -108.999c-62.667 0 -114.334 18.667 -155.001 56s-61 87 -61 149c0 65.333 18.667 120.333 56 165s88.333 67 153 67c17.333 0 36.333 -2.5 57 -7.5s40.167 -14 58.5 -27s27.5 -28.5 27.5 -46.5
c0 -10.667 -3.66699 -19.667 -11 -27s-16.666 -11 -27.999 -11c-12.667 0 -24.334 4.33301 -35.001 13c-2 24.667 -8.16699 42.834 -18.5 54.501s-27.833 17.5 -52.5 17.5c-27.333 0 -50 -9.66699 -68 -29s-30.167 -41 -36.5 -65s-9.5 -49.333 -9.5 -76
c0 -30.667 4 -59.667 12 -87s22.667 -51.666 44 -72.999s47.333 -32 78 -32c50 0 88.333 26 115 78z" />
    <glyph glyph-name="d" unicode="d" horiz-adv-x="541" 
d="M377 367v189.001c0 52.667 -22.333 79.334 -67 80.001v31c54 7.33301 104 16.666 150 27.999v-584c0 -52.667 22.667 -79.334 68 -80.001v-31c-36 -0 -76.333 -1.66699 -121 -5c-7.33301 14 -12 27.667 -14 41c-49.333 -31.333 -97.333 -47 -144 -47
c-62 0 -112.333 21 -151 63s-58 94.333 -58 157s17.667 114.667 53 156s84 62 146 62c60 0 106 -20 138 -60zM377 105.001l-0.000976562 205c-20 48 -62.333 72 -127 72c-23.333 0 -43.333 -5.5 -60 -16.5s-29.167 -26 -37.5 -45s-14.166 -38.167 -17.499 -57.5
s-5 -40 -5 -62c0 -45.333 10.167 -85.333 30.5 -120s51.833 -52 94.5 -52c52 0 92.667 25.333 122 76z" />
    <glyph glyph-name="e" unicode="e" horiz-adv-x="454" 
d="M416 223l-285.001 -0.000976562c0 -130.667 42.667 -196 128 -196c49.333 0 92 25.333 128 76l29 -16c-41.333 -65.333 -98.666 -98 -171.999 -98c-61.333 0 -110.666 20.167 -147.999 60.5s-56 91.5 -56 153.5s18.167 114.833 54.5 158.5s85.166 65.5 146.499 65.5
c54 0 96.667 -20.167 128 -60.5s47 -88.166 47 -143.499zM326.999 257.999c0 0.666992 0.166992 2.16895 0.5 4.50195s0.5 4.16602 0.5 5.49902c0 81.333 -30.667 122 -92 122c-34 0 -59.5 -12.833 -76.5 -38.5s-26.167 -56.834 -27.5 -93.501h195z" />
    <glyph glyph-name="f" unicode="f" horiz-adv-x="265" 
d="M256 416l0.000976562 -30.002h-90v-275c0 -32 6.33301 -53.167 19 -63.5s35.334 -16.166 68.001 -17.499v-30h-237v31c25.333 0.666992 42.833 7.5 52.5 20.5s14.5 32.833 14.5 59.5v275h-70v30h70c0 24.667 0.333008 44.834 1 60.501s2.5 35 5.5 58
s8.16699 41.833 15.5 56.5s16.666 29.167 27.999 43.5s26.666 25 45.999 32s42 10.5 68 10.5c23.333 0 44.5 -6 63.5 -18s28.5 -29 28.5 -51c0 -10.667 -3.83301 -20.167 -11.5 -28.5s-16.834 -12.5 -27.501 -12.5c-14 0 -24 4 -30 12s-8.83301 16.667 -8.5 26
s-1.66699 18 -6 26s-12.166 12 -23.499 12c-44 0 -66 -35 -66 -105v-122h90z" />
    <glyph glyph-name="g" unicode="g" horiz-adv-x="471" 
d="M356 361c14.667 -24.667 22.0029 -52.9961 22.0029 -84.9961c0 -40.667 -13.333 -74.167 -40 -100.5s-60.667 -40.833 -102 -43.5c-85.333 -3.33301 -129.333 -17.333 -132 -42c0 -13.333 12.667 -20 38 -20c33.333 0 83.333 -2 150 -6c47.333 -4 84.333 -15.667 111 -35
s40 -51.333 40 -96c0 -59.333 -22.167 -106.166 -66.5 -140.499s-96.833 -51.5 -157.5 -51.5c-29.333 0 -59 4.33301 -89 13s-57 24 -81 46s-36 48.333 -36 79c0 29.333 12 54 36 74s51 30 81 30c3.33301 0 9 -0.666992 17 -2c-2 -2 -6.33301 -5.66699 -13 -11
s-11.334 -9.16602 -14.001 -11.499s-6.5 -6 -11.5 -11s-8.5 -9.16699 -10.5 -12.5l-7.5 -13c-3 -5.33301 -5 -10.833 -6 -16.5s-1.5 -11.834 -1.5 -18.501c0 -34.667 14.667 -60.834 44 -78.501s62.333 -26.5 99 -26.5c38 0 72.667 9.16699 104 27.5s47 45.166 47 80.499
c0 25.333 -9 44.5 -27 57.5s-40.667 20.5 -68 22.5c-4.66699 0.666992 -17.667 1.5 -39 2.5s-38.333 2.16699 -51 3.5s-28.834 4.16602 -48.501 8.49902s-35 9.66602 -46 15.999s-20.833 15.666 -29.5 27.999s-13 26.5 -13 42.5c0 21.333 9.5 38.666 28.5 51.999
s40.167 21 63.5 23c-28.667 8.66699 -51.167 24.334 -67.5 47.001s-24.5 49 -24.5 79c0 46.667 15.167 84.167 45.5 112.5s69.166 42.5 116.499 42.5c55.333 0 97.333 -17 126 -51c27.333 32 58 49 92 51c12.667 0 24 -3.33301 34 -10s15 -16 15 -28
c0 -10.667 -3.16699 -19.667 -9.5 -27s-14.5 -11 -24.5 -11c-8 0 -17.333 4.83301 -28 14.5s-20 14.5 -28 14.5c-11.333 0 -24 -6.33301 -38 -19zM299.003 276.004c0 83.333 -27 125 -81 125c-21.333 0 -38.5 -7.66699 -51.5 -23s-21.333 -32 -25 -50s-5.5 -37.667 -5.5 -59
c0 -30.667 6 -57.5 18 -80.5s32 -34.5 60 -34.5c29.333 0 50.833 12.333 64.5 37s20.5 53 20.5 85z" />
    <glyph glyph-name="h" unicode="h" horiz-adv-x="520" 
d="M507 0h-215.997v31c25.333 0.666992 42.666 7.5 51.999 20.5s14 32.833 14 59.5v176c0 28 -7.16699 50 -21.5 66s-35.833 24 -64.5 24c-34.667 0 -70.334 -15.333 -107.001 -46v-220c0 -26.667 4.83301 -46.5 14.5 -59.5s27.167 -19.833 52.5 -20.5v-31h-217v31
c25.333 0.666992 42.833 7.5 52.5 20.5s14.5 32.833 14.5 59.5v445c0 52.667 -22.333 79.334 -67 80.001v31c48.667 6.66699 98.667 15.667 150 27v-323c51.333 37.333 100.666 56 147.999 56c42.667 0 74.834 -12.333 96.501 -37s32.5 -58.334 32.5 -101.001v-178
c0 -26.667 4.66699 -46.5 14 -59.5s26.666 -19.833 51.999 -20.5v-31z" />
    <glyph glyph-name="i" unicode="i" horiz-adv-x="243" 
d="M163 422v-311c0 -26.667 4.83301 -46.5 14.5 -59.5s27.167 -19.833 52.5 -20.5v-31h-217v31c25.333 0.666992 42.833 7.5 52.5 20.5s14.5 32.833 14.5 59.5v172c0 26 -5 45.833 -15 59.5s-27.333 20.834 -52 21.501v30c40 5.33301 90 14.666 150 27.999zM123 491
c-14 0 -26.333 4.83301 -37 14.5s-16 21.5 -16 35.5s5.33301 25.833 16 35.5s23 14.5 37 14.5c13.333 0 25 -5 35 -15s15 -21.667 15 -35s-5 -25 -15 -35s-21.667 -15 -35 -15z" />
    <glyph glyph-name="j" unicode="j" horiz-adv-x="228" 
d="M163 422l0.000976562 -517.002c0 -51.333 -14.5 -94.166 -43.5 -128.499s-68.833 -51.5 -119.5 -51.5c-20 0 -40.5 5 -61.5 15s-31.5 24 -31.5 42c0 9.33301 3.5 17.5 10.5 24.5s15.167 10.5 24.5 10.5c11.333 0 24.166 -8.66699 38.499 -26s27.833 -26 40.5 -26
c14 0 25.333 3.66699 34 11s14.667 18 18 32s5.33301 25.833 6 35.5s1 22.167 1 37.5v402c0 26 -5 45.833 -15 59.5s-27.333 20.834 -52 21.501v30c43.333 6 93.333 15.333 150 28zM125.001 490.998c-14 0 -26.333 4.83301 -37 14.5s-16 21.5 -16 35.5
s5.33301 25.833 16 35.5s23 14.5 37 14.5c13.333 0 25 -5 35 -15s15 -21.667 15 -35s-5 -25 -15 -35s-21.667 -15 -35 -15z" />
    <glyph glyph-name="k" unicode="k" horiz-adv-x="486" 
d="M244 263l155 -180.001c24.667 -28.667 53.667 -46 87 -52v-31h-191v31h19c14 0 21 4.66699 21 14c-2.66699 6 -7 11 -13 15l-137 157l-22 -19v-87c0 -26.667 4.83301 -46.5 14.5 -59.5s27.167 -19.833 52.5 -20.5v-31h-217v31c25.333 0.666992 42.833 7.5 52.5 20.5
s14.5 32.833 14.5 59.5v445c0 52.667 -22.333 79.334 -67 80.001v31c48.667 6.66699 98.667 15.667 150 27v-454l132 104c7.33301 6 11.333 12.667 12 20c0 13.333 -10.333 20 -31 20c-1.33301 0 -3 0.166992 -5 0.5s-3.66699 0.5 -5 0.5v30h174v-30
c-38.667 -4 -72 -17.667 -100 -41z" />
    <glyph glyph-name="l" unicode="l" horiz-adv-x="243" 
d="M230 0l-217 -0.000976562v31c25.333 0.666992 42.833 7.5 52.5 20.5s14.5 32.833 14.5 59.5v445c0 52.667 -22.333 79.334 -67 80.001v31c48.667 6.66699 98.667 15.667 150 27v-583c0 -26.667 4.83301 -46.5 14.5 -59.5s27.167 -19.833 52.5 -20.5v-31z" />
    <glyph glyph-name="m" unicode="m" horiz-adv-x="794" 
d="M151 422c8.66699 -17.333 12.999 -37.6699 12.999 -61.0029c48.667 44 100 66 154 66c24.667 0 47.334 -5.66699 68.001 -17s35.334 -27.666 44.001 -48.999c51.333 44 102.333 66 153 66c47.333 0 81 -12 101 -36s30 -59.667 30 -107v-173
c0 -26.667 4.83301 -46.5 14.5 -59.5s27.167 -19.833 52.5 -20.5v-31h-217v31c25.333 0.666992 42.833 7.5 52.5 20.5s14.5 32.833 14.5 59.5v160c0 34.667 -5.66699 60.834 -17 78.501s-34.666 26.5 -69.999 26.5c-38.667 0 -73.334 -16.333 -104.001 -49v-36v-180
c0 -26.667 4.66699 -46.5 14 -59.5s26.666 -19.833 51.999 -20.5v-31h-216v31c25.333 0.666992 42.666 7.5 51.999 20.5s14 32.833 14 59.5v168c0 64.667 -28.667 97 -86 97c-33.333 0 -68.666 -16.333 -105.999 -49v-216c0 -26.667 4.83301 -46.5 14.5 -59.5
s27.167 -19.833 52.5 -20.5v-31h-217v31c25.333 0.666992 42.833 7.5 52.5 20.5s14.5 32.833 14.5 59.5v172c0 26 -5 45.833 -15 59.5s-27.333 20.834 -52 21.501v30c55.333 8 101 17.333 137 28z" />
    <glyph glyph-name="n" unicode="n" horiz-adv-x="519" 
d="M150 422c8.66699 -17.333 13.001 -37.668 13.001 -61.001c48.667 44 100 66 154 66c81.333 0 122 -45.333 122 -136v-180c0 -26.667 4.66699 -46.5 14 -59.5s26.666 -19.833 51.999 -20.5v-31h-216v31c25.333 0.666992 42.666 7.5 51.999 20.5s14 32.833 14 59.5v168
c0 64.667 -28.667 97 -86 97c-33.333 0 -68.666 -16.333 -105.999 -49v-216c0 -26.667 4.83301 -46.5 14.5 -59.5s27.167 -19.833 52.5 -20.5v-31h-217v31c25.333 0.666992 42.833 7.5 52.5 20.5s14.5 32.833 14.5 59.5v172c0 26 -5 45.833 -15 59.5
s-27.333 20.834 -52 21.501v30c55.333 8 101 17.333 137 28z" />
    <glyph glyph-name="o" unicode="o" horiz-adv-x="511" 
d="M471 206c0 -64 -19.999 -116.166 -59.999 -156.499s-92 -60.5 -156 -60.5c-66 0 -118.333 19 -157 57s-58 90 -58 156c0 67.333 19.5 121.666 58.5 162.999s92.167 62 159.5 62s119.666 -20 156.999 -60s56 -93.667 56 -161zM381.001 204.001
c0 20 -0.666992 37.833 -2 53.5s-4.66602 32.667 -9.99902 51s-12.333 33.666 -21 45.999s-20.834 22.5 -36.501 30.5s-34.167 12 -55.5 12c-84 0 -126 -66.333 -126 -199c0 -49.333 9.66699 -91.666 29 -126.999s51.333 -53 96 -53c31.333 0 57 10.167 77 30.5
s33.167 43.5 39.5 69.5s9.5 54.667 9.5 86z" />
    <glyph glyph-name="p" unicode="p" horiz-adv-x="528" 
d="M163 35l0.000976562 -191.001c0 -32 6.33301 -53.167 19 -63.5s35.334 -16.166 68.001 -17.499v-30h-237v31c25.333 0.666992 42.833 7.5 52.5 20.5s14.5 32.833 14.5 59.5v439c0 52 -22.333 79 -67 81v30c55.333 8 101 17.333 137 28c8.66699 -14 13 -33 13 -57
c37.333 40.667 82.666 61 135.999 61c58 0 104 -20.833 138 -62.5s51 -92.167 51 -151.5c0 -61.333 -17.333 -113.833 -52 -157.5s-82 -65.5 -142 -65.5c-50.667 0 -94.334 15.333 -131.001 46zM163.001 80.999c32.667 -32.667 68.334 -50.001 107.001 -52.001
c30.667 0 56.167 10.167 76.5 30.5s34.166 43.833 41.499 70.5s11 55.334 11 86.001c0 44.667 -9.16699 84.167 -27.5 118.5s-47.833 51.5 -88.5 51.5c-44.667 0 -84.667 -27.333 -120 -82v-223z" />
    <glyph glyph-name="q" unicode="q" horiz-adv-x="524" 
d="M444 422l-0.000976562 -577.999c0 -26.667 4.83301 -46.5 14.5 -59.5s27.167 -19.833 52.5 -20.5v-31h-237v30c32.667 1.33301 55.334 7.16602 68.001 17.499s19 31.5 19 63.5v197c-38 -34.667 -82 -52 -132 -52c-58 0 -104 20.333 -138 61s-51 90.334 -51 149.001
c0 61.333 18.5 114.5 55.5 159.5s85.5 67.5 145.5 67.5c46.667 0 86.667 -14.667 120 -44c27.333 9.33301 55 22.666 83 39.999zM360.999 326.001c-32 38 -68.665 56.998 -109.998 56.998c-22.667 0 -42.334 -6 -59.001 -18s-29.334 -27.667 -38.001 -47
s-15 -39.166 -19 -59.499s-6 -41.166 -6 -62.499c0 -44 9.83301 -82.5 29.5 -115.5s50.167 -49.5 91.5 -49.5c30.667 0 67.667 15.333 111 46v249z" />
    <glyph glyph-name="r" unicode="r" horiz-adv-x="341" 
d="M163 315l-0.00195312 -204.001c0 -30.667 4.66699 -50.5 14 -59.5s29 -16.167 59 -21.5v-30h-223v31c25.333 0.666992 42.833 7.5 52.5 20.5s14.5 32.833 14.5 59.5v172c0 26 -5 45.833 -15 59.5s-27.333 20.834 -52 21.501v30c55.333 8 101 17.333 137 28
c8.66699 -16 13 -41 13 -75c36.667 48.667 76.334 73 119.001 73c16 0 29.833 -4.83301 41.5 -14.5s17.5 -22.167 17.5 -37.5c0 -10 -3.33301 -19.167 -10 -27.5s-15 -12.833 -25 -13.5c-10 0 -21 6.33301 -33 19s-22.667 19 -32 19
c-15.333 0 -30.166 -4.83301 -44.499 -14.5s-25.5 -21.5 -33.5 -35.5z" />
    <glyph glyph-name="s" unicode="s" horiz-adv-x="346" 
d="M292 415l0.00195312 -136.999h-23c-6.66699 30.667 -19.5 57.167 -38.5 79.5s-43.167 33.5 -72.5 33.5c-16.667 0 -30.5 -5.33301 -41.5 -16s-16.5 -24.334 -16.5 -41.001c0 -16 7.33301 -30.333 22 -43s32.334 -23.5 53.001 -32.5s41.5 -19 62.5 -30
s38.833 -26 53.5 -45s22 -41.5 22 -67.5c0 -38 -11.333 -68.667 -34 -92s-52.667 -35 -90 -35c-42.667 0 -80.667 15 -114 45l-17 -34h-24v143h24c4 -32.667 17 -60.167 39 -82.5s49 -33.5 81 -33.5c19.333 0 36 5.66699 50 17s21 26.333 21 45
c0 18 -7.33301 33.833 -22 47.5s-32.334 25.334 -53.001 35.001s-41.334 20 -62.001 31s-38.334 25.667 -53.001 44s-22 39.5 -22 63.5c0 35.333 10.167 63.666 30.5 84.999s47.833 32 82.5 32c36.667 0 70 -16 100 -48l19 36h23z" />
    <glyph glyph-name="t" unicode="t" horiz-adv-x="258" 
d="M256 418l0.00195312 -32h-111v-258c0 -20.667 3.83301 -39.334 11.5 -56.001s20.167 -25 37.5 -25c9.33301 0 19 2.83301 29 8.5s16.667 10 20 13s10.666 10.167 21.999 21.5l20 -17c-32.667 -51.333 -73.334 -77 -122.001 -77c-67.333 0 -101 44 -101 132v258h-49v22
c32.667 5.33301 57.167 23.833 73.5 55.5s24.5 65.834 24.5 102.501h34v-148h111z" />
    <glyph glyph-name="u" unicode="u" horiz-adv-x="519" 
d="M369 -5c-8.66699 22 -12.999 42.001 -12.999 60.001c-48.667 -44 -100.334 -66 -155.001 -66c-33.333 0 -61.666 9.33301 -84.999 28s-35.333 44 -36 76v31v192c0 26.667 -4.83301 46.5 -14.5 59.5s-27.167 19.833 -52.5 20.5v31h150v-290c0 -64.667 29 -97 87 -97
c33.333 0 68.666 16.333 105.999 49v227c0 26.667 -4.83301 46.5 -14.5 59.5s-27.167 19.833 -52.5 20.5v31h150v-316c0 -52.667 22.333 -79.334 67 -80.001v-31c-41.333 -0 -87 -1.66699 -137 -5z" />
    <glyph glyph-name="v" unicode="v" horiz-adv-x="466" 
d="M469 415v-30.0029c-32 0 -52.333 -9 -61 -27l-164 -358h-26l-166 358c-9.33301 18 -27.666 27 -54.999 27v30h189v-30c-2.66699 -1.33301 -6.33398 -2.16602 -11.001 -2.49902s-8.83398 -0.666016 -12.501 -0.999023s-7.16699 -1.66602 -10.5 -3.99902
s-5.33301 -5.83301 -6 -10.5c0 -6 2.66699 -15.667 8 -29l101 -233l108 240c2.66699 8 4.33398 14 5.00098 18c0 12.667 -11.333 19.667 -34 21l-10 1v30h145z" />
    <glyph glyph-name="w" unicode="w" horiz-adv-x="668" 
d="M469 0l-34 0.00195312l-106 300l-115 -300h-34l-126 346c-3.33301 9.33301 -8.5 16.666 -15.5 21.999s-12.5 8.66602 -16.5 9.99902s-12.667 3.66602 -26 6.99902v30h184v-30c-2.66699 -1.33301 -7.66699 -2.16602 -15 -2.49902s-13.333 -1.5 -18 -3.5
s-7.66699 -6 -9 -12c0 -4.66699 1.33301 -11.667 4 -21l80 -234l114 303h34l107 -303l93 234c3.33301 10 5 16.667 5 20v1c0 9.33301 -15.333 15.333 -46 18v30h141v-30c-32.667 -2.66699 -53.667 -15.667 -63 -39z" />
    <glyph glyph-name="x" unicode="x" horiz-adv-x="514" 
d="M491 415l-0.000976562 -29.999c-34 0 -59 -8.33301 -75 -25l-119 -130l131 -169c15.333 -20 41 -30 77 -30v-31h-208v31h23h5c2.66699 0 4.83398 0.166992 6.50098 0.5s3.66699 0.833008 6 1.5s4 1.5 5 2.5s1.5 2.5 1.5 4.5c0 6.66699 -3.66699 13.667 -11 21l-92 111
l-102 -111c-7.33301 -8.66699 -11 -15 -11 -19c0 -7.33301 9 -11 27 -11h13v-31h-156v31c34.667 0 61 10 79 30l129 139l-122 152c-10.667 13.333 -21.334 22.166 -32.001 26.499s-24.667 6.5 -42 6.5v30h196v-30h-10c-1.33301 0 -3.5 -0.166992 -6.5 -0.5
s-5.66699 -0.5 -8 -0.5s-4.66602 -0.666992 -6.99902 -2s-3.83301 -3 -4.5 -5c0 -6 2.66699 -11.667 8 -17l82 -101l93 101c5.33301 4 8 8.33301 8 13c0 7.33301 -9.33301 11 -28 11c-2 0 -5.16699 0.166992 -9.5 0.5s-7.5 0.5 -9.5 0.5v30h163z" />
    <glyph glyph-name="y" unicode="y" horiz-adv-x="466" 
d="M470 415l0.00195312 -30l-10 -1c-28 -2.66699 -47.333 -15.334 -58 -38.001l-213 -466c-0.666992 -2 -3.33398 -8.33301 -8.00098 -19l-10 -22.5l-10.5 -22c-5 -10.333 -9.33301 -18.166 -13 -23.499l-14 -20.5c-5.66699 -8.33301 -11 -14.666 -16 -18.999
s-10.667 -9 -17 -14s-13.166 -8.5 -20.499 -10.5s-14.666 -3 -21.999 -3c-12.667 0 -24 3.33301 -34 10s-15 16.334 -15 29.001c0 8 2.33301 15.333 7 22c2 0 4.66699 -0.333008 8 -1s5.66602 -1 6.99902 -1c18.667 0 36.167 5.16699 52.5 15.5s31.333 25.5 45 45.5
s24.834 38 33.501 54s18.834 37 30.501 63l22.5 50l-156 333c-12 24.667 -32.667 37.667 -62 39v30h192v-30c-28.667 0 -43 -7 -43 -21c0 -4 1.33301 -10 4 -18l108 -234l105 234c4 9.33301 6.33301 16.666 7 21.999v1c0 3.33301 -0.833008 6 -2.5 8
s-4.33398 3.5 -8.00098 4.5s-6.83398 1.66699 -9.50098 2s-6.33398 0.666016 -11.001 0.999023s-7.33398 0.5 -8.00098 0.5h-7v30h146z" />
    <glyph glyph-name="z" unicode="z" horiz-adv-x="392" 
d="M352 139l26 0.000976562l-8 -139h-357v33l257 353h-144c-15.333 0 -27.333 -4.33301 -36 -13s-17.167 -22.334 -25.5 -41.001s-14.166 -30.667 -17.499 -36h-27l14 121h336v-31l-257 -353h139c13.333 0 25.5 3 36.5 9s20.667 15.333 29 28s14.666 23.5 18.999 32.5
s9.5 21.167 15.5 36.5z" />
    <glyph glyph-name="braceleft" unicode="{" 
d="M104 303l0.00195312 15.9971c31.333 2 55 8.5 71 19.5s24 31.167 24 60.5c0 12.667 -0.333008 32.334 -1 59.001s-1 46.334 -1 59.001c0 29.333 0.5 52.166 1.5 68.499s4.16699 33.833 9.5 52.5s13 32.5 23 41.5s24.167 16.833 42.5 23.5s41.166 10.334 68.499 11.001h41
c8 0 14 0.333008 18 1v-23c-44.667 -1.33301 -77.167 -9.33301 -97.5 -24s-30.833 -43.334 -31.5 -86.001c0 -16 -0.166992 -39.667 -0.5 -71s-0.5 -55 -0.5 -71c0 -18 -0.666992 -32.667 -2 -44s-4.5 -23.166 -9.5 -35.499s-13.333 -22.333 -25 -30
s-26.5 -13.5 -44.5 -17.5v-4c18 -3.33301 32.667 -9.16602 44 -17.499s19.5 -19.166 24.5 -32.499s8.33301 -26 10 -38s2.5 -27 2.5 -45c0 -16 -0.166992 -39.667 -0.5 -71s-0.5 -55 -0.5 -71c0 -50.667 9.33301 -85.334 28 -104.001s53 -28 103 -28v-23h-15
c-16.667 0 -28.5 0.166992 -35.5 0.5s-17.5 1 -31.5 2s-24.167 2.33301 -30.5 4l-26 7c-11 3 -18.833 6.83301 -23.5 11.5l-17.5 17.5c-7 7 -11.833 15 -14.5 24s-5.16699 19.5 -7.5 31.5s-3.5 25.667 -3.5 41c0 20 0.166992 41 0.5 63s0.833008 46.667 1.5 74
s1 48.333 1 63c-0.666992 32 -8.33398 53.667 -23.001 65s-38.667 18 -72 20z" />
    <glyph glyph-name="bar" unicode="|" 
d="M219 666h63v-833h-63v833z" />
    <glyph glyph-name="braceright" unicode="}" 
d="M396 319l0.000976562 -15.998c-32 -2 -55.833 -8.66699 -71.5 -20s-23.5 -32 -23.5 -62c0 -15.333 0.333008 -36.666 1 -63.999s1.16699 -52.333 1.5 -75s0.5 -44 0.5 -64c0 -50.667 -11 -86 -33 -106s-59 -30.667 -111 -32c-6.66699 0 -16.834 -0.166992 -30.501 -0.5
s-23.834 -0.5 -30.501 -0.5v23c44.667 0 77.167 7.66699 97.5 23s30.833 44.666 31.5 87.999c0 20.667 0.166992 51 0.5 91s0.5 70.333 0.5 91c0.666992 32.667 7 58.5 19 77.5s32.667 31.167 62 36.5v4c-52.667 11.333 -79.667 44 -81 98c0 53.333 -0.333008 93.333 -1 120
c0 32 -1 56.333 -3 73s-7.33301 32.5 -16 47.5s-21.667 25.333 -39 31s-41 8.83398 -71 9.50098v23c4 -0.666992 10 -1 18 -1c26 0 46 -0.333008 60 -1s29.333 -2.83398 46 -6.50098s29 -8.83398 37 -15.501s15.833 -16.167 23.5 -28.5s12.834 -27.833 15.501 -46.5
s4 -41.334 4 -68.001c0 -16 -0.333008 -40.333 -1 -73s-1 -57 -1 -73c0 -30.667 7.66699 -51.667 23 -63s39.333 -18 72 -20z" />
    <glyph glyph-name="asciitilde" unicode="~" 
d="M456 405l18 -9c-17.333 -28 -38.833 -51.5 -64.5 -70.5s-52.834 -28.5 -81.501 -28.5c-21.333 0 -52.666 6.83301 -93.999 20.5s-73 20.5 -95 20.5c-13.333 0 -26.333 -3.16699 -39 -9.5s-21.667 -12 -27 -17l-29 -28.5l-18 10c46 66.667 94.333 100 145 100
c21.333 0 52 -6.66699 92 -20s70.333 -20 91 -20c36.667 0 70.667 17.333 102 52z" />
    <glyph glyph-name="exclamdown" unicode="&#xa1;" horiz-adv-x="247" 
d="M106 188l36 -0.000976562c1.33301 -35.333 8.16602 -89.166 20.499 -161.499s18.5 -125.166 18.5 -158.499c0 -11.333 -0.666992 -23.5 -2 -36.5s-3.66602 -27.833 -6.99902 -44.5s-9.16602 -30.334 -17.499 -41.001s-18.5 -16 -30.5 -16c-38 0 -57 46 -57 138
c0 34 6.16699 87.167 18.5 159.5s19.166 125.833 20.499 160.5zM124 426.999c15.333 0 28.333 -5.5 39 -16.5s16 -24.167 16 -39.5s-5.33301 -28.5 -16 -39.5s-23.667 -16.5 -39 -16.5s-28.5 5.5 -39.5 16.5s-16.5 24.167 -16.5 39.5s5.5 28.5 16.5 39.5
s24.167 16.5 39.5 16.5z" />
    <glyph glyph-name="cent" unicode="&#xa2;" horiz-adv-x="467" 
d="M263 519l-0.00292969 -360.001c0.666992 0 1.83398 -0.166992 3.50098 -0.5s2.83398 -0.5 3.50098 -0.5c28 0 52.5 7 73.5 21s35.833 34 44.5 60l33 -10c-8 -33.333 -27.5 -60.166 -58.5 -80.499s-64.167 -30.833 -99.5 -31.5v-107h-34v107
c-57.333 5.33301 -102.166 27 -134.499 65s-48.5 86.333 -48.5 145c0 56.667 16.833 109 50.5 157s77.834 72.667 132.501 74v99h34v-99c28 0 56.833 -7.16699 86.5 -21.5s45.5 -33.833 47.5 -58.5c0 -10.667 -3.83301 -20 -11.5 -28s-16.834 -12 -27.501 -12
c-13.333 0 -25.333 4.33301 -36 13c0 36 -19.667 58.667 -59 68zM228.997 518.999c-32 -7.33301 -55.167 -27.333 -69.5 -60s-21.5 -68 -21.5 -106c0 -40 7.33301 -77.333 22 -112s37.667 -59.667 69 -75v353z" />
    <glyph glyph-name="sterling" unicode="&#xa3;" horiz-adv-x="467" 
d="M377 321l0.00292969 -26.999h-118c-4.66699 -88.667 -28 -159.667 -70 -213c45.333 -14 88 -21 128 -21c32.667 0 64.667 8 96 24s47.333 39 48 69h12c2 -10 3 -19.667 3 -29c0 -34 -11.5 -66 -34.5 -96s-51.167 -45 -84.5 -45c-53.333 0 -116.333 23 -189 69
c-38.667 -42 -80.667 -63 -126 -63c-18.667 0 -35.667 5.16699 -51 15.5s-23 24.166 -23 41.499c0 20 8.66699 36 26 48s36.666 18 57.999 18c24.667 0 56.667 -5.66699 96 -17c8.66699 16 14 34.667 16 56c3.33301 40 5 87.667 5 143h-106v27h107
c0 31.333 1.33301 61.166 4 89.499s8.16699 60 16.5 95s19.5 64.833 33.5 89.5s33.667 45.5 59 62.5s55 25.5 89 25.5c35.333 0 64.333 -9.5 87 -28.5s34 -45.5 34 -79.5c0 -26 -8.5 -48 -25.5 -66s-38.5 -27 -64.5 -27c-1.33301 0 -3.33301 0.166992 -6 0.5
s-4.66699 0.5 -6 0.5c23.333 24.667 35 53.334 35 86.001c0 22 -6.83301 41.667 -20.5 59s-31.167 26 -52.5 26c-22.667 0 -40.834 -8.66699 -54.501 -26s-21.834 -38 -24.501 -62c-8 -71.333 -12 -153 -12 -245h115zM133.003 69.001
c-22.667 11.333 -45.999 16.999 -69.999 16.999c-12 0 -22.667 -3.16699 -32 -9.5s-14 -15.166 -14 -26.499c0 -8.66699 3.33301 -16.167 10 -22.5s14.667 -9.5 24 -9.5c27.333 0 54.666 17 81.999 51z" />
    <glyph glyph-name="currency" unicode="&#xa4;" horiz-adv-x="667" 
d="M58 100l92 92c-34 54.667 -51 105 -51 151c0 42 16.333 91.333 49 148l-92 93l33 33l93 -93c46 34.667 96.333 52 151 52c45.333 0 95.333 -17.333 150 -52l95 94l33 -33l-95 -96c32.667 -54 49 -104 49 -150c0 -42.667 -16.667 -90.667 -50 -144l95 -95l-33 -34l-94 95
c-53.333 -34.667 -103.333 -52 -150 -52s-96 16.667 -148 50l-93 -93zM498 342c0 45.333 -16.1689 84.335 -48.502 117.002s-71.166 49 -116.499 49c-44.667 0 -83.334 -16.333 -116.001 -49s-49 -71.667 -49 -117c0 -44.667 16.333 -83.334 49 -116.001
s71.334 -49 116.001 -49s83.334 16.167 116.001 48.5s49 71.166 49 116.499z" />
    <glyph glyph-name="yen" unicode="&#xa5;" horiz-adv-x="581" 
d="M335 268h202v-31h-202v-138c0 -31.333 3.5 -52.5 10.5 -63.5s25.167 -16.5 54.5 -16.5h33v-19h-278v19h35c28.667 0 46.334 5.5 53.001 16.5s10 32.167 10 63.5v138h-200v31h200v10l-63 105h-137v30h122l-76 152c-11.333 22 -19.5 37.167 -24.5 45.5
s-13.833 16.5 -26.5 24.5s-28.667 12.333 -48 13v19h236v-19h-30c-27.333 0 -42 -6.33301 -44 -19c0 -8.66699 5.33301 -23 16 -43l143 -267l129 234c14.667 26.667 22 46.667 22 60c0 23.333 -23 35 -69 35v19h178v-19c-16.667 -1.33301 -31.834 -7.66602 -45.501 -18.999
s-23.5 -21.833 -29.5 -31.5s-14.333 -24.834 -25 -45.501l-73 -139h129v-30h-143l-59 -93v-22z" />
    <glyph glyph-name="brokenbar" unicode="&#xa6;" 
d="M219 666h63v-338h-63v338zM219 153h63v-320h-63v320z" />
    <glyph glyph-name="section" unicode="&#xa7;" horiz-adv-x="553" 
d="M392 129c39.333 -39.333 59 -77.6719 59 -115.005c0 -44.667 -17.167 -82.667 -51.5 -114s-73.833 -47 -118.5 -47c-40.667 0 -78 13 -112 39s-51 58.667 -51 98c0 9.33301 2.66699 17.333 8 24s12.666 10.334 21.999 11.001c11.333 0 20.833 -6.33301 28.5 -19
s14 -26.667 19 -42s15 -29.333 30 -42s34.833 -19 59.5 -19s46.5 8 65.5 24s28.5 36.333 28.5 61c0 19.333 -9.16699 38 -27.5 56s-40.5 34.833 -66.5 50.5s-52 32.167 -78 49.5s-48.167 38.5 -66.5 63.5s-27.5 52.5 -27.5 82.5c0 46.667 24.667 95.334 74 146.001
c-39.333 36.667 -59 73 -59 109c0 41.333 16 74.666 48 99.999s69 38 111 38c30.667 0 62.5 -10.333 95.5 -31s49.5 -45.667 49.5 -75c0 -9.33301 -2.83301 -18.166 -8.5 -26.499s-12.834 -12.833 -21.501 -13.5h-1c-9.33301 0 -17.666 5.33301 -24.999 16
s-13.5 22.334 -18.5 35.001s-13.667 24.334 -26 35.001s-27.833 16 -46.5 16c-21.333 0 -41.166 -6.33301 -59.499 -19s-27.5 -29.334 -27.5 -50.001c0 -19.333 8.83301 -38.166 26.5 -56.499s39 -35.5 64 -51.5l75.5 -50c25.333 -17.333 46.833 -37.833 64.5 -61.5
s26.5 -49.167 26.5 -76.5c0 -43.333 -21 -91.666 -63 -144.999zM213 411.994c-22 -31.333 -33 -59.001 -33 -83.001c0 -18 7.5 -36.5 22.5 -55.5s30.833 -34.5 47.5 -46.5s38.167 -26.167 64.5 -42.5s43.166 -27.166 50.499 -32.499c16 36 24 63 24 81
c0 18.667 -7 37.5 -21 56.5s-28.667 34.333 -44 46s-35.666 25.667 -60.999 42s-42 27.833 -50 34.5z" />
    <glyph glyph-name="dieresis" unicode="&#xa8;" 
d="M98 533c0 16.667 5.83301 30.834 17.5 42.501s25.834 17.5 42.501 17.5s30.834 -5.83301 42.501 -17.5s17.5 -25.834 17.5 -42.501s-5.83301 -30.834 -17.5 -42.501s-25.834 -17.5 -42.501 -17.5s-30.834 5.83301 -42.501 17.5s-17.5 25.834 -17.5 42.501zM281 533
c0 16.667 6 30.834 18 42.501s26 17.5 42 17.5c16.667 0 30.834 -5.83301 42.501 -17.5s17.5 -25.834 17.5 -42.501s-5.83301 -30.834 -17.5 -42.501s-25.834 -17.5 -42.501 -17.5c-16 0 -30 5.83301 -42 17.5s-18 25.834 -18 42.501z" />
    <glyph glyph-name="copyright" unicode="&#xa9;" horiz-adv-x="804" 
d="M549 524v-117.001h-17c-8 26.667 -21.833 48.5 -41.5 65.5s-42.834 25.5 -69.501 25.5c-41.333 0 -72.333 -16.167 -93 -48.5s-31 -70.5 -31 -114.5c0 -46 9.66699 -84.5 29 -115.5s51 -46.5 95 -46.5c51.333 0 96 28.333 134 85v-38
c-37.333 -49.333 -85.666 -74 -144.999 -74c-54 0 -99 16.667 -135 50s-54 77 -54 131c0 56 17.667 102.5 53 139.5s80.333 55.5 135 55.5c15.333 0 34.333 -4.16699 57 -12.5s37.667 -12.5 45 -12.5c4 0 7.16699 1.16699 9.5 3.5s4.83301 6.33301 7.5 12
s4 8.83398 4 9.50098zM402 -13.001c-95.333 0 -177 34 -245 102s-102 149.667 -102 245s34 176.833 102 244.5s149.667 101.5 245 101.5s176.833 -33.833 244.5 -101.5s101.5 -149.167 101.5 -244.5s-33.833 -177 -101.5 -245s-149.167 -102 -244.5 -102zM402 20.999
c86 0 159.667 30.667 221 92s92 135 92 221s-30.667 159.667 -92 221s-135 92 -221 92s-159.667 -30.667 -221 -92s-92 -135 -92 -221s30.667 -159.667 92 -221s135 -92 221 -92z" />
    <glyph glyph-name="ordfeminine" unicode="&#xaa;" horiz-adv-x="322" 
d="M295 442l11.001 -7.00195c-15.333 -27.333 -34.333 -41 -57 -41c-14.667 0 -25.167 4.16699 -31.5 12.5s-10.833 20.833 -13.5 37.5c-41.333 -33.333 -77 -50 -107 -50c-16.667 0 -31 5.5 -43 16.5s-18 24.833 -18 41.5c0 47.333 56 84 168 110v44
c0 32 -17.667 48 -53 48c-10 0 -22.333 -2.5 -37 -7.5s-22 -11.5 -22 -19.5c0 -3.33301 1.66699 -8.5 5 -15.5s5 -12.5 5 -16.5c0 -7.33301 -2.83301 -13.666 -8.5 -18.999s-12.167 -8 -19.5 -8c-8 0 -14.833 3.33301 -20.5 10s-8.5 14 -8.5 22c0 22 12.333 39.5 37 52.5
s49 19.5 73 19.5c31.333 0 55.666 -5.83301 72.999 -17.5s26 -32.5 26 -62.5v-134v-8c0 -22 5 -33 15 -33c3.33301 0 6.33301 1 9 3s4.66699 3.83301 6 5.5s3.33301 4.83398 6 9.50098zM204.001 542.998c-76 -18 -114.666 -44.999 -115.999 -80.999
c0 -10.667 3.16699 -19.834 9.5 -27.501s15.166 -11.5 26.499 -11.5c24 0 50.667 14 80 42v78zM313.002 331.999v-31h-283v31h283z" />
    <glyph glyph-name="guillemotleft" unicode="&#xab;" horiz-adv-x="433" 
d="M288 217l94 -119.999c8 -10.667 12 -19.334 12 -26.001v-2c0 -8.66699 -5.33301 -13 -16 -13c-4 0 -8 0.833008 -12 2.5s-7.33301 3.5 -10 5.5s-6 4.83301 -10 8.5s-7 6.16699 -9 7.5l-128 120c-7.33301 6 -11 11.667 -11 17s3.66699 11 11 17l128 120
c17.333 14 30.333 22 39 24c12 0 18 -4.33301 18 -13c0 -6.66699 -4 -16 -12 -28zM128 217.001l94.998 -120c7.33301 -10 11 -18.667 11 -26v-2c0 -8.66699 -5.33301 -13 -16 -13c-4 0 -8 1 -12 3s-7.16699 3.83301 -9.5 5.5s-5.66602 4.5 -9.99902 8.5
s-7.16602 6.33301 -8.49902 7l-129 120c-7.33301 6 -11 11.667 -11 17s3.66699 11 11 17l129 120c2 1.33301 5 3.66602 9 6.99902s7.16699 5.83301 9.5 7.5s5.33301 3.5 9 5.5s7.16699 3.33301 10.5 4c12 0 18 -4.33301 18 -13c0 -7.33301 -3.66699 -16.666 -11 -27.999z
" />
    <glyph glyph-name="logicalnot" unicode="&#xac;" 
d="M359 0v220h-324v47h431v-267h-107z" />
    <glyph glyph-name="registered" unicode="&#xae;" horiz-adv-x="804" 
d="M517 152l-100 173h-66v-117c0 -14 2.16699 -23.833 6.5 -29.5s13.166 -8.5 26.499 -8.5h17v-18h-164v18c18 0 30.5 2.16699 37.5 6.5s10.5 14.833 10.5 31.5v252c0 13.333 -2.16699 23 -6.5 29s-13.166 9 -26.499 9h-18v18h169c98 0 147 -33.333 147 -100
c0 -40.667 -23 -70.667 -69 -90l77 -131c9.33301 -16.667 24.333 -25 45 -25v-18h-86zM351 342h52c26.667 0 46.667 5.66699 60 17s20 30.333 20 57c0 24.667 -7.33301 43.667 -22 57s-34 20 -58 20h-52v-151zM402 -13c-95.333 0 -177 34 -245 102s-102 149.667 -102 245
s34 176.833 102 244.5s149.667 101.5 245 101.5s176.833 -33.833 244.5 -101.5s101.5 -149.167 101.5 -244.5s-33.833 -177 -101.5 -245s-149.167 -102 -244.5 -102zM402 21c86 0 159.667 30.667 221 92s92 135 92 221s-30.667 159.667 -92 221s-135 92 -221 92
s-159.667 -30.667 -221 -92s-92 -135 -92 -221s30.667 -159.667 92 -221s135 -92 221 -92z" />
    <glyph glyph-name="macron" unicode="&#xaf;" 
d="M81 565h337v-39h-337v39z" />
    <glyph glyph-name="degree" unicode="&#xb0;" horiz-adv-x="423" 
d="M203 637c29.333 0 54.667 -8.66699 76 -26s32 -40.333 32 -69c0 -24.667 -9.5 -45.667 -28.5 -63s-40.833 -26 -65.5 -26s-46.5 9 -65.5 27s-28.5 39.333 -28.5 64c0 22.667 7.5 43.167 22.5 61.5s34.167 28.833 57.5 31.5zM148.001 544
c0.666992 -18.667 7.83301 -34.501 21.5 -47.501s30.167 -19.5 49.5 -19.5c18.667 0 34.5 6.83301 47.5 20.5s19.5 29.834 19.5 48.501c0 18 -7.16699 33.5 -21.5 46.5s-30.5 19.5 -48.5 19.5c-19.333 0 -35.5 -6.5 -48.5 -19.5s-19.5 -29.167 -19.5 -48.5z" />
    <glyph glyph-name="plusminus" unicode="&#xb1;" 
d="M20 379h204v195h51v-195h205v-49h-205v-190h-51v190h-204v49zM20 96h460v-49h-460v49z" />
    <glyph glyph-name="twosuperior" unicode="&#xb2;" horiz-adv-x="307" 
d="M292 361l-26.0029 -95.001h-251l7 29c28 22 50.5 40.667 67.5 56s36.833 35.333 59.5 60s39.667 50.334 51 77.001s17 53.667 17 81c0 20.667 -7.16699 38.5 -21.5 53.5s-31.833 22.5 -52.5 22.5s-38.5 -6.5 -53.5 -19.5s-22.5 -29.5 -22.5 -49.5
c0 -12 3.5 -23.333 10.5 -34s16.167 -17.667 27.5 -21c-4 -13.333 -14.667 -20 -32 -20c-14.667 0 -26 6.5 -34 19.5s-12 27.167 -12 42.5c0 31.333 11.833 56.166 35.5 74.499s51.5 27.5 83.5 27.5c35.333 0 66 -10.667 92 -32s39 -49 39 -83
c0 -10.667 -1.16699 -21.167 -3.5 -31.5s-5 -19.666 -8 -27.999s-8 -17.5 -15 -27.5s-12.5 -18.167 -16.5 -24.5s-11.5 -14.5 -22.5 -24.5s-18.5 -17.167 -22.5 -21.5s-12.667 -11.666 -26 -21.999s-21.5 -16.5 -24.5 -18.5s-11.667 -8.33301 -26 -19
s-22.166 -16.334 -23.499 -17.001h140c4.66699 0 9 0.833008 13 2.5s7.5 4.5 10.5 8.5s5.33301 7 7 9s3.83398 6.5 6.50098 13.5s4.33398 10.833 5.00098 11.5h21z" />
    <glyph glyph-name="threesuperior" unicode="&#xb3;" horiz-adv-x="307" 
d="M79 383c-6.66699 -13.333 -10.0029 -25 -10.0029 -35c0 -18.667 7.5 -34.167 22.5 -46.5s31.833 -18.5 50.5 -18.5c24.667 0 44 8.5 58 25.5s21 38.5 21 64.5c0 22 -4.83301 41.667 -14.5 59s-24.5 27 -44.5 29c-5.33301 0 -10.333 -2 -15 -6
c-13.333 -7.33301 -23 -11 -29 -11c-6.66699 0 -12.667 2.16699 -18 6.5s-8.33301 9.83301 -9 16.5v1c0 13.333 13 20 39 20c12 0 23.333 -1 34 -3c14.667 4 26.334 13.5 35.001 28.5s13 30.5 13 46.5c0 23.333 -6.16699 43.5 -18.5 60.5s-29.5 25.5 -51.5 25.5
c-13.333 0 -25.333 -3.83301 -36 -11.5s-16 -18.167 -16 -31.5c0 -14 6.66699 -28.333 20 -43c-8 -4.66699 -15.333 -7 -22 -7c-11.333 0 -21.166 3.83301 -29.499 11.5s-12.5 17.167 -12.5 28.5c0 23.333 11.167 41 33.5 53s45.833 18 70.5 18
c30 0 57.333 -9.16699 82 -27.5s37 -42.166 37 -71.499c0 -40.667 -21 -70 -63 -88c52 -23.333 78 -57 78 -101c0 -36.667 -14.833 -65.334 -44.5 -86.001s-63.834 -31 -102.501 -31c-28 0 -54 6.5 -78 19.5s-36 32.5 -36 58.5c0 12 4.66699 22.833 14 32.5s20 14.5 32 14.5
c0.666992 0 2.33398 -0.166992 5.00098 -0.5s4.33398 -0.5 5.00098 -0.5z" />
    <glyph glyph-name="acute" unicode="&#xb4;" 
d="M210 608l123 0.000976562c8 0 12 -2.66699 12 -8c0 -3.33301 -2 -6.33301 -6 -9l-158 -114c-5.33301 -2.66699 -9.33301 -4.33398 -12 -5.00098c-8 0 -12 2 -12 6v1c0 2 0.333008 3.66699 1 5z" />
    <glyph glyph-name="paragraph" unicode="&#xb6;" horiz-adv-x="570" 
d="M530 667l0.000976562 -25.001h-18c-28 0 -45.167 -4.16699 -51.5 -12.5s-9.5 -26.166 -9.5 -53.499v-10v-569v-22c0.666992 -18.667 4.5 -30.167 11.5 -34.5s20.5 -6.5 40.5 -6.5h21v-25h-122v731h-89v-731h-134v25h22c27.333 0 44.333 4 51 12s10.667 25.667 12 53v351
c-5.33301 0 -12.833 -0.166992 -22.5 -0.5s-16.834 -0.5 -21.501 -0.5c-51.333 0 -93 14.5 -125 43.5s-48 68.833 -48 119.5c0 26 6.16699 50.833 18.5 74.5s29.166 42.167 50.499 55.5c26.667 16.667 67.334 25 122.001 25h49h243zM264.001 641.999
c-56.667 0 -94.833 -9.16699 -114.5 -27.5s-29.5 -56.833 -29.5 -115.5c0 -34 9.16699 -62.5 27.5 -85.5s43.833 -34.5 76.5 -34.5h40v263z" />
    <glyph glyph-name="periodcentered" unicode="&#xb7;" horiz-adv-x="467" 
d="M234 161c-15.333 0 -28.5 5.5 -39.5 16.5s-16.5 24.167 -16.5 39.5s5.5 28.5 16.5 39.5s24.167 16.5 39.5 16.5s28.333 -5.5 39 -16.5s16 -24.167 16 -39.5s-5.33301 -28.5 -16 -39.5s-23.667 -16.5 -39 -16.5z" />
    <glyph glyph-name="cedilla" unicode="&#xb8;" 
d="M212 -74l20 74.002h37l-9 -40c26 -2.66699 47.667 -11.334 65 -26.001s26 -34.667 26 -60c0 -26.667 -11.667 -48.834 -35 -66.501s-49 -26.5 -77 -26.5c-26.667 0 -55.667 7 -87 21l16 33c22 -8.66699 40 -13 54 -13s26.5 4 37.5 12s16.833 19 17.5 33
c0 26 -21.667 45.667 -65 59z" />
    <glyph glyph-name="onesuperior" unicode="&#xb9;" horiz-adv-x="294" 
d="M119 601l-51.999 -0.000976562v24c29.333 0.666992 66.333 14.334 111 41.001v-331c0 -19.333 4.16699 -31.833 12.5 -37.5s23.166 -8.5 44.499 -8.5v-23h-175v23c22 0 37.333 2.66699 46 8s13 18 13 38v266z" />
    <glyph glyph-name="ordmasculine" unicode="&#xba;" horiz-adv-x="322" 
d="M161 672c38.667 0 70 -13.168 94 -39.501s36 -59.166 36 -98.499c0 -40.667 -11.5 -74.5 -34.5 -101.5s-54.5 -40.5 -94.5 -40.5s-71.667 13.667 -95 41s-35 61.333 -35 102c0 38.667 12 71.167 36 97.5s55 39.5 93 39.5zM161 653.999c-50.667 0 -76 -40 -76 -120
c0 -82 25.333 -123 76 -123c51.333 0 77 41 77 123c0 80 -25.667 120 -77 120zM303 331.999v-31h-283v31h283z" />
    <glyph glyph-name="guillemotright" unicode="&#xbb;" horiz-adv-x="433" 
d="M146 217l-94.998 120c-7.33301 12 -11 20.333 -11 25c0 10.667 5.33301 16 16 16c4 0 8 -1 12 -3s7.16699 -3.83301 9.5 -5.5s5.66602 -4.5 9.99902 -8.5s7.16602 -6.33301 8.49902 -7l129 -120c7.33301 -7.33301 11 -13 11 -17c0 -5.33301 -3.66699 -11 -11 -17
l-129 -120c-1.33301 -1.33301 -4 -3.83301 -8 -7.5l-9.5 -8.5c-2.33301 -2 -5.5 -3.83301 -9.5 -5.5s-7.66699 -2.5 -11 -2.5c-12 0 -18 4.33301 -18 13c0 9.33301 3.66699 18.333 11 27zM305.002 217l-94.002 120.002c-7.33301 9.33301 -11.333 17.666 -12 24.999
c0 10.667 5.33301 16 16 16c10 0 23.667 -8 41 -24l129 -120c7.33301 -9.33301 11 -15 11 -17c0 -4 -3.66699 -9.66699 -11 -17l-129 -120c-1.33301 -1.33301 -4.16602 -3.83301 -8.49902 -7.5s-7.66602 -6.33398 -9.99902 -8.00098s-5.5 -3.5 -9.5 -5.5s-7.66699 -3 -11 -3
c-12 0 -18 5 -18 15c0.666992 8 4.66699 16.333 12 25z" />
    <glyph glyph-name="onequarter" unicode="&#xbc;" horiz-adv-x="732" 
d="M119 601l-52.001 -0.000976562v24c29.333 0.666992 66.333 14.334 111 41.001v-332c0 -19.333 4.33301 -31.666 13 -36.999s23.334 -8 44.001 -8v-23h-175v23c21.333 0 36.5 2.66699 45.5 8s13.5 17.666 13.5 36.999v267zM564.999 666.999l-369 -667h-35l369 667h35z
M723.999 153.999l-17.999 -58h-62v-38c0 -23.333 10 -35 30 -35h15v-23h-149v23c15.333 0 26.833 2.33301 34.5 7s11.5 14 11.5 28v38h-155l198 295c0.666992 1.33301 2.33398 3.33301 5.00098 6c6.66699 0 10 -2.66699 10 -8v-265c10.667 0 18.667 0.333008 24 1
s11.166 3.16699 17.499 7.5s11.166 10.833 14.499 19.5zM586 123.999v167l-107 -167h107z" />
    <glyph glyph-name="onehalf" unicode="&#xbd;" horiz-adv-x="732" 
d="M119 601l-52.001 -0.000976562v24c29.333 0.666992 66.333 14.334 111 41.001v-332c0 -19.333 4.33301 -31.666 13 -36.999s23.334 -8 44.001 -8v-23h-175v23c21.333 0 36.5 2.66699 45.5 8s13.5 17.666 13.5 36.999v267zM564.999 666.999l-369 -667h-35l369 667h35z
M716.999 94.999l-26.001 -95.0059h-251l7 29c23.333 18.667 41.166 33.334 53.499 44.001s29 26.334 50 47.001s37 39.334 48 56.001s21 36.334 30 59.001s13.5 45.334 13.5 68.001c0 20.667 -7.16699 38.5 -21.5 53.5s-31.833 22.5 -52.5 22.5s-38.5 -6.5 -53.5 -19.5
s-22.5 -29.5 -22.5 -49.5c0 -12 3.5 -23.333 10.5 -34s16.167 -17.667 27.5 -21c-4 -13.333 -14.667 -20 -32 -20c-14.667 0 -26 6.5 -34 19.5s-12 27.167 -12 42.5c0 31.333 11.833 56.166 35.5 74.499s51.5 27.5 83.5 27.5c34.667 0 65.167 -10.667 91.5 -32
s39.5 -49 39.5 -83c0 -10.667 -1.16699 -21.167 -3.5 -31.5s-5 -19.666 -8 -27.999s-8 -17.5 -15 -27.5s-12.5 -18.167 -16.5 -24.5s-11.5 -14.5 -22.5 -24.5s-18.5 -17.167 -22.5 -21.5s-12.667 -11.666 -26 -21.999s-21.5 -16.5 -24.5 -18.5s-11.667 -8.33301 -26 -19
s-22.166 -16.334 -23.499 -17.001h139c4.66699 0 9 0.833008 13 2.5s7.5 4.33398 10.5 8.00098s5.33301 7 7 10s3.83398 7.33301 6.50098 13s4.66699 9.5 6 11.5h21z" />
    <glyph glyph-name="threequarters" unicode="&#xbe;" horiz-adv-x="745" 
d="M79 383c-6.66699 -12 -9.99902 -23.6631 -9.99902 -34.9961c0 -18 7.5 -33.167 22.5 -45.5s31.833 -18.5 50.5 -18.5c25.333 0 44.833 8.33301 58.5 25s20.5 38 20.5 64c0 22 -4.83301 41.667 -14.5 59s-24.5 27 -44.5 29c-4.66699 0 -10.667 -2.83301 -18 -8.5
s-16 -8.5 -26 -8.5c-6.66699 0 -12.667 2.16699 -18 6.5s-8.33301 9.83301 -9 16.5v1c0 13.333 14.667 20 44 20c3.33301 0 8.16602 -0.333008 14.499 -1s11.166 -1 14.499 -1c14.667 3.33301 26.334 12.5 35.001 27.5s13 30.833 13 47.5c0 22.667 -6.16699 42.667 -18.5 60
s-29.5 26 -51.5 26c-13.333 0 -25.333 -4 -36 -12s-16 -18.333 -16 -31c0 -14.667 6.66699 -29.334 20 -44.001c-9.33301 -4.66699 -17.666 -7 -24.999 -7c-11.333 1.33301 -20.666 5.66602 -27.999 12.999s-11 16.333 -11 27c0 23.333 11.167 41.166 33.5 53.499
s45.833 18.5 70.5 18.5c30 0 57.333 -9.16699 82 -27.5s37 -42.166 37 -71.499c0 -41.333 -21 -71 -63 -89c52 -22.667 78 -56.334 78 -101.001c0 -36.667 -14.833 -65.334 -44.5 -86.001s-63.834 -31 -102.501 -31c-28 0 -54 6.5 -78 19.5s-36 32.5 -36 58.5
c0 12.667 4.33301 23.667 13 33s19.334 14 32.001 14c1.33301 0 3.16602 -0.166992 5.49902 -0.5s4.16602 -0.5 5.49902 -0.5zM578.001 667.004l-369 -667h-35l369 667h35zM737.001 154.004l-17.999 -58h-62v-38c0 -23.333 10 -35 30 -35h15v-23h-149v23
c15.333 0 26.833 2.33301 34.5 7s11.5 14 11.5 28v38h-155l198 295c0.666992 1.33301 2.33398 3.33301 5.00098 6c6.66699 0 10 -2.66699 10 -8v-265c10.667 0 18.667 0.333008 24 1s11.166 3.16699 17.499 7.5s11.166 10.833 14.499 19.5zM599.002 124.004v167l-107 -167
h107z" />
    <glyph glyph-name="questiondown" unicode="&#xbf;" horiz-adv-x="412" 
d="M262 188h34.999v-204h-20c-13.333 22 -30.333 33 -51 33c-16.667 0 -30.167 -7.83301 -40.5 -23.5s-16.833 -31.667 -19.5 -48s-4 -32.833 -4 -49.5c0 -34.667 7.16699 -66 21.5 -94s37.5 -42 69.5 -42c14 0 25.5 3.5 34.5 10.5s15.167 14.833 18.5 23.5s8 16.667 14 24
s13 11.333 21 12c22 0 33 -10 33 -30c0 -23.333 -13.5 -40.833 -40.5 -52.5s-54.167 -17.5 -81.5 -17.5c-47.333 0 -87.166 17.167 -119.499 51.5s-48.5 75.166 -48.5 122.499c0 36.667 11.5 70.834 34.5 102.501s52.5 47.5 88.5 47.5c20 0 38.333 -5.66699 55 -17v151z
M278.999 427c15.333 0 28.333 -5.5 39 -16.5s16 -24.167 16 -39.5s-5.33301 -28.5 -16 -39.5s-23.667 -16.5 -39 -16.5s-28.5 5.5 -39.5 16.5s-16.5 24.167 -16.5 39.5s5.5 28.5 16.5 39.5s24.167 16.5 39.5 16.5z" />
    <glyph glyph-name="Agrave" unicode="&#xc0;" horiz-adv-x="723" 
d="M382 678l251.999 -581c10 -22.667 22 -39.167 36 -49.5s33 -15.833 57 -16.5v-31h-275v31h22c38.667 0 58 10.333 58 31c0 10 -3 21.667 -9 35l-54 129h-266l-52 -129c-4.66699 -10.667 -7 -19.667 -7 -27c0 -26 20.667 -39 62 -39h21v-31h-230v31
c30 0.666992 52.833 5.5 68.5 14.5s28.834 26.167 39.501 51.5l240 581h37zM449.999 268l-86.999 211.999c-14.667 38.667 -24 65.334 -28 80.001c-0.666992 -2 -1.83398 -5.83301 -3.50098 -11.5s-3.16699 -10.167 -4.5 -13.5l-108 -267h231zM403 842.999l52 -124.001
c0.666992 -1.33301 1 -3 1 -5v-1c0 -4 -4 -6 -12 -6c-2.66699 0.666992 -6.66699 2.33398 -12 5.00098l-158 114c-4 2.66699 -6 5.66699 -6 9c0 5.33301 4 8 12 8h123z" />
    <glyph glyph-name="Aacute" unicode="&#xc1;" horiz-adv-x="723" 
d="M382 678l251.999 -581c10 -22.667 22 -39.167 36 -49.5s33 -15.833 57 -16.5v-31h-275v31h22c38.667 0 58 10.333 58 31c0 10 -3 21.667 -9 35l-54 129h-266l-52 -129c-4.66699 -10.667 -7 -19.667 -7 -27c0 -26 20.667 -39 62 -39h21v-31h-230v31
c30 0.666992 52.833 5.5 68.5 14.5s28.834 26.167 39.501 51.5l240 581h37zM449.999 268l-86.999 211.999c-14.667 38.667 -24 65.334 -28 80.001c-0.666992 -2 -1.83398 -5.83301 -3.50098 -11.5s-3.16699 -10.167 -4.5 -13.5l-108 -267h231zM321 842.999l123 0.000976562
c8 0 12 -2.66699 12 -8c0 -3.33301 -2 -6.33301 -6 -9l-158 -114c-5.33301 -2.66699 -9.33301 -4.33398 -12 -5.00098c-8 0 -12 2 -12 6v1c0 2 0.333008 3.66699 1 5z" />
    <glyph glyph-name="Acircumflex" unicode="&#xc2;" horiz-adv-x="723" 
d="M382 678l251.999 -581c10 -22.667 22 -39.167 36 -49.5s33 -15.833 57 -16.5v-31h-275v31h22c38.667 0 58 10.333 58 31c0 10 -3 21.667 -9 35l-54 129h-266l-52 -129c-4.66699 -10.667 -7 -19.667 -7 -27c0 -26 20.667 -39 62 -39h21v-31h-230v31
c30 0.666992 52.833 5.5 68.5 14.5s28.834 26.167 39.501 51.5l240 581h37zM449.999 268l-86.999 211.999c-14.667 38.667 -24 65.334 -28 80.001c-0.666992 -2 -1.83398 -5.83301 -3.50098 -11.5s-3.16699 -10.167 -4.5 -13.5l-108 -267h231zM362 851.999l121.001 -119
c4.66699 -4.66699 7 -8.66699 7 -12c0 -12 -5.33301 -18 -16 -18h-1c-4 0 -9 2.33301 -15 7l-96 66l-95 -66c-6 -4.66699 -11 -7 -15 -7h-1c-8.66699 0 -14.334 5 -17.001 15c0 4.66699 2.66699 9.66699 8 15z" />
    <glyph glyph-name="Atilde" unicode="&#xc3;" horiz-adv-x="723" 
d="M382 678l251.999 -581c10 -22.667 22 -39.167 36 -49.5s33 -15.833 57 -16.5v-31h-275v31h22c38.667 0 58 10.333 58 31c0 10 -3 21.667 -9 35l-54 129h-266l-52 -129c-4.66699 -10.667 -7 -19.667 -7 -27c0 -26 20.667 -39 62 -39h21v-31h-230v31
c30 0.666992 52.833 5.5 68.5 14.5s28.834 26.167 39.501 51.5l240 581h37zM449.999 268l-86.999 211.999c-14.667 38.667 -24 65.334 -28 80.001c-0.666992 -2 -1.83398 -5.83301 -3.50098 -11.5s-3.16699 -10.167 -4.5 -13.5l-108 -267h231zM509 822.999l17 -12
c-34 -52.667 -69.667 -79.667 -107 -81c-16.667 0 -40.667 4.5 -72 13.5s-55 13.5 -71 13.5c-17.333 0 -36.666 -11.333 -57.999 -34l-19 11c35.333 58.667 71.666 88 108.999 88c16 0 39.667 -4.66699 71 -14s55.333 -14 72 -14c18 0 37.333 9.66699 58 29z" />
    <glyph glyph-name="Adieresis" unicode="&#xc4;" horiz-adv-x="723" 
d="M382 678l251.999 -581c10 -22.667 22 -39.167 36 -49.5s33 -15.833 57 -16.5v-31h-275v31h22c38.667 0 58 10.333 58 31c0 10 -3 21.667 -9 35l-54 129h-266l-52 -129c-4.66699 -10.667 -7 -19.667 -7 -27c0 -26 20.667 -39 62 -39h21v-31h-230v31
c30 0.666992 52.833 5.5 68.5 14.5s28.834 26.167 39.501 51.5l240 581h37zM449.999 268l-86.999 211.999c-14.667 38.667 -24 65.334 -28 80.001c-0.666992 -2 -1.83398 -5.83301 -3.50098 -11.5s-3.16699 -10.167 -4.5 -13.5l-108 -267h231zM211 769.999
c0 16.667 5.83301 30.834 17.5 42.501s25.834 17.5 42.501 17.5s30.834 -5.83301 42.501 -17.5s17.5 -25.834 17.5 -42.501s-5.83301 -30.834 -17.5 -42.501s-25.834 -17.5 -42.501 -17.5s-30.834 5.83301 -42.501 17.5s-17.5 25.834 -17.5 42.501zM394 769.999
c0 16.667 6 30.834 18 42.501s26 17.5 42 17.5c16.667 0 30.834 -5.83301 42.501 -17.5s17.5 -25.834 17.5 -42.501s-5.83301 -30.834 -17.5 -42.501s-25.834 -17.5 -42.501 -17.5c-16 0 -30 5.83301 -42 17.5s-18 25.834 -18 42.501z" />
    <glyph glyph-name="Aring" unicode="&#xc5;" horiz-adv-x="723" 
d="M382 678l251.999 -581c10 -22.667 22 -39.167 36 -49.5s33 -15.833 57 -16.5v-31h-275v31h22c38.667 0 58 10.333 58 31c0 10 -3 21.667 -9 35l-54 129h-266l-52 -129c-4.66699 -10.667 -7 -19.667 -7 -27c0 -26 20.667 -39 62 -39h21v-31h-230v31
c30 0.666992 52.833 5.5 68.5 14.5s28.834 26.167 39.501 51.5l240 581h37zM449.999 268l-86.999 211.999c-14.667 38.667 -24 65.334 -28 80.001c-0.666992 -2 -1.83398 -5.83301 -3.50098 -11.5s-3.16699 -10.167 -4.5 -13.5l-108 -267h231zM362 704.999
c-22.667 0 -42.5 8.5 -59.5 25.5s-25.5 36.833 -25.5 59.5s8.5 42.5 25.5 59.5s36.833 25.5 59.5 25.5c23.333 0 43.333 -8.66699 60 -26s25 -38 25 -62c0 -22.667 -8.5 -42 -25.5 -58s-36.833 -24 -59.5 -24zM362 743.999c12.667 0 23.5 4.5 32.5 13.5
s13.5 19.833 13.5 32.5s-4.5 23.5 -13.5 32.5s-19.833 13.5 -32.5 13.5s-23.5 -4.5 -32.5 -13.5s-13.5 -19.833 -13.5 -32.5s4.5 -23.5 13.5 -32.5s19.833 -13.5 32.5 -13.5z" />
    <glyph glyph-name="AE" unicode="&#xc6;" horiz-adv-x="881" 
d="M842 207h30l-12 -207h-548v31c41.333 2 68.333 8.16699 81 18.5s19 35.166 19 74.499v194h-158l-90 -182c-10.667 -22 -17 -40 -19 -54c0 -31.333 25 -48.333 75 -51v-31h-223v31c28 0.666992 50.333 7.66699 67 21s31.667 33.666 45 60.999l233 471
c3.33301 9.33301 5.33301 15 6 17c0 23.333 -23 35 -69 35h-7v31h529l19 -164h-31c-12.667 48 -29.834 81.5 -51.501 100.5s-56.167 28.5 -103.5 28.5h-122v-242h76c26 0 45.333 8.83301 58 26.5s19.334 39.834 20.001 66.501h30v-227h-30c-1.33301 64 -26 96 -74 96h-80
v-228c0 -35.333 10.167 -59.333 30.5 -72s49.166 -19 86.499 -19c64 0 112.833 13.333 146.5 40s55.834 71.334 66.501 134.001zM412 352v286l-140 -286h140z" />
    <glyph glyph-name="Ccedilla" unicode="&#xc7;" horiz-adv-x="710" 
d="M654 667l8.99902 -241.996h-31c-37.333 149.333 -117.666 224 -240.999 224c-39.333 0 -74.333 -9.33301 -105 -28s-54.5 -43.334 -71.5 -74.001s-29.667 -63.334 -38 -98.001s-12.5 -70.667 -12.5 -108c0 -40 4.83301 -77.833 14.5 -113.5s24 -68.334 43 -98.001
s44.667 -53.167 77 -70.5s69.833 -26 112.5 -26c51.333 0 99.666 15.167 144.999 45.5s78 69.166 98 116.499l36 -27c-25.333 -54.667 -64.666 -98.834 -117.999 -132.501s-110.666 -51.167 -171.999 -52.5l-12 -38c54.667 -12.667 82 -39.667 82 -81
c0 -24.667 -10.167 -45.334 -30.5 -62.001s-43.166 -25 -68.499 -25c-32.667 0 -64 9.66699 -94 29l16 22c19.333 -10.667 39 -17 59 -19c15.333 0 28.5 5.33301 39.5 16s16.5 23.334 16.5 38.001s-5.16699 26.334 -15.5 35.001s-24.5 16.667 -42.5 24l20 61
c-94.667 1.33301 -171.834 34.833 -231.501 100.5s-89.5 146.167 -89.5 241.5c0 100 31.5 184.667 94.5 254s144.167 104 243.5 104c77.333 0 149.666 -22.333 216.999 -67c2 3.33301 9.33301 20.333 22 51h28z" />
    <glyph glyph-name="Egrave" unicode="&#xc8;" horiz-adv-x="584" 
d="M506 667l17.999 -163.001h-31c-10 41.333 -25.167 73.166 -45.5 95.499s-49.833 33.5 -88.5 33.5h-145v-262h63c30.667 0 53.5 7.66699 68.5 23s23.167 38.666 24.5 69.999h31v-226h-31c-2.66699 18.667 -5.33398 33 -8.00098 43s-7.16699 19.833 -13.5 29.5
s-15.166 16.334 -26.499 20.001s-26.333 5.5 -45 5.5h-63v-214c0 -33.333 8.83301 -56.333 26.5 -69s43.834 -19 78.501 -19c25.333 0 45.5 0.666992 60.5 2s31.667 4.5 50 9.5s34.333 13.333 48 25s26.167 26.834 37.5 45.501c19.333 34 29.666 64 30.999 90h29l-13 -206
h-548v31c20.667 0.666992 35.5 1.66699 44.5 3s18.667 4.5 29 9.5s17.333 12.833 21 23.5s5.5 25.334 5.5 44.001v445c0 18 -1.83301 32.5 -5.5 43.5s-10.667 19 -21 24s-20.166 8.16699 -29.499 9.5s-24 2.33301 -44 3v31h492zM332.999 842.999l52 -124.001
c0.666992 -1.33301 1 -3 1 -5v-1c0 -4 -4 -6 -12 -6c-2.66699 0.666992 -6.66699 2.33398 -12 5.00098l-158 114c-4 2.66699 -6 5.66699 -6 9c0 5.33301 4 8 12 8h123z" />
    <glyph glyph-name="Eacute" unicode="&#xc9;" horiz-adv-x="584" 
d="M506 667l17.999 -163.001h-31c-10 41.333 -25.167 73.166 -45.5 95.499s-49.833 33.5 -88.5 33.5h-145v-262h63c30.667 0 53.5 7.66699 68.5 23s23.167 38.666 24.5 69.999h31v-226h-31c-2.66699 18.667 -5.33398 33 -8.00098 43s-7.16699 19.833 -13.5 29.5
s-15.166 16.334 -26.499 20.001s-26.333 5.5 -45 5.5h-63v-214c0 -33.333 8.83301 -56.333 26.5 -69s43.834 -19 78.501 -19c25.333 0 45.5 0.666992 60.5 2s31.667 4.5 50 9.5s34.333 13.333 48 25s26.167 26.834 37.5 45.501c19.333 34 29.666 64 30.999 90h29l-13 -206
h-548v31c20.667 0.666992 35.5 1.66699 44.5 3s18.667 4.5 29 9.5s17.333 12.833 21 23.5s5.5 25.334 5.5 44.001v445c0 18 -1.83301 32.5 -5.5 43.5s-10.667 19 -21 24s-20.166 8.16699 -29.499 9.5s-24 2.33301 -44 3v31h492zM250.999 842.999l123 0.000976562
c8 0 12 -2.66699 12 -8c0 -3.33301 -2 -6.33301 -6 -9l-158 -114c-5.33301 -2.66699 -9.33301 -4.33398 -12 -5.00098c-8 0 -12 2 -12 6v1c0 2 0.333008 3.66699 1 5z" />
    <glyph glyph-name="Ecircumflex" unicode="&#xca;" horiz-adv-x="584" 
d="M506 667l17.999 -163.001h-31c-10 41.333 -25.167 73.166 -45.5 95.499s-49.833 33.5 -88.5 33.5h-145v-262h63c30.667 0 53.5 7.66699 68.5 23s23.167 38.666 24.5 69.999h31v-226h-31c-2.66699 18.667 -5.33398 33 -8.00098 43s-7.16699 19.833 -13.5 29.5
s-15.166 16.334 -26.499 20.001s-26.333 5.5 -45 5.5h-63v-214c0 -33.333 8.83301 -56.333 26.5 -69s43.834 -19 78.501 -19c25.333 0 45.5 0.666992 60.5 2s31.667 4.5 50 9.5s34.333 13.333 48 25s26.167 26.834 37.5 45.501c19.333 34 29.666 64 30.999 90h29l-13 -206
h-548v31c20.667 0.666992 35.5 1.66699 44.5 3s18.667 4.5 29 9.5s17.333 12.833 21 23.5s5.5 25.334 5.5 44.001v445c0 18 -1.83301 32.5 -5.5 43.5s-10.667 19 -21 24s-20.166 8.16699 -29.499 9.5s-24 2.33301 -44 3v31h492zM291.999 851.999l121.001 -119
c4.66699 -4.66699 7 -8.66699 7 -12c0 -12 -5.33301 -18 -16 -18h-1c-4 0 -9 2.33301 -15 7l-96 66l-95 -66c-6 -4.66699 -11 -7 -15 -7h-1c-8.66699 0 -14.334 5 -17.001 15c0 4.66699 2.66699 9.66699 8 15z" />
    <glyph glyph-name="Edieresis" unicode="&#xcb;" horiz-adv-x="584" 
d="M506 667l17.999 -163.001h-31c-10 41.333 -25.167 73.166 -45.5 95.499s-49.833 33.5 -88.5 33.5h-145v-262h63c30.667 0 53.5 7.66699 68.5 23s23.167 38.666 24.5 69.999h31v-226h-31c-2.66699 18.667 -5.33398 33 -8.00098 43s-7.16699 19.833 -13.5 29.5
s-15.166 16.334 -26.499 20.001s-26.333 5.5 -45 5.5h-63v-214c0 -33.333 8.83301 -56.333 26.5 -69s43.834 -19 78.501 -19c25.333 0 45.5 0.666992 60.5 2s31.667 4.5 50 9.5s34.333 13.333 48 25s26.167 26.834 37.5 45.501c19.333 34 29.666 64 30.999 90h29l-13 -206
h-548v31c20.667 0.666992 35.5 1.66699 44.5 3s18.667 4.5 29 9.5s17.333 12.833 21 23.5s5.5 25.334 5.5 44.001v445c0 18 -1.83301 32.5 -5.5 43.5s-10.667 19 -21 24s-20.166 8.16699 -29.499 9.5s-24 2.33301 -44 3v31h492zM140.999 769.999
c0 16.667 5.83301 30.834 17.5 42.501s25.834 17.5 42.501 17.5s30.834 -5.83301 42.501 -17.5s17.5 -25.834 17.5 -42.501s-5.83301 -30.834 -17.5 -42.501s-25.834 -17.5 -42.501 -17.5s-30.834 5.83301 -42.501 17.5s-17.5 25.834 -17.5 42.501zM323.999 769.999
c0 16.667 6 30.834 18 42.501s26 17.5 42 17.5c16.667 0 30.834 -5.83301 42.501 -17.5s17.5 -25.834 17.5 -42.501s-5.83301 -30.834 -17.5 -42.501s-25.834 -17.5 -42.501 -17.5c-16 0 -30 5.83301 -42 17.5s-18 25.834 -18 42.501z" />
    <glyph glyph-name="Igrave" unicode="&#xcc;" horiz-adv-x="327" 
d="M314 0h-300.004v31c20.667 0.666992 35.5 1.66699 44.5 3s18.667 4.5 29 9.5s17.333 12.833 21 23.5s5.5 25.334 5.5 44.001v445c0 18 -1.83301 32.5 -5.5 43.5s-10.667 19 -21 24s-20.166 8.16699 -29.499 9.5s-24 2.33301 -44 3v31h300v-31
c-36 -1.33301 -61.667 -6 -77 -14s-23 -30 -23 -66v-445c0 -18.667 1.83301 -33.334 5.5 -44.001s10.834 -18.5 21.501 -23.5s20.334 -8.16699 29.001 -9.5s23.334 -2.33301 44.001 -3v-31zM204.996 843l52 -124.001c0.666992 -1.33301 1 -3 1 -5v-1c0 -4 -4 -6 -12 -6
c-2.66699 0.666992 -6.66699 2.33398 -12 5.00098l-158 114c-4 2.66699 -6 5.66699 -6 9c0 5.33301 4 8 12 8h123z" />
    <glyph glyph-name="Iacute" unicode="&#xcd;" horiz-adv-x="327" 
d="M314 0h-300.004v31c20.667 0.666992 35.5 1.66699 44.5 3s18.667 4.5 29 9.5s17.333 12.833 21 23.5s5.5 25.334 5.5 44.001v445c0 18 -1.83301 32.5 -5.5 43.5s-10.667 19 -21 24s-20.166 8.16699 -29.499 9.5s-24 2.33301 -44 3v31h300v-31
c-36 -1.33301 -61.667 -6 -77 -14s-23 -30 -23 -66v-445c0 -18.667 1.83301 -33.334 5.5 -44.001s10.834 -18.5 21.501 -23.5s20.334 -8.16699 29.001 -9.5s23.334 -2.33301 44.001 -3v-31zM122.996 843l123 0.000976562c8 0 12 -2.66699 12 -8
c0 -3.33301 -2 -6.33301 -6 -9l-158 -114c-5.33301 -2.66699 -9.33301 -4.33398 -12 -5.00098c-8 0 -12 2 -12 6v1c0 2 0.333008 3.66699 1 5z" />
    <glyph glyph-name="Icircumflex" unicode="&#xce;" horiz-adv-x="327" 
d="M314 0h-300.004v31c20.667 0.666992 35.5 1.66699 44.5 3s18.667 4.5 29 9.5s17.333 12.833 21 23.5s5.5 25.334 5.5 44.001v445c0 18 -1.83301 32.5 -5.5 43.5s-10.667 19 -21 24s-20.166 8.16699 -29.499 9.5s-24 2.33301 -44 3v31h300v-31
c-36 -1.33301 -61.667 -6 -77 -14s-23 -30 -23 -66v-445c0 -18.667 1.83301 -33.334 5.5 -44.001s10.834 -18.5 21.501 -23.5s20.334 -8.16699 29.001 -9.5s23.334 -2.33301 44.001 -3v-31zM162.996 852l121.001 -119c4.66699 -4.66699 7 -8.66699 7 -12
c0 -12 -5.33301 -18 -16 -18h-1c-4 0 -9 2.33301 -15 7l-96 66l-95 -66c-6 -4.66699 -11 -7 -15 -7h-1c-8.66699 0 -14.334 5 -17.001 15c0 4.66699 2.66699 9.66699 8 15z" />
    <glyph glyph-name="Idieresis" unicode="&#xcf;" horiz-adv-x="327" 
d="M314 0h-300.004v31c20.667 0.666992 35.5 1.66699 44.5 3s18.667 4.5 29 9.5s17.333 12.833 21 23.5s5.5 25.334 5.5 44.001v445c0 18 -1.83301 32.5 -5.5 43.5s-10.667 19 -21 24s-20.166 8.16699 -29.499 9.5s-24 2.33301 -44 3v31h300v-31
c-36 -1.33301 -61.667 -6 -77 -14s-23 -30 -23 -66v-445c0 -18.667 1.83301 -33.334 5.5 -44.001s10.834 -18.5 21.501 -23.5s20.334 -8.16699 29.001 -9.5s23.334 -2.33301 44.001 -3v-31zM11.9961 770c0 16.667 5.83301 30.834 17.5 42.501s25.834 17.5 42.501 17.5
s30.834 -5.83301 42.501 -17.5s17.5 -25.834 17.5 -42.501s-5.83301 -30.834 -17.5 -42.501s-25.834 -17.5 -42.501 -17.5s-30.834 5.83301 -42.501 17.5s-17.5 25.834 -17.5 42.501zM194.996 770c0 16.667 6 30.834 18 42.501s26 17.5 42 17.5
c16.667 0 30.834 -5.83301 42.501 -17.5s17.5 -25.834 17.5 -42.501s-5.83301 -30.834 -17.5 -42.501s-25.834 -17.5 -42.501 -17.5c-16 0 -30 5.83301 -42 17.5s-18 25.834 -18 42.501z" />
    <glyph glyph-name="Eth" unicode="&#xd0;" horiz-adv-x="731" 
d="M13 636l-0.00195312 30.999c14.667 0 37 -0.166992 67 -0.5s52.333 -0.5 67 -0.5s36.834 0.166992 66.501 0.5s51.834 0.5 66.501 0.5c83.333 0 144.666 -6.66699 183.999 -20c69.333 -24 123.333 -64.5 162 -121.5s58 -122.833 58 -197.5
c0 -98.667 -30.667 -178 -92 -238s-141.333 -90 -240 -90h-339v31c20.667 0.666992 35.5 1.66699 44.5 3s18.667 4.5 29 9.5s17.333 12.833 21 23.5s5.5 25.334 5.5 44.001v220h-64v38h64v187c0 18 -1.83301 32.5 -5.5 43.5s-10.667 19 -21 24s-20.166 8.16699 -29.499 9.5
s-24 2.33301 -44 3zM212.998 631.999l0.000976562 -263h186v-38h-186v-186c0 -48 7.5 -78.333 22.5 -91s46.833 -19 95.5 -19c42.667 0 79.667 8 111 24s55.666 38 72.999 66s30.166 59 38.499 93s12.5 71.333 12.5 112c0 98 -23.167 173.333 -69.5 226
s-117.166 79 -212.499 79c-23.333 0 -47 -1 -71 -3z" />
    <glyph glyph-name="Ntilde" unicode="&#xd1;" horiz-adv-x="725" 
d="M211 667l327.002 -450.998c9.33301 -12.667 21.666 -35.334 36.999 -68.001c0 8 -0.166992 19.333 -0.5 34s-0.5 26 -0.5 34v320c0 20 -1.33301 36 -4 48s-7.33398 20.833 -14.001 26.5s-12.834 9.5 -18.501 11.5s-14.5 4.16699 -26.5 6.5s-21.667 4.83301 -29 7.5v31
h230v-31c-35.333 -0.666992 -60.166 -8.66699 -74.499 -24s-21.5 -40.666 -21.5 -75.999v-542h-42l-356 496c-22 29.333 -43.667 62.666 -65 99.999v-424c0 -47.333 5.66699 -80.833 17 -100.5s38.666 -31.167 81.999 -34.5v-31h-239v31
c36.667 1.33301 62.5 10.166 77.5 26.499s22.5 43.5 22.5 81.5v417c0 18 -1.83301 32.5 -5.5 43.5s-10.667 19 -21 24s-20.166 8.16699 -29.499 9.5s-24 2.33301 -44 3v31h198zM509.002 823.002l17 -12c-34 -52.667 -69.667 -79.667 -107 -81
c-16.667 0 -40.667 4.5 -72 13.5s-55 13.5 -71 13.5c-17.333 0 -36.666 -11.333 -57.999 -34l-19 11c35.333 58.667 71.666 88 108.999 88c16 0 39.667 -4.66699 71 -14s55.333 -14 72 -14c18 0 37.333 9.66699 58 29z" />
    <glyph glyph-name="Ograve" unicode="&#xd2;" horiz-adv-x="802" 
d="M400 -17c-101.333 0 -185.667 33 -253 99s-101 149.667 -101 251c0 102.667 33.5 186.667 100.5 252s151.5 98 253.5 98c102.667 0 187.5 -32.667 254.5 -98s100.5 -149.333 100.5 -252c0 -101.333 -33.833 -185 -101.5 -251s-152.167 -99 -253.5 -99zM399.999 18
c44 0 82.001 9 114.001 27s56.833 42.5 74.5 73.5s30.5 64.333 38.5 100s12 74.167 12 115.5s-4 79.833 -12 115.5s-20.833 69.167 -38.5 100.5s-42.5 56 -74.5 74s-70 27 -114 27c-35.333 0 -66.833 -6.16699 -94.5 -18.5s-50.5 -28.5 -68.5 -48.5
s-32.833 -43.833 -44.5 -71.5s-19.834 -56.167 -24.501 -85.5s-7 -60.333 -7 -93c0 -41.333 4 -79.833 12 -115.5s20.833 -69 38.5 -100s42.5 -55.5 74.5 -73.5s70 -27 114 -27zM441 843l52 -124.001c0.666992 -1.33301 1 -3 1 -5v-1c0 -4 -4 -6 -12 -6
c-2.66699 0.666992 -6.66699 2.33398 -12 5.00098l-158 114c-4 2.66699 -6 5.66699 -6 9c0 5.33301 4 8 12 8h123z" />
    <glyph glyph-name="Oacute" unicode="&#xd3;" horiz-adv-x="802" 
d="M400 -17c-101.333 0 -185.667 33 -253 99s-101 149.667 -101 251c0 102.667 33.5 186.667 100.5 252s151.5 98 253.5 98c102.667 0 187.5 -32.667 254.5 -98s100.5 -149.333 100.5 -252c0 -101.333 -33.833 -185 -101.5 -251s-152.167 -99 -253.5 -99zM399.999 18
c44 0 82.001 9 114.001 27s56.833 42.5 74.5 73.5s30.5 64.333 38.5 100s12 74.167 12 115.5s-4 79.833 -12 115.5s-20.833 69.167 -38.5 100.5s-42.5 56 -74.5 74s-70 27 -114 27c-35.333 0 -66.833 -6.16699 -94.5 -18.5s-50.5 -28.5 -68.5 -48.5
s-32.833 -43.833 -44.5 -71.5s-19.834 -56.167 -24.501 -85.5s-7 -60.333 -7 -93c0 -41.333 4 -79.833 12 -115.5s20.833 -69 38.5 -100s42.5 -55.5 74.5 -73.5s70 -27 114 -27zM359 843l123 0.000976562c8 0 12 -2.66699 12 -8c0 -3.33301 -2 -6.33301 -6 -9l-158 -114
c-5.33301 -2.66699 -9.33301 -4.33398 -12 -5.00098c-8 0 -12 2 -12 6v1c0 2 0.333008 3.66699 1 5z" />
    <glyph glyph-name="Ocircumflex" unicode="&#xd4;" horiz-adv-x="802" 
d="M400 -17c-101.333 0 -185.667 33 -253 99s-101 149.667 -101 251c0 102.667 33.5 186.667 100.5 252s151.5 98 253.5 98c102.667 0 187.5 -32.667 254.5 -98s100.5 -149.333 100.5 -252c0 -101.333 -33.833 -185 -101.5 -251s-152.167 -99 -253.5 -99zM399.999 18
c44 0 82.001 9 114.001 27s56.833 42.5 74.5 73.5s30.5 64.333 38.5 100s12 74.167 12 115.5s-4 79.833 -12 115.5s-20.833 69.167 -38.5 100.5s-42.5 56 -74.5 74s-70 27 -114 27c-35.333 0 -66.833 -6.16699 -94.5 -18.5s-50.5 -28.5 -68.5 -48.5
s-32.833 -43.833 -44.5 -71.5s-19.834 -56.167 -24.501 -85.5s-7 -60.333 -7 -93c0 -41.333 4 -79.833 12 -115.5s20.833 -69 38.5 -100s42.5 -55.5 74.5 -73.5s70 -27 114 -27zM400 852l121.001 -119c4.66699 -4.66699 7 -8.66699 7 -12c0 -12 -5.33301 -18 -16 -18h-1
c-4 0 -9 2.33301 -15 7l-96 66l-95 -66c-6 -4.66699 -11 -7 -15 -7h-1c-8.66699 0 -14.334 5 -17.001 15c0 4.66699 2.66699 9.66699 8 15z" />
    <glyph glyph-name="Otilde" unicode="&#xd5;" horiz-adv-x="802" 
d="M400 -17c-101.333 0 -185.667 33 -253 99s-101 149.667 -101 251c0 102.667 33.5 186.667 100.5 252s151.5 98 253.5 98c102.667 0 187.5 -32.667 254.5 -98s100.5 -149.333 100.5 -252c0 -101.333 -33.833 -185 -101.5 -251s-152.167 -99 -253.5 -99zM399.999 18
c44 0 82.001 9 114.001 27s56.833 42.5 74.5 73.5s30.5 64.333 38.5 100s12 74.167 12 115.5s-4 79.833 -12 115.5s-20.833 69.167 -38.5 100.5s-42.5 56 -74.5 74s-70 27 -114 27c-35.333 0 -66.833 -6.16699 -94.5 -18.5s-50.5 -28.5 -68.5 -48.5
s-32.833 -43.833 -44.5 -71.5s-19.834 -56.167 -24.501 -85.5s-7 -60.333 -7 -93c0 -41.333 4 -79.833 12 -115.5s20.833 -69 38.5 -100s42.5 -55.5 74.5 -73.5s70 -27 114 -27zM547 822l17 -12c-34 -52.667 -69.667 -79.667 -107 -81c-16.667 0 -40.667 4.5 -72 13.5
s-55 13.5 -71 13.5c-17.333 0 -36.666 -11.333 -57.999 -34l-19 11c35.333 58.667 71.666 88 108.999 88c16 0 39.667 -4.66699 71 -14s55.333 -14 72 -14c18 0 37.333 9.66699 58 29z" />
    <glyph glyph-name="Odieresis" unicode="&#xd6;" horiz-adv-x="802" 
d="M400 -17c-101.333 0 -185.667 33 -253 99s-101 149.667 -101 251c0 102.667 33.5 186.667 100.5 252s151.5 98 253.5 98c102.667 0 187.5 -32.667 254.5 -98s100.5 -149.333 100.5 -252c0 -101.333 -33.833 -185 -101.5 -251s-152.167 -99 -253.5 -99zM399.999 18
c44 0 82.001 9 114.001 27s56.833 42.5 74.5 73.5s30.5 64.333 38.5 100s12 74.167 12 115.5s-4 79.833 -12 115.5s-20.833 69.167 -38.5 100.5s-42.5 56 -74.5 74s-70 27 -114 27c-35.333 0 -66.833 -6.16699 -94.5 -18.5s-50.5 -28.5 -68.5 -48.5
s-32.833 -43.833 -44.5 -71.5s-19.834 -56.167 -24.501 -85.5s-7 -60.333 -7 -93c0 -41.333 4 -79.833 12 -115.5s20.833 -69 38.5 -100s42.5 -55.5 74.5 -73.5s70 -27 114 -27zM249 770c0 16.667 5.83301 30.834 17.5 42.501s25.834 17.5 42.501 17.5
s30.834 -5.83301 42.501 -17.5s17.5 -25.834 17.5 -42.501s-5.83301 -30.834 -17.5 -42.501s-25.834 -17.5 -42.501 -17.5s-30.834 5.83301 -42.501 17.5s-17.5 25.834 -17.5 42.501zM432 770c0 16.667 6 30.834 18 42.501s26 17.5 42 17.5
c16.667 0 30.834 -5.83301 42.501 -17.5s17.5 -25.834 17.5 -42.501s-5.83301 -30.834 -17.5 -42.501s-25.834 -17.5 -42.501 -17.5c-16 0 -30 5.83301 -42 17.5s-18 25.834 -18 42.501z" />
    <glyph glyph-name="multiply" unicode="&#xd7;" 
d="M94 536l156 -156l156 157l36 -36l-157 -156l156 -156l-34 -35l-156 156l-157 -157l-36 36l157 157l-156 155z" />
    <glyph glyph-name="Oslash" unicode="&#xd8;" horiz-adv-x="802" 
d="M640 598l3 -2c74.667 -68 112 -155.667 112 -263c0 -102 -33.5 -185.833 -100.5 -251.5s-151.833 -98.5 -254.5 -98.5c-82 0 -153 21.333 -213 64l-68 -83l-30 24l69 83c-2 1.33301 -5 4 -9 8c-68.667 68 -103 152.667 -103 254c0 102.667 33.5 186.667 100.5 252
s151.5 98 253.5 98c82 0 152.333 -20.667 211 -62l68 84l30 -24zM593 546l-361 -458c40.667 -46.667 96.667 -70 168 -70c44 0 82 9 114 27s56.833 42.5 74.5 73.5s30.5 64.333 38.5 100s12 74.167 12 115.5c0 91.333 -15.333 162 -46 212zM209 119l360.999 459.001
c-44 48.667 -100.667 73 -170 73c-43.333 0 -81.166 -9 -113.499 -27s-57.333 -42.5 -75 -73.5s-30.5 -64.5 -38.5 -100.5s-12 -74.667 -12 -116c0 -90.667 16 -162.334 48 -215.001z" />
    <glyph glyph-name="Ugrave" unicode="&#xd9;" horiz-adv-x="698" 
d="M444 666l241.004 0.000976562v-30c-38.667 -3.33301 -64.334 -8.66602 -77.001 -15.999c-16 -9.33301 -24 -33 -24 -71v-322c0 -78 -15 -138.167 -45 -180.5s-83.333 -63.5 -160 -63.5c-50 0 -90.333 3 -121 9s-57.667 17.667 -81 35s-39.833 41.666 -49.5 72.999
s-14.5 72.333 -14.5 123v332c0 18.667 -1.83301 33.334 -5.5 44.001s-10.667 18.667 -21 24s-20 8.66602 -29 9.99902s-23.833 2.33301 -44.5 3v30h300v-30c-2.66699 0 -8.33398 -0.166992 -17.001 -0.5s-14.667 -0.5 -18 -0.5s-8.83301 -0.666992 -16.5 -2
s-13.167 -3 -16.5 -5s-7.5 -5 -12.5 -9s-8.66699 -8.83301 -11 -14.5s-4.33301 -12.667 -6 -21s-2.5 -17.833 -2.5 -28.5v-320c0 -28 1 -51.833 3 -71.5s6.16699 -39.334 12.5 -59.001s15.5 -35.334 27.5 -47.001s28.167 -21.167 48.5 -28.5s45.166 -11 74.499 -11
c33.333 0 61.166 5.16699 83.499 15.5s39.333 25.5 51 45.5s19.667 41.5 24 64.5s6.5 50.5 6.5 82.5v9v314c0 34 -7.5 56.333 -22.5 67s-40.833 17.334 -77.5 20.001v30zM390.004 843.001l52 -124.001c0.666992 -1.33301 1 -3 1 -5v-1c0 -4 -4 -6 -12 -6
c-2.66699 0.666992 -6.66699 2.33398 -12 5.00098l-158 114c-4 2.66699 -6 5.66699 -6 9c0 5.33301 4 8 12 8h123z" />
    <glyph glyph-name="Uacute" unicode="&#xda;" horiz-adv-x="698" 
d="M444 666l241.004 0.000976562v-30c-38.667 -3.33301 -64.334 -8.66602 -77.001 -15.999c-16 -9.33301 -24 -33 -24 -71v-322c0 -78 -15 -138.167 -45 -180.5s-83.333 -63.5 -160 -63.5c-50 0 -90.333 3 -121 9s-57.667 17.667 -81 35s-39.833 41.666 -49.5 72.999
s-14.5 72.333 -14.5 123v332c0 18.667 -1.83301 33.334 -5.5 44.001s-10.667 18.667 -21 24s-20 8.66602 -29 9.99902s-23.833 2.33301 -44.5 3v30h300v-30c-2.66699 0 -8.33398 -0.166992 -17.001 -0.5s-14.667 -0.5 -18 -0.5s-8.83301 -0.666992 -16.5 -2
s-13.167 -3 -16.5 -5s-7.5 -5 -12.5 -9s-8.66699 -8.83301 -11 -14.5s-4.33301 -12.667 -6 -21s-2.5 -17.833 -2.5 -28.5v-320c0 -28 1 -51.833 3 -71.5s6.16699 -39.334 12.5 -59.001s15.5 -35.334 27.5 -47.001s28.167 -21.167 48.5 -28.5s45.166 -11 74.499 -11
c33.333 0 61.166 5.16699 83.499 15.5s39.333 25.5 51 45.5s19.667 41.5 24 64.5s6.5 50.5 6.5 82.5v9v314c0 34 -7.5 56.333 -22.5 67s-40.833 17.334 -77.5 20.001v30zM307.004 843.001l123 0.000976562c8 0 12 -2.66699 12 -8c0 -3.33301 -2 -6.33301 -6 -9l-158 -114
c-5.33301 -2.66699 -9.33301 -4.33398 -12 -5.00098c-8 0 -12 2 -12 6v1c0 2 0.333008 3.66699 1 5z" />
    <glyph glyph-name="Ucircumflex" unicode="&#xdb;" horiz-adv-x="698" 
d="M444 666l241.004 0.000976562v-30c-38.667 -3.33301 -64.334 -8.66602 -77.001 -15.999c-16 -9.33301 -24 -33 -24 -71v-322c0 -78 -15 -138.167 -45 -180.5s-83.333 -63.5 -160 -63.5c-50 0 -90.333 3 -121 9s-57.667 17.667 -81 35s-39.833 41.666 -49.5 72.999
s-14.5 72.333 -14.5 123v332c0 18.667 -1.83301 33.334 -5.5 44.001s-10.667 18.667 -21 24s-20 8.66602 -29 9.99902s-23.833 2.33301 -44.5 3v30h300v-30c-2.66699 0 -8.33398 -0.166992 -17.001 -0.5s-14.667 -0.5 -18 -0.5s-8.83301 -0.666992 -16.5 -2
s-13.167 -3 -16.5 -5s-7.5 -5 -12.5 -9s-8.66699 -8.83301 -11 -14.5s-4.33301 -12.667 -6 -21s-2.5 -17.833 -2.5 -28.5v-320c0 -28 1 -51.833 3 -71.5s6.16699 -39.334 12.5 -59.001s15.5 -35.334 27.5 -47.001s28.167 -21.167 48.5 -28.5s45.166 -11 74.499 -11
c33.333 0 61.166 5.16699 83.499 15.5s39.333 25.5 51 45.5s19.667 41.5 24 64.5s6.5 50.5 6.5 82.5v9v314c0 34 -7.5 56.333 -22.5 67s-40.833 17.334 -77.5 20.001v30zM348.004 852.001l121.001 -119c4.66699 -4.66699 7 -8.66699 7 -12c0 -12 -5.33301 -18 -16 -18h-1
c-4 0 -9 2.33301 -15 7l-96 66l-95 -66c-6 -4.66699 -11 -7 -15 -7h-1c-8.66699 0 -14.334 5 -17.001 15c0 4.66699 2.66699 9.66699 8 15z" />
    <glyph glyph-name="Udieresis" unicode="&#xdc;" horiz-adv-x="698" 
d="M444 666l241.004 0.000976562v-30c-38.667 -3.33301 -64.334 -8.66602 -77.001 -15.999c-16 -9.33301 -24 -33 -24 -71v-322c0 -78 -15 -138.167 -45 -180.5s-83.333 -63.5 -160 -63.5c-50 0 -90.333 3 -121 9s-57.667 17.667 -81 35s-39.833 41.666 -49.5 72.999
s-14.5 72.333 -14.5 123v332c0 18.667 -1.83301 33.334 -5.5 44.001s-10.667 18.667 -21 24s-20 8.66602 -29 9.99902s-23.833 2.33301 -44.5 3v30h300v-30c-2.66699 0 -8.33398 -0.166992 -17.001 -0.5s-14.667 -0.5 -18 -0.5s-8.83301 -0.666992 -16.5 -2
s-13.167 -3 -16.5 -5s-7.5 -5 -12.5 -9s-8.66699 -8.83301 -11 -14.5s-4.33301 -12.667 -6 -21s-2.5 -17.833 -2.5 -28.5v-320c0 -28 1 -51.833 3 -71.5s6.16699 -39.334 12.5 -59.001s15.5 -35.334 27.5 -47.001s28.167 -21.167 48.5 -28.5s45.166 -11 74.499 -11
c33.333 0 61.166 5.16699 83.499 15.5s39.333 25.5 51 45.5s19.667 41.5 24 64.5s6.5 50.5 6.5 82.5v9v314c0 34 -7.5 56.333 -22.5 67s-40.833 17.334 -77.5 20.001v30zM197.004 770.001c0 16.667 5.83301 30.834 17.5 42.501s25.834 17.5 42.501 17.5
s30.834 -5.83301 42.501 -17.5s17.5 -25.834 17.5 -42.501s-5.83301 -30.834 -17.5 -42.501s-25.834 -17.5 -42.501 -17.5s-30.834 5.83301 -42.501 17.5s-17.5 25.834 -17.5 42.501zM380.004 770.001c0 16.667 6 30.834 18 42.501s26 17.5 42 17.5
c16.667 0 30.834 -5.83301 42.501 -17.5s17.5 -25.834 17.5 -42.501s-5.83301 -30.834 -17.5 -42.501s-25.834 -17.5 -42.501 -17.5c-16 0 -30 5.83301 -42 17.5s-18 25.834 -18 42.501z" />
    <glyph glyph-name="Yacute" unicode="&#xdd;" horiz-adv-x="663" 
d="M381 297l0.000976562 -186.001c0 -18 2.16699 -32.5 6.5 -43.5s11.5 -19 21.5 -24s19.833 -8.16699 29.5 -9.5s23.834 -2.33301 42.501 -3v-31h-298v31c20 0.666992 34.833 1.83398 44.5 3.50098s19.5 5 29.5 10s16.833 12.833 20.5 23.5s5.5 25 5.5 43v186l-183 285
c-12.667 19.333 -26.834 32.833 -42.501 40.5s-35.834 12.167 -60.501 13.5v31h286v-31h-25c-32 0 -48 -8.33301 -48 -25c0 -6 3 -15.667 9 -29l143 -246l149 246c6 12 9 20.667 9 26c0 18.667 -30.667 28 -92 28v31h239v-31c-28 -1.33301 -51.333 -6.83301 -70 -16.5
s-34.667 -25.5 -48 -47.5zM291.001 842.999l123 0.000976562c8 0 12 -2.66699 12 -8c0 -3.33301 -2 -6.33301 -6 -9l-158 -114c-5.33301 -2.66699 -9.33301 -4.33398 -12 -5.00098c-8 0 -12 2 -12 6v1c0 2 0.333008 3.66699 1 5z" />
    <glyph glyph-name="Thorn" unicode="&#xde;" horiz-adv-x="536" 
d="M13 667l299.996 -0.000976562v-31c-43.333 -2 -71.333 -8 -84 -18c-10.667 -8 -16 -19.333 -16 -34v-24c8 0 20 0.166992 36 0.5s28 0.5 36 0.5c27.333 0 52 -1.16699 74 -3.5s44.5 -7.33301 67.5 -15s42 -17.667 57 -30s27.5 -29.5 37.5 -51.5s15 -47.667 15 -77
c0 -31.333 -7.33301 -60.333 -22 -87s-35.334 -47 -62.001 -61c-30 -16.667 -77.333 -25 -142 -25h-97v-100c0 -18.667 1.83301 -33.334 5.5 -44.001s10.834 -18.5 21.501 -23.5s20.334 -8.16699 29.001 -9.5s23.334 -2.33301 44.001 -3v-31h-300v31
c20.667 0.666992 35.5 1.66699 44.5 3s18.667 4.5 29 9.5s17.333 12.833 21 23.5s5.5 25.334 5.5 44.001v445c0 17.333 -2.16699 31.5 -6.5 42.5s-11.666 19 -21.999 24s-20.166 8.33301 -29.499 10s-23.333 2.83398 -42 3.50098v31zM212.996 241.999h77c44 0 78 13 102 39
s36 61.333 36 106c0 53.333 -12.833 91 -38.5 113s-65.834 33 -120.501 33c-5.33301 0 -11.166 -0.166992 -17.499 -0.5s-13.333 -0.833008 -21 -1.5s-13.5 -1 -17.5 -1v-288z" />
    <glyph glyph-name="germandbls" unicode="&#xdf;" horiz-adv-x="531" 
d="M214 0l-195.003 0.00195312v31c25.333 0.666992 42.833 7.5 52.5 20.5s14.5 32.833 14.5 59.5v389c0 54 17.5 98 52.5 132s79.833 51 134.5 51c48 0 89.833 -14.167 125.5 -42.5s53.5 -65.833 53.5 -112.5c0 -34 -10.667 -61.167 -32 -81.5
s-50.666 -38.833 -87.999 -55.5c46 -12.667 82.667 -36.334 110 -71.001s41 -75.667 41 -123c0 -54 -15.333 -102.167 -46 -144.5s-72.334 -63.5 -125.001 -63.5c-18.667 0 -36.667 5.5 -54 16.5s-26 25.5 -26 43.5c0 9.33301 3.33301 17.666 10 24.999s14.667 11 24 11
c13.333 0 26.5 -10 39.5 -30s25.5 -30 37.5 -30c32.667 0 49 55.333 49 166c0 64.667 -12.167 110.334 -36.5 137.001s-68.166 40 -131.499 40v38c1.33301 0 3 -0.166992 5 -0.5s3.33301 -0.5 4 -0.5c42.667 0 75.834 10.5 99.501 31.5s35.5 52.5 35.5 94.5
c0 82.667 -35 124 -105 124c-62.667 0 -94 -37.667 -94 -113v-437c0 -12.667 0.333008 -22.167 1 -28.5s2.16699 -13.5 4.5 -21.5s6.83301 -13.833 13.5 -17.5s15.334 -5.83398 26.001 -6.50098v-31z" />
    <glyph glyph-name="agrave" unicode="&#xe0;" horiz-adv-x="452" 
d="M436 88l30.0029 0.00195312c-16.667 -66 -50 -99 -100 -99c-22.667 0 -41.167 6.16699 -55.5 18.5s-23.166 29.833 -26.499 52.5c-18 -20.667 -40.167 -37.5 -66.5 -50.5s-52.833 -19.5 -79.5 -19.5c-29.333 0 -53 9.5 -71 28.5s-27 43.5 -27 73.5
c0 26.667 5.16699 49 15.5 67s25 31.667 44 41s38 16.666 57 21.999s41.167 10.833 66.5 16.5s45.666 11.834 60.999 18.501v34c0 35.333 -4.83301 61.666 -14.5 78.999s-30.834 26 -63.501 26c-16.667 0 -29.834 -3.33301 -39.501 -10s-16.334 -15 -20.001 -25l-10.5 -29.5
c-3.33301 -9.66699 -8.5 -17.834 -15.5 -24.501s-16.833 -10 -29.5 -10c-10.667 0 -20.667 3 -30 9s-14 14 -14 24c0 21.333 10 39.833 30 55.5s41.667 26.5 65 32.5s45.333 9 66 9c106 0 159 -42.333 159 -127v-220c0 -28 8.66699 -42.667 26 -44c19.333 0 33 15 41 45
c1.33301 2.66699 2 5 2 7zM284.003 228.002c-9.33301 -4 -24.833 -9.33301 -46.5 -16s-39.5 -12.667 -53.5 -18s-27.333 -14.5 -40 -27.5s-19.667 -28.5 -21 -46.5c0 -20.667 6.33301 -38 19 -52s29.667 -21 51 -21c28.667 0 59 13.667 91 41v140zM267.003 608.002
l52 -124.001c0.666992 -1.33301 1 -3 1 -5v-1c0 -4 -4 -6 -12 -6c-2.66699 0.666992 -6.66699 2.33398 -12 5.00098l-158 114c-4 2.66699 -6 5.66699 -6 9c0 5.33301 4 8 12 8h123z" />
    <glyph glyph-name="aacute" unicode="&#xe1;" horiz-adv-x="452" 
d="M436 88l30.0029 0.00195312c-16.667 -66 -50 -99 -100 -99c-22.667 0 -41.167 6.16699 -55.5 18.5s-23.166 29.833 -26.499 52.5c-18 -20.667 -40.167 -37.5 -66.5 -50.5s-52.833 -19.5 -79.5 -19.5c-29.333 0 -53 9.5 -71 28.5s-27 43.5 -27 73.5
c0 26.667 5.16699 49 15.5 67s25 31.667 44 41s38 16.666 57 21.999s41.167 10.833 66.5 16.5s45.666 11.834 60.999 18.501v34c0 35.333 -4.83301 61.666 -14.5 78.999s-30.834 26 -63.501 26c-16.667 0 -29.834 -3.33301 -39.501 -10s-16.334 -15 -20.001 -25l-10.5 -29.5
c-3.33301 -9.66699 -8.5 -17.834 -15.5 -24.501s-16.833 -10 -29.5 -10c-10.667 0 -20.667 3 -30 9s-14 14 -14 24c0 21.333 10 39.833 30 55.5s41.667 26.5 65 32.5s45.333 9 66 9c106 0 159 -42.333 159 -127v-220c0 -28 8.66699 -42.667 26 -44c19.333 0 33 15 41 45
c1.33301 2.66699 2 5 2 7zM284.003 228.002c-9.33301 -4 -24.833 -9.33301 -46.5 -16s-39.5 -12.667 -53.5 -18s-27.333 -14.5 -40 -27.5s-19.667 -28.5 -21 -46.5c0 -20.667 6.33301 -38 19 -52s29.667 -21 51 -21c28.667 0 59 13.667 91 41v140zM185.003 608.002
l123 0.000976562c8 0 12 -2.66699 12 -8c0 -3.33301 -2 -6.33301 -6 -9l-158 -114c-5.33301 -2.66699 -9.33301 -4.33398 -12 -5.00098c-8 0 -12 2 -12 6v1c0 2 0.333008 3.66699 1 5z" />
    <glyph glyph-name="acircumflex" unicode="&#xe2;" horiz-adv-x="452" 
d="M436 88l30.0029 0.00195312c-16.667 -66 -50 -99 -100 -99c-22.667 0 -41.167 6.16699 -55.5 18.5s-23.166 29.833 -26.499 52.5c-18 -20.667 -40.167 -37.5 -66.5 -50.5s-52.833 -19.5 -79.5 -19.5c-29.333 0 -53 9.5 -71 28.5s-27 43.5 -27 73.5
c0 26.667 5.16699 49 15.5 67s25 31.667 44 41s38 16.666 57 21.999s41.167 10.833 66.5 16.5s45.666 11.834 60.999 18.501v34c0 35.333 -4.83301 61.666 -14.5 78.999s-30.834 26 -63.501 26c-16.667 0 -29.834 -3.33301 -39.501 -10s-16.334 -15 -20.001 -25l-10.5 -29.5
c-3.33301 -9.66699 -8.5 -17.834 -15.5 -24.501s-16.833 -10 -29.5 -10c-10.667 0 -20.667 3 -30 9s-14 14 -14 24c0 21.333 10 39.833 30 55.5s41.667 26.5 65 32.5s45.333 9 66 9c106 0 159 -42.333 159 -127v-220c0 -28 8.66699 -42.667 26 -44c19.333 0 33 15 41 45
c1.33301 2.66699 2 5 2 7zM284.003 228.002c-9.33301 -4 -24.833 -9.33301 -46.5 -16s-39.5 -12.667 -53.5 -18s-27.333 -14.5 -40 -27.5s-19.667 -28.5 -21 -46.5c0 -20.667 6.33301 -38 19 -52s29.667 -21 51 -21c28.667 0 59 13.667 91 41v140zM226.003 622.002
l121.001 -119c4.66699 -4.66699 7 -8.66699 7 -12c0 -12 -5.33301 -18 -16 -18h-1c-4 0 -9 2.33301 -15 7l-96 66l-95 -66c-6 -4.66699 -11 -7 -15 -7h-1c-8.66699 0 -14.334 5 -17.001 15c0 4.66699 2.66699 9.66699 8 15z" />
    <glyph glyph-name="atilde" unicode="&#xe3;" horiz-adv-x="452" 
d="M436 88l30.0029 0.00195312c-16.667 -66 -50 -99 -100 -99c-22.667 0 -41.167 6.16699 -55.5 18.5s-23.166 29.833 -26.499 52.5c-18 -20.667 -40.167 -37.5 -66.5 -50.5s-52.833 -19.5 -79.5 -19.5c-29.333 0 -53 9.5 -71 28.5s-27 43.5 -27 73.5
c0 26.667 5.16699 49 15.5 67s25 31.667 44 41s38 16.666 57 21.999s41.167 10.833 66.5 16.5s45.666 11.834 60.999 18.501v34c0 35.333 -4.83301 61.666 -14.5 78.999s-30.834 26 -63.501 26c-16.667 0 -29.834 -3.33301 -39.501 -10s-16.334 -15 -20.001 -25l-10.5 -29.5
c-3.33301 -9.66699 -8.5 -17.834 -15.5 -24.501s-16.833 -10 -29.5 -10c-10.667 0 -20.667 3 -30 9s-14 14 -14 24c0 21.333 10 39.833 30 55.5s41.667 26.5 65 32.5s45.333 9 66 9c106 0 159 -42.333 159 -127v-220c0 -28 8.66699 -42.667 26 -44c19.333 0 33 15 41 45
c1.33301 2.66699 2 5 2 7zM284.003 228.002c-9.33301 -4 -24.833 -9.33301 -46.5 -16s-39.5 -12.667 -53.5 -18s-27.333 -14.5 -40 -27.5s-19.667 -28.5 -21 -46.5c0 -20.667 6.33301 -38 19 -52s29.667 -21 51 -21c28.667 0 59 13.667 91 41v140zM373.003 593.002l17 -12
c-34 -52.667 -69.667 -79.667 -107 -81c-16.667 0 -40.667 4.5 -72 13.5s-55 13.5 -71 13.5c-17.333 0 -36.666 -11.333 -57.999 -34l-19 11c35.333 58.667 71.666 88 108.999 88c16 0 39.667 -4.66699 71 -14s55.333 -14 72 -14c18 0 37.333 9.66699 58 29z" />
    <glyph glyph-name="adieresis" unicode="&#xe4;" horiz-adv-x="452" 
d="M436 88l30.0029 0.00195312c-16.667 -66 -50 -99 -100 -99c-22.667 0 -41.167 6.16699 -55.5 18.5s-23.166 29.833 -26.499 52.5c-18 -20.667 -40.167 -37.5 -66.5 -50.5s-52.833 -19.5 -79.5 -19.5c-29.333 0 -53 9.5 -71 28.5s-27 43.5 -27 73.5
c0 26.667 5.16699 49 15.5 67s25 31.667 44 41s38 16.666 57 21.999s41.167 10.833 66.5 16.5s45.666 11.834 60.999 18.501v34c0 35.333 -4.83301 61.666 -14.5 78.999s-30.834 26 -63.501 26c-16.667 0 -29.834 -3.33301 -39.501 -10s-16.334 -15 -20.001 -25l-10.5 -29.5
c-3.33301 -9.66699 -8.5 -17.834 -15.5 -24.501s-16.833 -10 -29.5 -10c-10.667 0 -20.667 3 -30 9s-14 14 -14 24c0 21.333 10 39.833 30 55.5s41.667 26.5 65 32.5s45.333 9 66 9c106 0 159 -42.333 159 -127v-220c0 -28 8.66699 -42.667 26 -44c19.333 0 33 15 41 45
c1.33301 2.66699 2 5 2 7zM284.003 228.002c-9.33301 -4 -24.833 -9.33301 -46.5 -16s-39.5 -12.667 -53.5 -18s-27.333 -14.5 -40 -27.5s-19.667 -28.5 -21 -46.5c0 -20.667 6.33301 -38 19 -52s29.667 -21 51 -21c28.667 0 59 13.667 91 41v140zM75.0029 533.002
c0 16.667 5.83301 30.834 17.5 42.501s25.834 17.5 42.501 17.5s30.834 -5.83301 42.501 -17.5s17.5 -25.834 17.5 -42.501s-5.83301 -30.834 -17.5 -42.501s-25.834 -17.5 -42.501 -17.5s-30.834 5.83301 -42.501 17.5s-17.5 25.834 -17.5 42.501zM258.003 533.002
c0 16.667 6 30.834 18 42.501s26 17.5 42 17.5c16.667 0 30.834 -5.83301 42.501 -17.5s17.5 -25.834 17.5 -42.501s-5.83301 -30.834 -17.5 -42.501s-25.834 -17.5 -42.501 -17.5c-16 0 -30 5.83301 -42 17.5s-18 25.834 -18 42.501z" />
    <glyph glyph-name="aring" unicode="&#xe5;" horiz-adv-x="452" 
d="M436 88l30.0029 0.00195312c-16.667 -66 -50 -99 -100 -99c-22.667 0 -41.167 6.16699 -55.5 18.5s-23.166 29.833 -26.499 52.5c-18 -20.667 -40.167 -37.5 -66.5 -50.5s-52.833 -19.5 -79.5 -19.5c-29.333 0 -53 9.5 -71 28.5s-27 43.5 -27 73.5
c0 26.667 5.16699 49 15.5 67s25 31.667 44 41s38 16.666 57 21.999s41.167 10.833 66.5 16.5s45.666 11.834 60.999 18.501v34c0 35.333 -4.83301 61.666 -14.5 78.999s-30.834 26 -63.501 26c-16.667 0 -29.834 -3.33301 -39.501 -10s-16.334 -15 -20.001 -25l-10.5 -29.5
c-3.33301 -9.66699 -8.5 -17.834 -15.5 -24.501s-16.833 -10 -29.5 -10c-10.667 0 -20.667 3 -30 9s-14 14 -14 24c0 21.333 10 39.833 30 55.5s41.667 26.5 65 32.5s45.333 9 66 9c106 0 159 -42.333 159 -127v-220c0 -28 8.66699 -42.667 26 -44c19.333 0 33 15 41 45
c1.33301 2.66699 2 5 2 7zM284.003 228.002c-9.33301 -4 -24.833 -9.33301 -46.5 -16s-39.5 -12.667 -53.5 -18s-27.333 -14.5 -40 -27.5s-19.667 -28.5 -21 -46.5c0 -20.667 6.33301 -38 19 -52s29.667 -21 51 -21c28.667 0 59 13.667 91 41v140zM226.003 468.002
c-22.667 0 -42.5 8.33301 -59.5 25s-25.5 36.667 -25.5 60s8.5 43.333 25.5 60s36.833 25 59.5 25c23.333 0 43.333 -8.66699 60 -26s25 -38 25 -62c0 -22.667 -8.5 -42 -25.5 -58s-36.833 -24 -59.5 -24zM226.003 507.002c12.667 0 23.5 4.5 32.5 13.5
s13.5 19.833 13.5 32.5s-4.5 23.5 -13.5 32.5s-19.833 13.5 -32.5 13.5s-23.5 -4.5 -32.5 -13.5s-13.5 -19.833 -13.5 -32.5s4.5 -23.5 13.5 -32.5s19.833 -13.5 32.5 -13.5z" />
    <glyph glyph-name="ae" unicode="&#xe6;" horiz-adv-x="687" 
d="M649 230l-280.001 -0.000976562c0 -2 -0.166992 -4.5 -0.5 -7.5s-0.5 -5.16699 -0.5 -6.5c0 -23.333 1.83301 -45.166 5.5 -65.499s10 -40.166 19 -59.499s22.333 -34.5 40 -45.5s38.834 -16.5 63.501 -16.5c25.333 0 47.166 6.5 65.499 19.5s38.166 31.833 59.499 56.5
l28 -16c-16.667 -30.667 -40 -55 -70 -73s-62.667 -27 -98 -27c-34 0 -66.167 7.33301 -96.5 22s-55.166 35.667 -74.499 63c-16.667 -24.667 -40.667 -45 -72 -61s-62 -24 -92 -24c-31.333 0 -56.833 10.167 -76.5 30.5s-29.5 46.166 -29.5 77.499c0 52 18 87.667 54 107
c52.667 27.333 117 45.666 193 54.999c0 15.333 -0.166992 27.833 -0.5 37.5s-2 21.334 -5 35.001s-7.16699 24.5 -12.5 32.5s-13.166 15 -23.499 21s-22.833 9 -37.5 9c-20 0 -35.167 -5.16699 -45.5 -15.5s-16.666 -21.5 -18.999 -33.5s-7.5 -23.167 -15.5 -33.5
s-20.333 -15.5 -37 -15.5c-10 0 -19.5 2.33301 -28.5 7s-13.833 11.667 -14.5 21c0 32.667 17 58 51 76s69 27 105 27c31.333 0 57.666 -4 78.999 -12s41.333 -22.667 60 -44c36 37.333 79.333 56 130 56c55.333 0 98.5 -18.667 129.5 -56s46.5 -84.333 46.5 -141z
M560.999 258.999c0 39.333 -6.16797 71.168 -18.501 95.501s-36.166 36.5 -71.499 36.5c-33.333 0 -58 -12.833 -74 -38.5s-25 -56.834 -27 -93.501h191zM286.998 230.001c-59.333 -13.333 -99.333 -26.668 -120 -40.001c-29.333 -18 -44 -42.333 -44 -73
c0 -22 5.66699 -40 17 -54s27.666 -21 48.999 -21s42.5 5.83301 63.5 17.5s35.5 26.834 43.5 45.501c-3.33301 8 -5.66602 20.667 -6.99902 38c-1.33301 19.333 -2 48.333 -2 87z" />
    <glyph glyph-name="ccedilla" unicode="&#xe7;" horiz-adv-x="433" 
d="M381 107l30.001 -10.9971c-12 -34.667 -32.833 -61.334 -62.5 -80.001s-63.5 -28 -101.5 -28l-13 -44c22.667 -4.66699 42 -13.334 58 -26.001s24 -29.667 24 -51c0 -26.667 -10 -48.334 -30 -65.001s-43.667 -25 -71 -25c-30 0 -60.333 9.66699 -91 29l14 22
c24 -12.667 44.667 -19 62 -19c14.667 0 27.334 5.33301 38.001 16s16 23.334 16 38.001c0 26.667 -19.333 46.334 -58 59.001l22 66c-56.667 11.333 -100.667 34.166 -132 68.499s-47 80.166 -47 137.499c0 66 18.667 121.333 56 166s88.333 67 153 67
c17.333 0 36.5 -2.66699 57.5 -8s40.5 -14.5 58.5 -27.5s27 -28.5 27 -46.5c0 -10.667 -3.83301 -19.667 -11.5 -27s-16.834 -11 -27.501 -11c-12.667 0 -24.334 4.66699 -35.001 14c-2 24.667 -8.16699 42.667 -18.5 54s-27.833 17 -52.5 17c-27.333 0 -50 -9.5 -68 -28.5
s-30.167 -40.667 -36.5 -65s-9.5 -49.833 -9.5 -76.5c0 -30.667 4 -59.667 12 -87s22.5 -51.833 43.5 -73.5s47.167 -32.5 78.5 -32.5c50 0 88.333 26 115 78z" />
    <glyph glyph-name="egrave" unicode="&#xe8;" horiz-adv-x="454" 
d="M416 223l-285.001 -0.000976562c0 -130.667 42.667 -196 128 -196c49.333 0 92 25.333 128 76l29 -16c-41.333 -65.333 -98.666 -98 -171.999 -98c-61.333 0 -110.666 20.167 -147.999 60.5s-56 91.5 -56 153.5s18.167 114.833 54.5 158.5s85.166 65.5 146.499 65.5
c54 0 96.667 -20.167 128 -60.5s47 -88.166 47 -143.499zM326.999 257.999c0 0.666992 0.166992 2.16895 0.5 4.50195s0.5 4.16602 0.5 5.49902c0 81.333 -30.667 122 -92 122c-34 0 -59.5 -12.833 -76.5 -38.5s-26.167 -56.834 -27.5 -93.501h195zM267.999 608.001
l52 -124.001c0.666992 -1.33301 1 -3 1 -5v-1c0 -4 -4 -6 -12 -6c-2.66699 0.666992 -6.66699 2.33398 -12 5.00098l-158 114c-4 2.66699 -6 5.66699 -6 9c0 5.33301 4 8 12 8h123z" />
    <glyph glyph-name="eacute" unicode="&#xe9;" horiz-adv-x="454" 
d="M416 223l-285.001 -0.000976562c0 -130.667 42.667 -196 128 -196c49.333 0 92 25.333 128 76l29 -16c-41.333 -65.333 -98.666 -98 -171.999 -98c-61.333 0 -110.666 20.167 -147.999 60.5s-56 91.5 -56 153.5s18.167 114.833 54.5 158.5s85.166 65.5 146.499 65.5
c54 0 96.667 -20.167 128 -60.5s47 -88.166 47 -143.499zM326.999 257.999c0 0.666992 0.166992 2.16895 0.5 4.50195s0.5 4.16602 0.5 5.49902c0 81.333 -30.667 122 -92 122c-34 0 -59.5 -12.833 -76.5 -38.5s-26.167 -56.834 -27.5 -93.501h195zM185.999 608.001
l123 0.000976562c8 0 12 -2.66699 12 -8c0 -3.33301 -2 -6.33301 -6 -9l-158 -114c-5.33301 -2.66699 -9.33301 -4.33398 -12 -5.00098c-8 0 -12 2 -12 6v1c0 2 0.333008 3.66699 1 5z" />
    <glyph glyph-name="ecircumflex" unicode="&#xea;" horiz-adv-x="454" 
d="M416 223l-285.001 -0.000976562c0 -130.667 42.667 -196 128 -196c49.333 0 92 25.333 128 76l29 -16c-41.333 -65.333 -98.666 -98 -171.999 -98c-61.333 0 -110.666 20.167 -147.999 60.5s-56 91.5 -56 153.5s18.167 114.833 54.5 158.5s85.166 65.5 146.499 65.5
c54 0 96.667 -20.167 128 -60.5s47 -88.166 47 -143.499zM326.999 257.999c0 0.666992 0.166992 2.16895 0.5 4.50195s0.5 4.16602 0.5 5.49902c0 81.333 -30.667 122 -92 122c-34 0 -59.5 -12.833 -76.5 -38.5s-26.167 -56.834 -27.5 -93.501h195zM226.999 622.001
l121.001 -119c4.66699 -4.66699 7 -8.66699 7 -12c0 -12 -5.33301 -18 -16 -18h-1c-4 0 -9 2.33301 -15 7l-96 66l-95 -66c-6 -4.66699 -11 -7 -15 -7h-1c-8.66699 0 -14.334 5 -17.001 15c0 4.66699 2.66699 9.66699 8 15z" />
    <glyph glyph-name="edieresis" unicode="&#xeb;" horiz-adv-x="454" 
d="M416 223l-285.001 -0.000976562c0 -130.667 42.667 -196 128 -196c49.333 0 92 25.333 128 76l29 -16c-41.333 -65.333 -98.666 -98 -171.999 -98c-61.333 0 -110.666 20.167 -147.999 60.5s-56 91.5 -56 153.5s18.167 114.833 54.5 158.5s85.166 65.5 146.499 65.5
c54 0 96.667 -20.167 128 -60.5s47 -88.166 47 -143.499zM326.999 257.999c0 0.666992 0.166992 2.16895 0.5 4.50195s0.5 4.16602 0.5 5.49902c0 81.333 -30.667 122 -92 122c-34 0 -59.5 -12.833 -76.5 -38.5s-26.167 -56.834 -27.5 -93.501h195zM75.999 533.001
c0 16.667 5.83301 30.834 17.5 42.501s25.834 17.5 42.501 17.5s30.834 -5.83301 42.501 -17.5s17.5 -25.834 17.5 -42.501s-5.83301 -30.834 -17.5 -42.501s-25.834 -17.5 -42.501 -17.5s-30.834 5.83301 -42.501 17.5s-17.5 25.834 -17.5 42.501zM258.999 533.001
c0 16.667 6 30.834 18 42.501s26 17.5 42 17.5c16.667 0 30.834 -5.83301 42.501 -17.5s17.5 -25.834 17.5 -42.501s-5.83301 -30.834 -17.5 -42.501s-25.834 -17.5 -42.501 -17.5c-16 0 -30 5.83301 -42 17.5s-18 25.834 -18 42.501z" />
    <glyph glyph-name="igrave" unicode="&#xec;" horiz-adv-x="243" 
d="M163 422v-311c0 -26.667 4.83301 -46.5 14.5 -59.5s27.167 -19.833 52.5 -20.5v-31h-217v31c25.333 0.666992 42.833 7.5 52.5 20.5s14.5 32.833 14.5 59.5v172c0 26 -5 45.833 -15 59.5s-27.333 20.834 -52 21.501v30c40 5.33301 90 14.666 150 27.999zM162 608
l52 -124.001c0.666992 -1.33301 1 -3 1 -5v-1c0 -4 -4 -6 -12 -6c-2.66699 0.666992 -6.66699 2.33398 -12 5.00098l-158 114c-4 2.66699 -6 5.66699 -6 9c0 5.33301 4 8 12 8h123z" />
    <glyph glyph-name="iacute" unicode="&#xed;" horiz-adv-x="243" 
d="M163 422v-311c0 -26.667 4.83301 -46.5 14.5 -59.5s27.167 -19.833 52.5 -20.5v-31h-217v31c25.333 0.666992 42.833 7.5 52.5 20.5s14.5 32.833 14.5 59.5v172c0 26 -5 45.833 -15 59.5s-27.333 20.834 -52 21.501v30c40 5.33301 90 14.666 150 27.999zM80 608
l123 0.000976562c8 0 12 -2.66699 12 -8c0 -3.33301 -2 -6.33301 -6 -9l-158 -114c-5.33301 -2.66699 -9.33301 -4.33398 -12 -5.00098c-8 0 -12 2 -12 6v1c0 2 0.333008 3.66699 1 5z" />
    <glyph glyph-name="icircumflex" unicode="&#xee;" horiz-adv-x="243" 
d="M163 422v-311c0 -26.667 4.83301 -46.5 14.5 -59.5s27.167 -19.833 52.5 -20.5v-31h-217v31c25.333 0.666992 42.833 7.5 52.5 20.5s14.5 32.833 14.5 59.5v172c0 26 -5 45.833 -15 59.5s-27.333 20.834 -52 21.501v30c40 5.33301 90 14.666 150 27.999zM121 622
l121.001 -119c4.66699 -4.66699 7 -8.66699 7 -12c0 -12 -5.33301 -18 -16 -18h-1c-4 0 -9 2.33301 -15 7l-96 66l-95 -66c-6 -4.66699 -11 -7 -15 -7h-1c-8.66699 0 -14.334 5 -17.001 15c0 4.66699 2.66699 9.66699 8 15z" />
    <glyph glyph-name="idieresis" unicode="&#xef;" horiz-adv-x="243" 
d="M163 422v-311c0 -26.667 4.83301 -46.5 14.5 -59.5s27.167 -19.833 52.5 -20.5v-31h-217v31c25.333 0.666992 42.833 7.5 52.5 20.5s14.5 32.833 14.5 59.5v172c0 26 -5 45.833 -15 59.5s-27.333 20.834 -52 21.501v30c40 5.33301 90 14.666 150 27.999zM-30 532
c0 16.667 5.83301 30.834 17.5 42.501s25.834 17.5 42.501 17.5s30.834 -5.83301 42.501 -17.5s17.5 -25.834 17.5 -42.501s-5.83301 -30.834 -17.5 -42.501s-25.834 -17.5 -42.501 -17.5s-30.834 5.83301 -42.501 17.5s-17.5 25.834 -17.5 42.501zM153 532
c0 16.667 6 30.834 18 42.501s26 17.5 42 17.5c16.667 0 30.834 -5.83301 42.501 -17.5s17.5 -25.834 17.5 -42.501s-5.83301 -30.834 -17.5 -42.501s-25.834 -17.5 -42.501 -17.5c-16 0 -30 5.83301 -42 17.5s-18 25.834 -18 42.501z" />
    <glyph glyph-name="eth" unicode="&#xf0;" horiz-adv-x="513" 
d="M374 717l18.999 -31l-97 -60c118.667 -92.667 178 -221.667 178 -387c0 -74 -18.167 -134.167 -54.5 -180.5s-90.5 -69.5 -162.5 -69.5c-65.333 0 -117.833 19 -157.5 57s-59.5 89.667 -59.5 155c0 66.667 19.833 121 59.5 163s92.5 63 158.5 63
c30 0 60.333 -5.33301 91 -16c-3.33301 35.333 -13.166 69.333 -29.499 102s-37.5 59.667 -63.5 81l-113 -74l-19 30l102 65c-40 22.667 -83.667 38 -131 46l12 25c58.667 -2 110.667 -15.667 156 -41zM381.999 204c0 128.667 -41.6689 192.999 -125.002 192.999
c-84.667 0 -127 -66.333 -127 -199c0 -30.667 3.33301 -58.667 10 -84s19.834 -47.666 39.501 -66.999s45.167 -29 76.5 -29s56.833 10.167 76.5 30.5s32.834 43.5 39.501 69.5s10 54.667 10 86z" />
    <glyph glyph-name="ntilde" unicode="&#xf1;" horiz-adv-x="519" 
d="M150 422c8.66699 -17.333 13.001 -37.668 13.001 -61.001c48.667 44 100 66 154 66c81.333 0 122 -45.333 122 -136v-180c0 -26.667 4.66699 -46.5 14 -59.5s26.666 -19.833 51.999 -20.5v-31h-216v31c25.333 0.666992 42.666 7.5 51.999 20.5s14 32.833 14 59.5v168
c0 64.667 -28.667 97 -86 97c-33.333 0 -68.666 -16.333 -105.999 -49v-216c0 -26.667 4.83301 -46.5 14.5 -59.5s27.167 -19.833 52.5 -20.5v-31h-217v31c25.333 0.666992 42.833 7.5 52.5 20.5s14.5 32.833 14.5 59.5v172c0 26 -5 45.833 -15 59.5
s-27.333 20.834 -52 21.501v30c55.333 8 101 17.333 137 28zM406.001 592.998l17 -12c-34 -52.667 -69.667 -79.667 -107 -81c-16 0 -39.667 4.5 -71 13.5s-55.333 13.5 -72 13.5c-17.333 0 -36.666 -11.333 -57.999 -34l-19 11c35.333 58.667 71.666 88 108.999 88
c16 0 39.667 -4.66699 71 -14s55.333 -14 72 -14c18 0 37.333 9.66699 58 29z" />
    <glyph glyph-name="ograve" unicode="&#xf2;" horiz-adv-x="511" 
d="M471 206c0 -64 -19.999 -116.166 -59.999 -156.499s-92 -60.5 -156 -60.5c-66 0 -118.333 19 -157 57s-58 90 -58 156c0 67.333 19.5 121.666 58.5 162.999s92.167 62 159.5 62s119.666 -20 156.999 -60s56 -93.667 56 -161zM381.001 204.001
c0 20 -0.666992 37.833 -2 53.5s-4.66602 32.667 -9.99902 51s-12.333 33.666 -21 45.999s-20.834 22.5 -36.501 30.5s-34.167 12 -55.5 12c-84 0 -126 -66.333 -126 -199c0 -49.333 9.66699 -91.666 29 -126.999s51.333 -53 96 -53c31.333 0 57 10.167 77 30.5
s33.167 43.5 39.5 69.5s9.5 54.667 9.5 86zM297.001 608.001l52 -124.001c0.666992 -1.33301 1 -3 1 -5v-1c0 -4 -4 -6 -12 -6c-2.66699 0.666992 -6.66699 2.33398 -12 5.00098l-158 114c-4 2.66699 -6 5.66699 -6 9c0 5.33301 4 8 12 8h123z" />
    <glyph glyph-name="oacute" unicode="&#xf3;" horiz-adv-x="511" 
d="M471 206c0 -64 -19.999 -116.166 -59.999 -156.499s-92 -60.5 -156 -60.5c-66 0 -118.333 19 -157 57s-58 90 -58 156c0 67.333 19.5 121.666 58.5 162.999s92.167 62 159.5 62s119.666 -20 156.999 -60s56 -93.667 56 -161zM381.001 204.001
c0 20 -0.666992 37.833 -2 53.5s-4.66602 32.667 -9.99902 51s-12.333 33.666 -21 45.999s-20.834 22.5 -36.501 30.5s-34.167 12 -55.5 12c-84 0 -126 -66.333 -126 -199c0 -49.333 9.66699 -91.666 29 -126.999s51.333 -53 96 -53c31.333 0 57 10.167 77 30.5
s33.167 43.5 39.5 69.5s9.5 54.667 9.5 86zM215.001 608.001l123 0.000976562c8 0 12 -2.66699 12 -8c0 -3.33301 -2 -6.33301 -6 -9l-158 -114c-5.33301 -2.66699 -9.33301 -4.33398 -12 -5.00098c-8 0 -12 2 -12 6v1c0 2 0.333008 3.66699 1 5z" />
    <glyph glyph-name="ocircumflex" unicode="&#xf4;" horiz-adv-x="511" 
d="M471 206c0 -64 -19.999 -116.166 -59.999 -156.499s-92 -60.5 -156 -60.5c-66 0 -118.333 19 -157 57s-58 90 -58 156c0 67.333 19.5 121.666 58.5 162.999s92.167 62 159.5 62s119.666 -20 156.999 -60s56 -93.667 56 -161zM381.001 204.001
c0 20 -0.666992 37.833 -2 53.5s-4.66602 32.667 -9.99902 51s-12.333 33.666 -21 45.999s-20.834 22.5 -36.501 30.5s-34.167 12 -55.5 12c-84 0 -126 -66.333 -126 -199c0 -49.333 9.66699 -91.666 29 -126.999s51.333 -53 96 -53c31.333 0 57 10.167 77 30.5
s33.167 43.5 39.5 69.5s9.5 54.667 9.5 86zM256.001 622.001l121.001 -119c4.66699 -4.66699 7 -8.66699 7 -12c0 -12 -5.33301 -18 -16 -18h-1c-4 0 -9 2.33301 -15 7l-96 66l-95 -66c-6 -4.66699 -11 -7 -15 -7h-1c-8.66699 0 -14.334 5 -17.001 15
c0 4.66699 2.66699 9.66699 8 15z" />
    <glyph glyph-name="otilde" unicode="&#xf5;" horiz-adv-x="511" 
d="M471 206c0 -64 -19.999 -116.166 -59.999 -156.499s-92 -60.5 -156 -60.5c-66 0 -118.333 19 -157 57s-58 90 -58 156c0 67.333 19.5 121.666 58.5 162.999s92.167 62 159.5 62s119.666 -20 156.999 -60s56 -93.667 56 -161zM381.001 204.001
c0 20 -0.666992 37.833 -2 53.5s-4.66602 32.667 -9.99902 51s-12.333 33.666 -21 45.999s-20.834 22.5 -36.501 30.5s-34.167 12 -55.5 12c-84 0 -126 -66.333 -126 -199c0 -49.333 9.66699 -91.666 29 -126.999s51.333 -53 96 -53c31.333 0 57 10.167 77 30.5
s33.167 43.5 39.5 69.5s9.5 54.667 9.5 86zM402.001 593.001l17 -12c-34 -52.667 -69.667 -79.667 -107 -81c-16 0 -39.667 4.5 -71 13.5s-55.333 13.5 -72 13.5c-17.333 0 -36.666 -11.333 -57.999 -34l-19 11c35.333 58.667 71.666 88 108.999 88
c16 0 39.667 -4.66699 71 -14s55.333 -14 72 -14c18 0 37.333 9.66699 58 29z" />
    <glyph glyph-name="odieresis" unicode="&#xf6;" horiz-adv-x="511" 
d="M471 206c0 -64 -19.999 -116.166 -59.999 -156.499s-92 -60.5 -156 -60.5c-66 0 -118.333 19 -157 57s-58 90 -58 156c0 67.333 19.5 121.666 58.5 162.999s92.167 62 159.5 62s119.666 -20 156.999 -60s56 -93.667 56 -161zM381.001 204.001
c0 20 -0.666992 37.833 -2 53.5s-4.66602 32.667 -9.99902 51s-12.333 33.666 -21 45.999s-20.834 22.5 -36.501 30.5s-34.167 12 -55.5 12c-84 0 -126 -66.333 -126 -199c0 -49.333 9.66699 -91.666 29 -126.999s51.333 -53 96 -53c31.333 0 57 10.167 77 30.5
s33.167 43.5 39.5 69.5s9.5 54.667 9.5 86zM104.001 533.001c0 16.667 5.83301 30.834 17.5 42.501s25.834 17.5 42.501 17.5s30.834 -5.83301 42.501 -17.5s17.5 -25.834 17.5 -42.501s-5.83301 -30.834 -17.5 -42.501s-25.834 -17.5 -42.501 -17.5
s-30.834 5.83301 -42.501 17.5s-17.5 25.834 -17.5 42.501zM287.001 533.001c0 16.667 6 30.834 18 42.501s26 17.5 42 17.5c16.667 0 30.834 -5.83301 42.501 -17.5s17.5 -25.834 17.5 -42.501s-5.83301 -30.834 -17.5 -42.501s-25.834 -17.5 -42.501 -17.5
c-16 0 -30 5.83301 -42 17.5s-18 25.834 -18 42.501z" />
    <glyph glyph-name="divide" unicode="&#xf7;" 
d="M20 370h460v-50h-460v50zM250 569c12 0 22.167 -4.16699 30.5 -12.5s12.5 -18.5 12.5 -30.5c0 -11.333 -4.16699 -21.333 -12.5 -30s-18.5 -13 -30.5 -13c-11.333 0 -21.333 4.33301 -30 13s-13 18.667 -13 30c0 12 4.33301 22.167 13 30.5s18.667 12.5 30 12.5zM250 206
c12 0 22.167 -4.16699 30.5 -12.5s12.5 -18.5 12.5 -30.5c0 -11.333 -4.33301 -21.333 -13 -30s-18.667 -13 -30 -13s-21.333 4.33301 -30 13s-13 18.667 -13 30c0 12 4.16699 22.167 12.5 30.5s18.5 12.5 30.5 12.5z" />
    <glyph glyph-name="oslash" unicode="&#xf8;" horiz-adv-x="514" 
d="M418 372c39.333 -36 59 -90.333 59 -163c0 -64.667 -20 -117.167 -60 -157.5s-92 -60.5 -156 -60.5c-54.667 0 -101 13.667 -139 41l-50 -57l-29 25l51 58c-32 35.333 -48 84 -48 146c0 68 19.5 122.5 58.5 163.5s92.167 61.5 159.5 61.5c50 0 91.333 -11 124 -33l52 60
l29 -25zM372 322l-206.999 -251c22 -33.333 54 -50 96 -50c45.333 0 77.666 18.333 96.999 55s29 80 29 130c0 49.333 -5 88 -15 116zM148.001 109l204.999 249.001c-21.333 27.333 -51.666 41 -90.999 41c-84 0 -126 -66 -126 -198c0 -34.667 4 -65.334 12 -92.001z" />
    <glyph glyph-name="ugrave" unicode="&#xf9;" horiz-adv-x="519" 
d="M369 -5c-8.66699 22 -12.999 42.001 -12.999 60.001c-48.667 -44 -100.334 -66 -155.001 -66c-33.333 0 -61.666 9.33301 -84.999 28s-35.333 44 -36 76v31v192c0 26.667 -4.83301 46.5 -14.5 59.5s-27.167 19.833 -52.5 20.5v31h150v-290c0 -64.667 29 -97 87 -97
c33.333 0 68.666 16.333 105.999 49v227c0 26.667 -4.83301 46.5 -14.5 59.5s-27.167 19.833 -52.5 20.5v31h150v-316c0 -52.667 22.333 -79.334 67 -80.001v-31c-41.333 -0 -87 -1.66699 -137 -5zM300.001 608.001l52 -124.001c0.666992 -1.33301 1 -3 1 -5v-1
c0 -4 -4 -6 -12 -6c-2.66699 0.666992 -6.66699 2.33398 -12 5.00098l-158 114c-4 2.66699 -6 5.66699 -6 9c0 5.33301 4 8 12 8h123z" />
    <glyph glyph-name="uacute" unicode="&#xfa;" horiz-adv-x="519" 
d="M369 -5c-8.66699 22 -12.999 42.001 -12.999 60.001c-48.667 -44 -100.334 -66 -155.001 -66c-33.333 0 -61.666 9.33301 -84.999 28s-35.333 44 -36 76v31v192c0 26.667 -4.83301 46.5 -14.5 59.5s-27.167 19.833 -52.5 20.5v31h150v-290c0 -64.667 29 -97 87 -97
c33.333 0 68.666 16.333 105.999 49v227c0 26.667 -4.83301 46.5 -14.5 59.5s-27.167 19.833 -52.5 20.5v31h150v-316c0 -52.667 22.333 -79.334 67 -80.001v-31c-41.333 -0 -87 -1.66699 -137 -5zM218.001 608.001l123 0.000976562c8 0 12 -2.66699 12 -8
c0 -3.33301 -2 -6.33301 -6 -9l-158 -114c-5.33301 -2.66699 -9.33301 -4.33398 -12 -5.00098c-8 0 -12 2 -12 6v1c0 2 0.333008 3.66699 1 5z" />
    <glyph glyph-name="ucircumflex" unicode="&#xfb;" horiz-adv-x="519" 
d="M369 -5c-8.66699 22 -12.999 42.001 -12.999 60.001c-48.667 -44 -100.334 -66 -155.001 -66c-33.333 0 -61.666 9.33301 -84.999 28s-35.333 44 -36 76v31v192c0 26.667 -4.83301 46.5 -14.5 59.5s-27.167 19.833 -52.5 20.5v31h150v-290c0 -64.667 29 -97 87 -97
c33.333 0 68.666 16.333 105.999 49v227c0 26.667 -4.83301 46.5 -14.5 59.5s-27.167 19.833 -52.5 20.5v31h150v-316c0 -52.667 22.333 -79.334 67 -80.001v-31c-41.333 -0 -87 -1.66699 -137 -5zM259.001 622.001l121.001 -119c4.66699 -4.66699 7 -8.66699 7 -12
c0 -12 -5.33301 -18 -16 -18h-1c-4 0 -9 2.33301 -15 7l-96 66l-95 -66c-6 -4.66699 -11 -7 -15 -7h-1c-8.66699 0 -14.334 5 -17.001 15c0 4.66699 2.66699 9.66699 8 15z" />
    <glyph glyph-name="udieresis" unicode="&#xfc;" horiz-adv-x="519" 
d="M369 -5c-8.66699 22 -12.999 42.001 -12.999 60.001c-48.667 -44 -100.334 -66 -155.001 -66c-33.333 0 -61.666 9.33301 -84.999 28s-35.333 44 -36 76v31v192c0 26.667 -4.83301 46.5 -14.5 59.5s-27.167 19.833 -52.5 20.5v31h150v-290c0 -64.667 29 -97 87 -97
c33.333 0 68.666 16.333 105.999 49v227c0 26.667 -4.83301 46.5 -14.5 59.5s-27.167 19.833 -52.5 20.5v31h150v-316c0 -52.667 22.333 -79.334 67 -80.001v-31c-41.333 -0 -87 -1.66699 -137 -5zM108.001 533.001c0 16.667 5.83301 30.834 17.5 42.501
s25.834 17.5 42.501 17.5s30.834 -5.83301 42.501 -17.5s17.5 -25.834 17.5 -42.501s-5.83301 -30.834 -17.5 -42.501s-25.834 -17.5 -42.501 -17.5s-30.834 5.83301 -42.501 17.5s-17.5 25.834 -17.5 42.501zM291.001 533.001c0 16.667 6 30.834 18 42.501s26 17.5 42 17.5
c16.667 0 30.834 -5.83301 42.501 -17.5s17.5 -25.834 17.5 -42.501s-5.83301 -30.834 -17.5 -42.501s-25.834 -17.5 -42.501 -17.5c-16 0 -30 5.83301 -42 17.5s-18 25.834 -18 42.501z" />
    <glyph glyph-name="yacute" unicode="&#xfd;" horiz-adv-x="466" 
d="M470 415l0.00195312 -30l-10 -1c-28 -2.66699 -47.333 -15.334 -58 -38.001l-213 -466c-0.666992 -2 -3.33398 -8.33301 -8.00098 -19l-10 -22.5l-10.5 -22c-5 -10.333 -9.33301 -18.166 -13 -23.499l-14 -20.5c-5.66699 -8.33301 -11 -14.666 -16 -18.999
s-10.667 -9 -17 -14s-13.166 -8.5 -20.499 -10.5s-14.666 -3 -21.999 -3c-12.667 0 -24 3.33301 -34 10s-15 16.334 -15 29.001c0 8 2.33301 15.333 7 22c2 0 4.66699 -0.333008 8 -1s5.66602 -1 6.99902 -1c18.667 0 36.167 5.16699 52.5 15.5s31.333 25.5 45 45.5
s24.834 38 33.501 54s18.834 37 30.501 63l22.5 50l-156 333c-12 24.667 -32.667 37.667 -62 39v30h192v-30c-28.667 0 -43 -7 -43 -21c0 -4 1.33301 -10 4 -18l108 -234l105 234c4 9.33301 6.33301 16.666 7 21.999v1c0 3.33301 -0.833008 6 -2.5 8
s-4.33398 3.5 -8.00098 4.5s-6.83398 1.66699 -9.50098 2s-6.33398 0.666016 -11.001 0.999023s-7.33398 0.5 -8.00098 0.5h-7v30h146zM192.002 607l123 0.000976562c8 0 12 -2.66699 12 -8c0 -3.33301 -2 -6.33301 -6 -9l-158 -114
c-5.33301 -2.66699 -9.33301 -4.33398 -12 -5.00098c-8 0 -12 2 -12 6v1c0 2 0.333008 3.66699 1 5z" />
    <glyph glyph-name="thorn" unicode="&#xfe;" horiz-adv-x="528" 
d="M163 35l0.000976562 -191.002c0 -32 6.33301 -53.167 19 -63.5s35.334 -16.166 68.001 -17.499v-30h-237v31c25.333 0.666992 42.833 7.5 52.5 20.5s14.5 32.833 14.5 59.5v711c0 26 -5 45.833 -15 59.5s-27.333 20.834 -52 21.501v30c55.333 8 101 17.333 137 28
c8.66699 -14 13 -28.333 13 -43v-286c37.333 40.667 82.666 61 135.999 61c58 0 104 -20.833 138 -62.5s51 -92.167 51 -151.5c0 -61.333 -17.333 -113.833 -52 -157.5s-82 -65.5 -142 -65.5c-50.667 0 -94.334 15.333 -131.001 46zM163.001 80.998
c32.667 -32.667 68.334 -50.001 107.001 -52.001c30.667 0 56.167 10.167 76.5 30.5s34.166 43.833 41.499 70.5s11 55.334 11 86.001c0 44.667 -9.16699 84.167 -27.5 118.5s-47.833 51.5 -88.5 51.5c-44.667 0 -84.667 -27.333 -120 -82v-223z" />
    <glyph glyph-name="ydieresis" unicode="&#xff;" horiz-adv-x="466" 
d="M470 415l0.00195312 -30l-10 -1c-28 -2.66699 -47.333 -15.334 -58 -38.001l-213 -466c-0.666992 -2 -3.33398 -8.33301 -8.00098 -19l-10 -22.5l-10.5 -22c-5 -10.333 -9.33301 -18.166 -13 -23.499l-14 -20.5c-5.66699 -8.33301 -11 -14.666 -16 -18.999
s-10.667 -9 -17 -14s-13.166 -8.5 -20.499 -10.5s-14.666 -3 -21.999 -3c-12.667 0 -24 3.33301 -34 10s-15 16.334 -15 29.001c0 8 2.33301 15.333 7 22c2 0 4.66699 -0.333008 8 -1s5.66602 -1 6.99902 -1c18.667 0 36.167 5.16699 52.5 15.5s31.333 25.5 45 45.5
s24.834 38 33.501 54s18.834 37 30.501 63l22.5 50l-156 333c-12 24.667 -32.667 37.667 -62 39v30h192v-30c-28.667 0 -43 -7 -43 -21c0 -4 1.33301 -10 4 -18l108 -234l105 234c4 9.33301 6.33301 16.666 7 21.999v1c0 3.33301 -0.833008 6 -2.5 8
s-4.33398 3.5 -8.00098 4.5s-6.83398 1.66699 -9.50098 2s-6.33398 0.666016 -11.001 0.999023s-7.33398 0.5 -8.00098 0.5h-7v30h146zM82.002 532c0 16.667 5.83301 30.834 17.5 42.501s25.834 17.5 42.501 17.5s30.834 -5.83301 42.501 -17.5s17.5 -25.834 17.5 -42.501
s-5.83301 -30.834 -17.5 -42.501s-25.834 -17.5 -42.501 -17.5s-30.834 5.83301 -42.501 17.5s-17.5 25.834 -17.5 42.501zM265.002 532c0 16.667 6 30.834 18 42.501s26 17.5 42 17.5c16.667 0 30.834 -5.83301 42.501 -17.5s17.5 -25.834 17.5 -42.501
s-5.83301 -30.834 -17.5 -42.501s-25.834 -17.5 -42.501 -17.5c-16 0 -30 5.83301 -42 17.5s-18 25.834 -18 42.501z" />
    <glyph glyph-name="dotlessi" unicode="&#x131;" horiz-adv-x="243" 
d="M163 422v-311c0 -26.667 4.83301 -46.5 14.5 -59.5s27.167 -19.833 52.5 -20.5v-31h-217v31c25.333 0.666992 42.833 7.5 52.5 20.5s14.5 32.833 14.5 59.5v172c0 26 -5 45.833 -15 59.5s-27.333 20.834 -52 21.501v30c40 5.33301 90 14.666 150 27.999z" />
    <glyph glyph-name="Lslash" unicode="&#x141;" horiz-adv-x="571" 
d="M405 440l13.999 -32.002l-206 -97v-189c0 -33.333 8.83301 -56.333 26.5 -69s43.834 -19 78.501 -19c25.333 0 45.5 0.666992 60.5 2s31.667 4.5 50 9.5s34.333 13.333 48 25s26.167 26.834 37.5 45.501c19.333 34 29.666 64 30.999 90h29l-13 -206h-548v31
c20.667 0.666992 35.5 1.66699 44.5 3s18.667 4.5 29 9.5s17.333 12.833 21 23.5s5.5 25.334 5.5 44.001v156l-83 -40l-15 30l98 46v253c0 18 -1.83301 32.5 -5.5 43.5s-10.667 19 -21 24s-20.166 8.16699 -29.499 9.5s-24 2.33301 -44 3v31h300v-31
c-36 -1.33301 -61.667 -6 -77 -14s-23 -30 -23 -66v-206z" />
    <glyph glyph-name="lslash" unicode="&#x142;" horiz-adv-x="258" 
d="M238 423l12 -26.001l-80 -39v-247c0 -26.667 4.83301 -46.5 14.5 -59.5s27.167 -19.833 52.5 -20.5v-31h-217v31c25.333 0.666992 42.833 7.5 52.5 20.5s14.5 32.833 14.5 59.5v207l-65 -30l-11 26l76 36v206c0 52.667 -22.333 79.334 -67 80.001v31
c50.667 7.33301 100.667 16.333 150 27v-304z" />
    <glyph glyph-name="OE" unicode="&#x152;" horiz-adv-x="926" 
d="M888 208l29.999 0.000976562l-13 -208h-420c-12 0 -29.833 -1.83301 -53.5 -5.5s-41.5 -5.5 -53.5 -5.5c-102 0 -182.667 32.167 -242 96.5s-89 148.166 -89 251.499c0 95.333 29.667 175.5 89 240.5s136 97.5 230 97.5c14 0 34.667 -1.33301 62 -4s47.666 -4 60.999 -4
h359l18 -163h-32c-15.333 85.333 -61 128 -137 128h-139v-244h57c62.667 0 95 31.333 97 94h31v-227h-31l-1 12c-2 32 -10.167 54.5 -24.5 67.5s-37.166 19.5 -68.499 19.5h-60v-227c0 -38 9.5 -63.167 28.5 -75.5s48.833 -18.5 89.5 -18.5
c65.333 0 114.333 13.167 147 39.5s54.334 71.5 65.001 135.5zM457.999 626.001c-31.333 9.33301 -61.667 14.001 -91 14.001c-40.667 0 -75.167 -10.167 -103.5 -30.5s-49.333 -47.833 -63 -82.5s-23.167 -68.834 -28.5 -102.501s-8 -70.167 -8 -109.5
c0 -85.333 17 -153 51 -203c16 -24 37.167 -43.667 63.5 -59s53.166 -23 80.499 -23c32.667 0 57.334 6.66699 74.001 20s25 36 25 68v9v499z" />
    <glyph glyph-name="oe" unicode="&#x153;" horiz-adv-x="664" 
d="M381 231c0 -132.667 42.667 -199 128 -199c48 0 90 25 126 75l29 -16c-40.667 -63.333 -95 -96.333 -163 -99c-59.333 0 -110.333 18.333 -153 55c-44 -38.667 -92.667 -58 -146 -58c-60.667 0 -109.5 20.167 -146.5 60.5s-55.5 91.5 -55.5 153.5
c0 62.667 18.167 115.5 54.5 158.5s85.5 64.5 147.5 64.5c61.333 0 110 -20.333 146 -61c37.333 41.333 82.333 62 135 62c56.667 0 100.5 -18.167 131.5 -54.5s47.5 -83.5 49.5 -141.5h-283zM382 259h191.002c0 22.667 -2.33301 43.167 -7 61.5s-14.167 34.833 -28.5 49.5
s-32.833 22 -55.5 22c-32.667 0 -57.334 -13.333 -74.001 -40s-25.334 -57.667 -26.001 -93zM199.002 393c-22 0 -40.665 -6 -55.998 -18s-26.833 -28 -34.5 -48s-13.167 -39.667 -16.5 -59s-5 -39.333 -5 -60c0 -21.333 1.33301 -41.333 4 -60s7.66699 -38.334 15 -59.001
s18.666 -37.167 33.999 -49.5s34.333 -18.5 57 -18.5c70.667 0 106 64 106 192c0 19.333 -1.33301 38.333 -4 57s-7.5 37.834 -14.5 57.501s-17.833 35.5 -32.5 47.5s-32.334 18 -53.001 18z" />
    <glyph glyph-name="Scaron" unicode="&#x160;" horiz-adv-x="509" 
d="M434 674l-0.000976562 -180.997h-30c-8 46.667 -25.833 85 -53.5 115s-64.167 45 -109.5 45c-29.333 0 -55.166 -8.66699 -77.499 -26s-33.5 -40 -33.5 -68c0 -29.333 11.833 -55 35.5 -77s52.5 -40.833 86.5 -56.5s68 -32.5 102 -50.5s62.833 -42.5 86.5 -73.5
s35.5 -67.833 35.5 -110.5c0 -59.333 -18.5 -108.833 -55.5 -148.5s-85.167 -59.5 -144.5 -59.5c-66 0 -127 24.333 -183 73c-10 -20.667 -17.333 -39.334 -22 -56.001h-31v210h31c6.66699 -48.667 27.334 -91.667 62.001 -129s75.667 -56 123 -56
c40.667 0 75.167 10.5 103.5 31.5s42.5 51.167 42.5 90.5c0 33.333 -12 62.166 -36 86.499s-53 44.333 -87 60l-102.5 49c-34.333 17 -63.5 39.833 -87.5 68.5s-36 62.667 -36 102c0 50.667 18.167 91.667 54.5 123s80.166 47 131.499 47c61.333 0 111 -16.333 149 -49
c4 5.33301 11.333 18.666 22 39.999h24zM253.999 703.003l-115.001 114.999c-8.66699 8.66699 -13 15.334 -13 20.001s1.83301 8.5 5.5 11.5s7.5 4.5 11.5 4.5c6.66699 0 14.334 -3 23.001 -9l88 -65l89 65c9.33301 6 16.333 9 21 9c12.667 0 19 -5 19 -15
c0 -5.33301 -4.33301 -12.333 -13 -21z" />
    <glyph glyph-name="scaron" unicode="&#x161;" horiz-adv-x="346" 
d="M292 415l0.00195312 -136.999h-23c-6.66699 30.667 -19.5 57.167 -38.5 79.5s-43.167 33.5 -72.5 33.5c-16.667 0 -30.5 -5.33301 -41.5 -16s-16.5 -24.334 -16.5 -41.001c0 -16 7.33301 -30.333 22 -43s32.334 -23.5 53.001 -32.5s41.5 -19 62.5 -30
s38.833 -26 53.5 -45s22 -41.5 22 -67.5c0 -38 -11.333 -68.667 -34 -92s-52.667 -35 -90 -35c-42.667 0 -80.667 15 -114 45l-17 -34h-24v143h24c4 -32.667 17 -60.167 39 -82.5s49 -33.5 81 -33.5c19.333 0 36 5.66699 50 17s21 26.333 21 45
c0 18 -7.33301 33.833 -22 47.5s-32.334 25.334 -53.001 35.001s-41.334 20 -62.001 31s-38.334 25.667 -53.001 44s-22 39.5 -22 63.5c0 35.333 10.167 63.666 30.5 84.999s47.833 32 82.5 32c36.667 0 70 -16 100 -48l19 36h23zM173.002 473.001l-115.001 114.999
c-8.66699 8.66699 -13 15.334 -13 20.001s1.83301 8.5 5.5 11.5s7.5 4.5 11.5 4.5c6.66699 0 14.334 -3 23.001 -9l88 -65l89 65c9.33301 6 16.333 9 21 9c12.667 0 19 -5 19 -15c0 -5.33301 -4.33301 -12.333 -13 -21z" />
    <glyph glyph-name="Ydieresis" unicode="&#x178;" horiz-adv-x="663" 
d="M381 297l0.000976562 -186.001c0 -18 2.16699 -32.5 6.5 -43.5s11.5 -19 21.5 -24s19.833 -8.16699 29.5 -9.5s23.834 -2.33301 42.501 -3v-31h-298v31c20 0.666992 34.833 1.83398 44.5 3.50098s19.5 5 29.5 10s16.833 12.833 20.5 23.5s5.5 25 5.5 43v186l-183 285
c-12.667 19.333 -26.834 32.833 -42.501 40.5s-35.834 12.167 -60.501 13.5v31h286v-31h-25c-32 0 -48 -8.33301 -48 -25c0 -6 3 -15.667 9 -29l143 -246l149 246c6 12 9 20.667 9 26c0 18.667 -30.667 28 -92 28v31h239v-31c-28 -1.33301 -51.333 -6.83301 -70 -16.5
s-34.667 -25.5 -48 -47.5zM181.001 769.999c0 16.667 5.83301 30.834 17.5 42.501s25.834 17.5 42.501 17.5s30.834 -5.83301 42.501 -17.5s17.5 -25.834 17.5 -42.501s-5.83301 -30.834 -17.5 -42.501s-25.834 -17.5 -42.501 -17.5s-30.834 5.83301 -42.501 17.5
s-17.5 25.834 -17.5 42.501zM364.001 769.999c0 16.667 6 30.834 18 42.501s26 17.5 42 17.5c16.667 0 30.834 -5.83301 42.501 -17.5s17.5 -25.834 17.5 -42.501s-5.83301 -30.834 -17.5 -42.501s-25.834 -17.5 -42.501 -17.5c-16 0 -30 5.83301 -42 17.5
s-18 25.834 -18 42.501z" />
    <glyph glyph-name="Zcaron" unicode="&#x17d;" horiz-adv-x="590" 
d="M548 178h32l-15 -178h-555v16l422 613h-216c-73.333 0 -121.333 -42.333 -144 -127h-33l19 165h507v-14l-422 -615h247c45.333 0 79.5 11.667 102.5 35s41.5 58.333 55.5 105zM295 703l-115.001 114.999c-8.66699 8.66699 -13 15.334 -13 20.001s1.83301 8.5 5.5 11.5
s7.5 4.5 11.5 4.5c6.66699 0 14.334 -3 23.001 -9l88 -65l89 65c9.33301 6 16.333 9 21 9c12.667 0 19 -5 19 -15c0 -5.33301 -4.33301 -12.333 -13 -21z" />
    <glyph glyph-name="zcaron" unicode="&#x17e;" horiz-adv-x="392" 
d="M352 139l26 0.000976562l-8 -139h-357v33l257 353h-144c-15.333 0 -27.333 -4.33301 -36 -13s-17.167 -22.334 -25.5 -41.001s-14.166 -30.667 -17.499 -36h-27l14 121h336v-31l-257 -353h139c13.333 0 25.5 3 36.5 9s20.667 15.333 29 28s14.666 23.5 18.999 32.5
s9.5 21.167 15.5 36.5zM195 473.001l-115.001 114.999c-8.66699 8.66699 -13 15.334 -13 20.001s1.83301 8.5 5.5 11.5s7.5 4.5 11.5 4.5c6.66699 0 14.334 -3 23.001 -9l88 -65l89 65c9.33301 6 16.333 9 21 9c12.667 0 19 -5 19 -15c0 -5.33301 -4.33301 -12.333 -13 -21z
" />
    <glyph glyph-name="florin" unicode="&#x192;" horiz-adv-x="467" 
d="M387 472l-5.00293 -29.999h-109l-41 -229c-20 -103.333 -37.667 -176.333 -53 -219c-27.333 -75.333 -60.333 -117.333 -99 -126l-24 16c8.66699 8 16.667 18.667 24 32s13.333 25.833 18 37.5s9.33398 27.5 14.001 47.5s7.83398 34.667 9.50098 44l8 47
c3.66699 22 5.83398 34.333 6.50098 37l56 313h-83l5 30h84l14 80c8.66699 48.667 27.167 91 55.5 127s64.833 54 109.5 54c24 0 46.667 -5.83301 68 -17.5s32 -28.834 32 -51.501c0 -12 -4.16699 -22 -12.5 -30s-18.5 -12 -30.5 -12c-10 0 -19 3.5 -27 10.5
s-12 15.5 -12 25.5c0 2 0.333008 4.83301 1 8.5s1 6.5 1 8.5c0 16 -10.667 24 -32 24c-14 0 -25.333 -4.5 -34 -13.5s-14.5 -18.167 -17.5 -27.5s-5.83301 -22 -8.5 -38c-0.666992 -2.66699 -1 -4.66699 -1 -6l-26 -142h109z" />
    <glyph glyph-name="circumflex" unicode="&#x2c6;" 
d="M251 622l121.001 -119c4.66699 -4.66699 7 -8.66699 7 -12c0 -12 -5.33301 -18 -16 -18h-1c-4 0 -9 2.33301 -15 7l-96 66l-95 -66c-6 -4.66699 -11 -7 -15 -7h-1c-8.66699 0 -14.334 5 -17.001 15c0 4.66699 2.66699 9.66699 8 15z" />
    <glyph glyph-name="caron" unicode="&#x2c7;" 
d="M250 473l-115.001 114.999c-8.66699 8.66699 -13 15.334 -13 20.001s1.83301 8.5 5.5 11.5s7.5 4.5 11.5 4.5c6.66699 0 14.334 -3 23.001 -9l88 -65l89 65c8.66699 6 15.667 9 21 9c12.667 0 19 -5 19 -15c0 -5.33301 -4.33301 -12.333 -13 -21z" />
    <glyph glyph-name="breve" unicode="&#x2d8;" 
d="M97 606l25.0029 -1c4.66699 -11.333 11.667 -20.666 21 -27.999s20.833 -12.5 34.5 -15.5s25.334 -4.83301 35.001 -5.5s22.167 -1 37.5 -1s27.666 0.333008 36.999 1s20.666 2.5 33.999 5.5s24.5 8.16699 33.5 15.5s15.833 16.666 20.5 27.999h28
c-4 -38 -20.667 -67.167 -50 -87.5s-64.333 -30.5 -105 -30.5s-75.334 10.167 -104.001 30.5s-44.334 49.833 -47.001 88.5z" />
    <glyph glyph-name="dotaccent" unicode="&#x2d9;" 
d="M190 533c0 16.667 5.83301 30.834 17.5 42.501s25.834 17.5 42.501 17.5s30.834 -5.83301 42.501 -17.5s17.5 -25.834 17.5 -42.501s-5.83301 -30.834 -17.5 -42.501s-25.834 -17.5 -42.501 -17.5s-30.834 5.83301 -42.501 17.5s-17.5 25.834 -17.5 42.501z" />
    <glyph glyph-name="ring" unicode="&#x2da;" 
d="M250 468c-22.667 0 -42.5 8.33301 -59.5 25s-25.5 36.667 -25.5 60s8.5 43.333 25.5 60s36.833 25 59.5 25c23.333 0 43.333 -8.66699 60 -26s25 -38 25 -62c0 -22.667 -8.5 -42 -25.5 -58s-36.833 -24 -59.5 -24zM250 507c12.667 0 23.5 4.5 32.5 13.5
s13.5 19.833 13.5 32.5s-4.5 23.5 -13.5 32.5s-19.833 13.5 -32.5 13.5s-23.5 -4.5 -32.5 -13.5s-13.5 -19.833 -13.5 -32.5s4.5 -23.5 13.5 -32.5s19.833 -13.5 32.5 -13.5z" />
    <glyph glyph-name="ogonek" unicode="&#x2db;" 
d="M518 0c-38.667 -25.333 -57.999 -54.999 -57.999 -88.999c0 -54.667 31.667 -82 95 -82c11.333 0 24.666 2.33301 39.999 7l5 -9c-25.333 -16.667 -55 -25 -89 -25c-28.667 0 -52.667 7.66699 -72 23s-29 36.666 -29 63.999c0 47.333 27.333 84.333 82 111h26z" />
    <glyph glyph-name="tilde" unicode="&#x2dc;" 
d="M397 593l17 -12c-34 -52.667 -69.667 -79.667 -107 -81c-16.667 0 -40.667 4.5 -72 13.5s-55 13.5 -71 13.5c-17.333 0 -36.666 -11.333 -57.999 -34l-19 11c35.333 58.667 71.666 88 108.999 88c16 0 39.667 -4.66699 71 -14s55.333 -14 72 -14
c18 0 37.333 9.66699 58 29z" />
    <glyph glyph-name="hungarumlaut" unicode="&#x2dd;" 
d="M119 608l123 0.000976562c8 0 12 -2.66699 12 -8c0 -3.33301 -2 -6.33301 -6 -9l-158 -114c-5.33301 -2.66699 -9.33301 -4.33398 -12 -5.00098c-8 0 -12 2 -12 6v1c0 2 0.333008 3.66699 1 5zM301 608.001l123 0.000976562c8 0 12 -2.66699 12 -8
c0 -3.33301 -2 -6.33301 -6 -9l-158 -114c-5.33301 -2.66699 -9.33301 -4.33398 -12 -5.00098c-8 0 -12 2 -12 6v1c0 2 0.333008 3.66699 1 5z" />
    <glyph glyph-name="mu" unicode="&#x3bc;" horiz-adv-x="550" 
d="M465 457v-337v-12c0 -44 12 -66 36 -66c8.66699 0 19.667 3.33301 33 10v-17l-91 -45c-2.66699 -1.33301 -5 -2 -7 -2c-8.66699 0 -16.167 2.66699 -22.5 8s-11.333 13.5 -15 24.5s-6 19.167 -7 24.5l-4.5 25c-19.333 -19.333 -34 -33.333 -44 -42s-24.833 -18 -44.5 -28
s-38.834 -15 -57.501 -15c-55.333 0 -92.666 29 -111.999 87c0 -20.667 1.16699 -41.5 3.5 -62.5s5.83301 -47.167 10.5 -78.5s7.66699 -52 9 -62c0 -40 -14.667 -60 -44 -60c-13.333 0 -23.666 5.16699 -30.999 15.5s-11 22.833 -11 37.5c0 8.66699 2.33301 27.667 7 57
c19.333 112 29 229.333 29 352v186h83v-287c0 -90.667 28.333 -136 85 -136c39.333 0 76.666 25 111.999 75v348h83z" />
    <glyph glyph-name="endash" unicode="&#x2013;" horiz-adv-x="467" 
d="M456 242v-50h-444v50h444z" />
    <glyph glyph-name="emdash" unicode="&#x2014;" horiz-adv-x="634" 
d="M634 241v-50h-634v50h634z" />
    <glyph glyph-name="quoteleft" unicode="&#x2018;" horiz-adv-x="237" 
d="M177 684l0.000976562 -18c-52.667 -36.667 -79 -76 -79 -118c0 -8.66699 2.66699 -21 8 -37c13.333 1.33301 23 2 29 2c14.667 0 27.167 -5.5 37.5 -16.5s15.5 -23.833 15.5 -38.5c0 -15.333 -5.5 -28.333 -16.5 -39s-24.167 -16 -39.5 -16c-26 0 -47 11.333 -63 34
s-24 47.667 -24 75c0 38.667 12.667 74 38 106s56.666 54 93.999 66z" />
    <glyph glyph-name="quoteright" unicode="&#x2019;" horiz-adv-x="237" 
d="M56 403v16.999c52.667 38 79 77.667 79 119c0 12 -2.66699 24.333 -8 37c-8.66699 -2 -18.334 -3 -29.001 -3c-14.667 0 -27.167 5.5 -37.5 16.5s-15.5 23.833 -15.5 38.5c0 15.333 5.5 28.5 16.5 39.5s24.167 16.5 39.5 16.5c26 0 47 -11.333 63 -34s24 -47.667 24 -75
c0 -38.667 -12.667 -74.167 -38 -106.5s-56.666 -54.166 -93.999 -65.499z" />
    <glyph glyph-name="quotesinglbase" unicode="&#x201a;" horiz-adv-x="237" 
d="M56 -173v16.999c52.667 38 79 77.667 79 119c0 12 -2.66699 24.333 -8 37c-8.66699 -2 -18.334 -3 -29.001 -3c-14.667 0 -27.167 5.5 -37.5 16.5s-15.5 23.833 -15.5 38.5c0 15.333 5.5 28.5 16.5 39.5s24.167 16.5 39.5 16.5c26 0 47 -11.333 63 -34s24 -47.667 24 -75
c0 -38.667 -12.667 -74.167 -38 -106.5s-56.666 -54.166 -93.999 -65.499z" />
    <glyph glyph-name="quotedblleft" unicode="&#x201c;" horiz-adv-x="407" 
d="M177 684l0.000976562 -18c-52.667 -36.667 -79 -76 -79 -118c0 -8.66699 2.66699 -21 8 -37c13.333 1.33301 23 2 29 2c14.667 0 27.167 -5.5 37.5 -16.5s15.5 -23.833 15.5 -38.5c0 -15.333 -5.5 -28.333 -16.5 -39s-24.167 -16 -39.5 -16c-26 0 -47 11.333 -63 34
s-24 47.667 -24 75c0 38.667 12.667 74 38 106s56.666 54 93.999 66zM347.001 684l0.000976562 -18c-52.667 -36.667 -79 -76 -79 -118c0 -8.66699 2.66699 -21 8 -37c13.333 1.33301 23 2 29 2c14.667 0 27.167 -5.5 37.5 -16.5s15.5 -23.833 15.5 -38.5
c0 -15.333 -5.5 -28.333 -16.5 -39s-24.167 -16 -39.5 -16c-26 0 -47 11.333 -63 34s-24 47.667 -24 75c0 38.667 12.667 74 38 106s56.666 54 93.999 66z" />
    <glyph glyph-name="quotedblright" unicode="&#x201d;" horiz-adv-x="407" 
d="M56 403v16.999c52.667 38 79 77.667 79 119c0 12 -2.66699 24.333 -8 37c-8.66699 -2 -18.334 -3 -29.001 -3c-14.667 0 -27.167 5.5 -37.5 16.5s-15.5 23.833 -15.5 38.5c0 15.333 5.5 28.5 16.5 39.5s24.167 16.5 39.5 16.5c26 0 47 -11.333 63 -34s24 -47.667 24 -75
c0 -38.667 -12.667 -74.167 -38 -106.5s-56.666 -54.166 -93.999 -65.499zM227 402.999l0.000976562 16.998c52 38.667 78 78.334 78 119.001c0 10.667 -2.33301 23 -7 37c-10 -2 -19.667 -3 -29 -3c-14.667 0 -27.334 5.5 -38.001 16.5s-16 23.833 -16 38.5
c0 15.333 5.5 28.5 16.5 39.5s24.167 16.5 39.5 16.5c26 0 47 -11.333 63 -34s24 -47.667 24 -75c0 -38.667 -12.5 -74.167 -37.5 -106.5s-56.167 -54.166 -93.5 -65.499z" />
    <glyph glyph-name="quotedblbase" unicode="&#x201e;" horiz-adv-x="407" 
d="M56 -173v16.999c52.667 38 79 77.667 79 119c0 12 -2.66699 24.333 -8 37c-8.66699 -2 -18.334 -3 -29.001 -3c-14.667 0 -27.167 5.5 -37.5 16.5s-15.5 23.833 -15.5 38.5c0 15.333 5.5 28.5 16.5 39.5s24.167 16.5 39.5 16.5c26 0 47 -11.333 63 -34s24 -47.667 24 -75
c0 -38.667 -12.667 -74.167 -38 -106.5s-56.666 -54.166 -93.999 -65.499zM227 -173.001l0.000976562 16.998c52 38.667 78 78.334 78 119.001c0 10.667 -2.33301 23 -7 37c-10 -2 -19.667 -3 -29 -3c-14.667 0 -27.334 5.5 -38.001 16.5s-16 23.833 -16 38.5
c0 15.333 5.5 28.5 16.5 39.5s24.167 16.5 39.5 16.5c26 0 47 -11.333 63 -34s24 -47.667 24 -75c0 -38.667 -12.5 -74.167 -37.5 -106.5s-56.167 -54.166 -93.5 -65.499z" />
    <glyph glyph-name="dagger" unicode="&#x2020;" horiz-adv-x="553" 
d="M291 470c2 -0.666992 4.66504 -0.999023 7.99805 -0.999023c17.333 0 41.833 6 73.5 18s56.167 18 73.5 18c18.667 0 34.334 -4.5 47.001 -13.5s19 -22.5 19 -40.5c0 -16 -6.16699 -28.833 -18.5 -38.5s-26.833 -14.834 -43.5 -15.501c-20 0 -47.5 6.5 -82.5 19.5
s-60.5 20.5 -76.5 22.5c0 -47.333 17 -90.666 51 -129.999c-12 -34.667 -21.5 -73.167 -28.5 -115.5s-11.333 -78 -13 -107s-3.33398 -69.333 -5.00098 -121s-3.16699 -89.167 -4.5 -112.5h-36c0 68 -0.5 120.833 -1.5 158.5s-5.5 85.5 -13.5 143.5s-19.667 109.333 -35 154
c30.667 36.667 47.667 77 51 121c0 4 -0.333008 7 -1 9c-18 -2 -44.5 -9.5 -79.5 -22.5s-59.167 -19.5 -72.5 -19.5c-18 0 -34 4.66699 -48 14s-21 22.666 -21 39.999c0 18 6.33301 31.5 19 40.5s28.334 13.5 47.001 13.5c17.333 0 42 -6 74 -18s56.667 -18 74 -18
c3.33301 0 5.66602 0.333008 6.99902 1c-1.33301 16.667 -8.16602 41.5 -20.499 74.5s-18.5 57.833 -18.5 74.5c0 18.667 5.16699 34 15.5 46s24.833 18 43.5 18c16.667 0 30 -6 40 -18s15 -26 15 -42c0 -18.667 -6.16699 -44.667 -18.5 -78s-19.166 -58.333 -20.499 -75z
" />
    <glyph glyph-name="daggerdbl" unicode="&#x2021;" horiz-adv-x="553" 
d="M291 470c2 -0.666992 4.66504 -0.999023 7.99805 -0.999023c17.333 0 41.833 6 73.5 18s56.167 18 73.5 18c18.667 0 34.334 -4.5 47.001 -13.5s19 -22.5 19 -40.5c0 -16 -6.16699 -28.833 -18.5 -38.5s-26.833 -14.834 -43.5 -15.501c-20 0 -47.5 6.5 -82.5 19.5
s-60.5 20.5 -76.5 22.5c0 -18 2.5 -36 7.5 -54s12.833 -39.833 23.5 -65.5s17.334 -42.834 20.001 -51.501l-15 -39.5l-17.5 -46.5c-4.33301 -12 -8.5 -26.167 -12.5 -42.5s-6 -30.833 -6 -43.5c16 2.66699 42.833 10.5 80.5 23.5s61.5 19.5 71.5 19.5
c18 0 34 -4.66699 48 -14s21 -22.666 21 -39.999c0 -18 -6.33301 -31.5 -19 -40.5s-28.334 -13.5 -47.001 -13.5c-18 0 -43.5 5.83301 -76.5 17.5s-59.167 17.5 -78.5 17.5c1.33301 -16.667 8.16602 -41.334 20.499 -74.001s18.5 -57.667 18.5 -75
s-4.83301 -32.333 -14.5 -45s-23.167 -19 -40.5 -19c-18 0 -32.333 5.83301 -43 17.5s-16 26.5 -16 44.5s6.16699 43.667 18.5 77s19.166 58 20.499 74c-18.667 0 -44.667 -5.83301 -78 -17.5s-59 -17.5 -77 -17.5c-18.667 0 -34.334 4.5 -47.001 13.5s-19 22.5 -19 40.5
c0 16 6.16699 28.833 18.5 38.5s26.833 14.834 43.5 15.501c20.667 0 48.5 -6.66699 83.5 -20s60.167 -21 75.5 -23c0.666992 2 1 5 1 9c-1.33301 10.667 -4.16602 23.834 -8.49902 39.501s-8.5 29.167 -12.5 40.5l-16.5 46.5c-7 19.667 -11.5 31.834 -13.5 36.501
c2.66699 8 8.83398 24.167 18.501 48.5s17 45.166 22 62.499s8.5 34.333 10.5 51c0 4 -0.333008 7 -1 9c-18 -2 -44.5 -9.5 -79.5 -22.5s-59.167 -19.5 -72.5 -19.5c-18 0 -34 4.66699 -48 14s-21 22.666 -21 39.999c0 18 6.33301 31.5 19 40.5s28.334 13.5 47.001 13.5
c17.333 0 42 -6 74 -18s56.667 -18 74 -18c3.33301 0 5.66602 0.333008 6.99902 1c-1.33301 16.667 -8.16602 41.5 -20.499 74.5s-18.5 57.833 -18.5 74.5c0 18.667 5.16699 34 15.5 46s24.833 18 43.5 18c16.667 0 30 -6 40 -18s15 -26 15 -42
c0 -18.667 -6.16699 -44.667 -18.5 -78s-19.166 -58.333 -20.499 -75z" />
    <glyph glyph-name="bullet" unicode="&#x2022;" horiz-adv-x="600" 
d="M198 286c0 26.667 9.33301 49.334 28 68.001s41.334 28 68.001 28c27.333 0 50.5 -9.33301 69.5 -28s28.5 -41.334 28.5 -68.001s-9.5 -49.334 -28.5 -68.001s-42.167 -28 -69.5 -28c-26.667 0 -49.334 9.33301 -68.001 28s-28 41.334 -28 68.001z" />
    <glyph glyph-name="ellipsis" unicode="&#x2026;" horiz-adv-x="711" 
d="M119 -13c-15.333 0 -28.5 5.5 -39.5 16.5s-16.5 24.167 -16.5 39.5s5.5 28.5 16.5 39.5s24.167 16.5 39.5 16.5s28.333 -5.5 39 -16.5s16 -24.167 16 -39.5s-5.33301 -28.5 -16 -39.5s-23.667 -16.5 -39 -16.5zM356 -13c-15.333 0 -28.5 5.5 -39.5 16.5
s-16.5 24.167 -16.5 39.5s5.5 28.5 16.5 39.5s24.167 16.5 39.5 16.5s28.333 -5.5 39 -16.5s16 -24.167 16 -39.5s-5.33301 -28.5 -16 -39.5s-23.667 -16.5 -39 -16.5zM593 -13c-15.333 0 -28.5 5.5 -39.5 16.5s-16.5 24.167 -16.5 39.5s5.5 28.5 16.5 39.5
s24.167 16.5 39.5 16.5s28.333 -5.5 39 -16.5s16 -24.167 16 -39.5s-5.33301 -28.5 -16 -39.5s-23.667 -16.5 -39 -16.5z" />
    <glyph glyph-name="perthousand" unicode="&#x2030;" horiz-adv-x="835" 
d="M128 327c-26.667 0 -49 9.66895 -67 29.002s-30.5 41.166 -37.5 65.499s-10.5 49.166 -10.5 74.499c0 42 9.5 80.667 28.5 116s47.833 53 86.5 53c38 0 66.667 -17.833 86 -53.5s29 -74.167 29 -115.5s-9.66699 -79.833 -29 -115.5s-48 -53.5 -86 -53.5zM128 345.002
c13.333 0 24.666 5.83691 33.999 17.5039s15.666 27 18.999 46s5.66602 35.167 6.99902 48.5s2 26.666 2 39.999s-0.666992 26.666 -2 39.999s-3.66602 29.5 -6.99902 48.5s-9.66602 34.333 -18.999 46s-20.666 17.5 -33.999 17.5s-24.666 -5.83301 -33.999 -17.5
s-15.833 -27 -19.5 -46s-6.16699 -35.333 -7.5 -49s-2 -26.834 -2 -39.501s0.666992 -25.834 2 -39.501s3.83301 -30 7.5 -49s10.167 -34.333 19.5 -46s20.666 -17.5 33.999 -17.5zM473 667.006l-369 -667h-35l369 667h35zM414 -4.99414c-38 0 -66.667 17.8311 -86 53.498
s-29 74.167 -29 115.5s9.66699 79.833 29 115.5s48 53.5 86 53.5c26.667 0 49 -9.66699 67 -29s30.5 -41.166 37.5 -65.499s10.5 -49.166 10.5 -74.499c0 -42 -9.5 -80.667 -28.5 -116s-47.833 -53 -86.5 -53zM414 13.0039c13.333 0 24.666 5.83301 33.999 17.5
s15.666 27 18.999 46s5.66602 35.167 6.99902 48.5s2 26.666 2 39.999s-0.666992 26.666 -2 39.999s-3.66602 29.5 -6.99902 48.5s-9.66602 34.333 -18.999 46s-20.666 17.5 -33.999 17.5s-24.666 -5.83301 -33.999 -17.5s-15.666 -27 -18.999 -46
s-5.66602 -35.167 -6.99902 -48.5s-2 -26.666 -2 -39.999s0.666992 -26.666 2 -39.999s3.66602 -29.5 6.99902 -48.5s9.66602 -34.333 18.999 -46s20.666 -17.5 33.999 -17.5zM707 -4.99609c-26.667 0 -49 9.66504 -67 28.998s-30.5 41.166 -37.5 65.499
s-10.5 49.166 -10.5 74.499c0 41.333 9.66699 79.833 29 115.5s48 53.5 86 53.5c26.667 0 49 -9.66699 67 -29s30.5 -41.166 37.5 -65.499s10.5 -49.166 10.5 -74.499s-3.5 -50.166 -10.5 -74.499s-19.5 -46.166 -37.5 -65.499s-40.333 -29 -67 -29zM707 13.002
c13.333 0 24.666 5.83301 33.999 17.5s15.666 27 18.999 46s5.66602 35.167 6.99902 48.5s2 26.666 2 39.999s-0.666992 26.666 -2 39.999s-3.66602 29.5 -6.99902 48.5s-9.66602 34.333 -18.999 46s-20.666 17.5 -33.999 17.5s-24.666 -5.83301 -33.999 -17.5
s-15.666 -27 -18.999 -46s-5.66602 -35.167 -6.99902 -48.5s-2 -26.666 -2 -39.999s0.666992 -26.666 2 -39.999s3.66602 -29.5 6.99902 -48.5s9.66602 -34.333 18.999 -46s20.666 -17.5 33.999 -17.5z" />
    <glyph glyph-name="guilsinglleft" unicode="&#x2039;" horiz-adv-x="273" 
d="M128 217l94.998 -120c7.33301 -10 11 -18.667 11 -26v-2c0 -8.66699 -5.33301 -13 -16 -13c-4 0 -8 1 -12 3s-7.16699 3.83301 -9.5 5.5s-5.66602 4.5 -9.99902 8.5s-7.16602 6.33301 -8.49902 7l-129 120c-7.33301 6 -11 11.667 -11 17s3.66699 11 11 17l129 120
c2 1.33301 5 3.66602 9 6.99902s7.16699 5.83301 9.5 7.5s5.33301 3.5 9 5.5s7.16699 3.33301 10.5 4c12 0 18 -4.33301 18 -13c0 -7.33301 -3.66699 -16.666 -11 -27.999z" />
    <glyph glyph-name="guilsinglright" unicode="&#x203a;" horiz-adv-x="273" 
d="M146 217l-94.998 120c-7.33301 12 -11 20.333 -11 25c0 10.667 5.33301 16 16 16c4 0 8 -1 12 -3s7.16699 -3.83301 9.5 -5.5s5.66602 -4.5 9.99902 -8.5s7.16602 -6.33301 8.49902 -7l129 -120c7.33301 -7.33301 11 -13 11 -17c0 -5.33301 -3.66699 -11 -11 -17
l-129 -120c-1.33301 -1.33301 -4 -3.83301 -8 -7.5l-9.5 -8.5c-2.33301 -2 -5.5 -3.83301 -9.5 -5.5s-7.66699 -2.5 -11 -2.5c-12 0 -18 4.33301 -18 13c0 9.33301 3.66699 18.333 11 27z" />
    <glyph glyph-name="fraction" unicode="&#x2044;" horiz-adv-x="130" 
d="M271 667l-369 -667h-35l369 667h35z" />
    <glyph glyph-name="trademark" unicode="&#x2122;" horiz-adv-x="978" 
d="M304 267h-192.999v25c14 0.666992 23 1.16699 27 1.5s9.83301 1.66602 17.5 3.99902s12.5 6.66602 14.5 12.999s3 14.833 3 25.5v305h-65c-23.333 0 -40.5 -6.33301 -51.5 -19s-20.5 -31.667 -28.5 -57h-26l11 102h389l11 -102h-26
c-8.66699 25.333 -18.334 44.333 -29.001 57s-27.667 19 -51 19h-65v-305c0 -10.667 1 -19.167 3 -25.5s6.83301 -10.666 14.5 -12.999s13.5 -3.66602 17.5 -3.99902s13 -0.833008 27 -1.5v-25zM691.001 267l-24.999 -0.00292969l-123 282
c-9.33301 21.333 -16 37.333 -20 48v-220c0 -32 3.16699 -53.667 9.5 -65s23.5 -18 51.5 -20v-25h-156v25c26 0.666992 42.833 5.83398 50.5 15.501s11.5 28.167 11.5 55.5v227v14c0 16.667 -5.33301 27.167 -16 31.5s-26 6.5 -46 6.5v25h136l95 -216
c4.66699 -10 11 -25.333 19 -46l18 -46l1 3l133 305h135v-25c-14 -0.666992 -23 -1.16699 -27 -1.5s-9.83301 -1.66602 -17.5 -3.99902s-12.5 -6.66602 -14.5 -12.999s-3 -14.833 -3 -25.5v-262v-6c0 -12.667 2.66699 -21.667 8 -27c6.66699 -7.33301 21 -11 43 -11h11v-25
h-195v25c8 0 14 0.333008 18 1c19.333 0.666992 31.666 4.83398 36.999 12.501s8 21.5 8 41.5v197c0 6 0.166992 14.833 0.5 26.5s0.5 20.5 0.5 26.5l-3.5 -10c-1.66699 -4.66699 -3.16699 -8.33398 -4.5 -11.001z" />
    <glyph glyph-name="minus" unicode="&#x2212;" 
d="M20 369h460v-49h-460v49z" />
    <glyph glyph-name="fi" unicode="&#xfb01;" horiz-adv-x="509" 
d="M257 416l0.000976562 -30.002h-90v-275c0 -32 6.33301 -53.167 19 -63.5s35.334 -16.166 68.001 -17.499v-30h-237v31c25.333 0.666992 42.833 7.5 52.5 20.5s14.5 32.833 14.5 59.5v275h-70v30h70c0 24.667 0.333008 44.834 1 60.501s2.5 35 5.5 58
s8.16699 41.833 15.5 56.5s16.666 29.167 27.999 43.5s26.666 25 45.999 32s42 10.5 68 10.5c23.333 0 44.5 -6 63.5 -18s28.5 -29 28.5 -51c0 -10.667 -3.83301 -20.167 -11.5 -28.5s-16.834 -12.5 -27.501 -12.5c-14 0 -24 4 -30 12s-8.83301 16.667 -8.5 26
s-1.66699 18 -6 26s-12.166 12 -23.499 12c-44 0 -66 -35 -66 -105v-122h90zM429.001 421.998v-311.001c0 -26.667 4.83301 -46.5 14.5 -59.5s27.167 -19.833 52.5 -20.5v-31h-217v31c25.333 0.666992 42.833 7.5 52.5 20.5s14.5 32.833 14.5 59.5v172
c0 26 -5 45.833 -15 59.5s-27.333 20.834 -52 21.501v30c43.333 6 93.333 15.333 150 28zM389.001 490.997c-14 0 -26.333 4.83301 -37 14.5s-16 21.5 -16 35.5s5.33301 25.833 16 35.5s23 14.5 37 14.5s25.833 -5 35.5 -15s14.5 -21.667 14.5 -35s-4.83301 -25 -14.5 -35
s-21.5 -15 -35.5 -15z" />
    <glyph glyph-name="fl" unicode="&#xfb02;" horiz-adv-x="509" 
d="M295 669c38.667 5.33301 83.3301 13.665 133.997 24.998v-583c0 -26.667 4.83301 -46.5 14.5 -59.5s27.167 -19.833 52.5 -20.5v-31h-217v31c25.333 0.666992 42.833 7.5 52.5 20.5s14.5 32.833 14.5 59.5v445c0 18 -2.33301 33.333 -7 46
c-4.66699 -23.333 -17.334 -35 -38.001 -35c-14 0 -24 4 -30 12s-8.83301 16.667 -8.5 26s-1.66699 18 -6 26s-12.166 12 -23.499 12c-44 0 -66 -35 -66 -105v-122h90v-30h-90v-275c0 -32 6.33301 -53.167 19 -63.5s35.334 -16.166 68.001 -17.499v-30h-237v31
c25.333 0.666992 42.833 7.5 52.5 20.5s14.5 32.833 14.5 59.5v275h-70v30h70c0 31.333 0.5 56.333 1.5 75s4.5 41.334 10.5 68.001s14.333 47.5 25 62.5s26.834 28 48.501 39s47.834 16.5 78.501 16.5c15.333 0 31 -2.66699 47 -8z" />
    <glyph glyph-name=".null" horiz-adv-x="0" 
 />
    <glyph glyph-name="nonmarkingreturn" horiz-adv-x="333" 
 />
  </font>
</defs>
</svg>
